<mxfile host="65bd71144e" pages="3">
    <diagram id="r9aevMJxqEB8kfuO1bgd" name="USUARIO">
        <mxGraphModel dx="626" dy="573" grid="1" gridSize="10" guides="1" tooltips="1" connect="1" arrows="1" fold="1" page="1" pageScale="1" pageWidth="10000" pageHeight="10000" math="0" shadow="0">
            <root>
                <mxCell id="0"/>
                <mxCell id="1" parent="0"/>
                <mxCell id="l96GCFTQp6p8LahC0uS8-88" value="" style="rounded=1;whiteSpace=wrap;html=1;arcSize=1;" parent="1" vertex="1">
                    <mxGeometry x="835" y="920" width="1240" height="1240" as="geometry"/>
                </mxCell>
                <mxCell id="l96GCFTQp6p8LahC0uS8-69" value="" style="rounded=1;whiteSpace=wrap;html=1;arcSize=2;" parent="1" vertex="1">
                    <mxGeometry x="840" y="1987" width="1200" height="140" as="geometry"/>
                </mxCell>
                <mxCell id="56" value="&lt;font style=&quot;font-size: 72px;&quot;&gt;Página de Inicio&lt;/font&gt;" style="text;strokeColor=none;align=center;fillColor=none;html=1;verticalAlign=middle;whiteSpace=wrap;rounded=0;" parent="1" vertex="1">
                    <mxGeometry x="1130" y="810" width="670" height="30" as="geometry"/>
                </mxCell>
                <mxCell id="l96GCFTQp6p8LahC0uS8-57" value="image ObjetosPerdidos" style="rounded=1;whiteSpace=wrap;html=1;arcSize=5;" parent="1" vertex="1">
                    <mxGeometry x="895" y="990" width="135" height="112" as="geometry"/>
                </mxCell>
                <mxCell id="l96GCFTQp6p8LahC0uS8-62" style="edgeStyle=orthogonalEdgeStyle;rounded=0;orthogonalLoop=1;jettySize=auto;html=1;exitX=0.5;exitY=1;exitDx=0;exitDy=0;" parent="1" edge="1">
                    <mxGeometry relative="1" as="geometry">
                        <mxPoint x="1613" y="1009" as="sourcePoint"/>
                        <mxPoint x="1613" y="1009" as="targetPoint"/>
                    </mxGeometry>
                </mxCell>
                <mxCell id="l96GCFTQp6p8LahC0uS8-63" style="edgeStyle=orthogonalEdgeStyle;rounded=0;orthogonalLoop=1;jettySize=auto;html=1;exitX=0.5;exitY=1;exitDx=0;exitDy=0;" parent="1" edge="1">
                    <mxGeometry relative="1" as="geometry">
                        <mxPoint x="1613" y="1009" as="sourcePoint"/>
                        <mxPoint x="1613" y="1009" as="targetPoint"/>
                    </mxGeometry>
                </mxCell>
                <mxCell id="l96GCFTQp6p8LahC0uS8-64" value="Iniciar Sesión" style="rounded=1;whiteSpace=wrap;html=1;arcSize=5;" parent="1" vertex="1">
                    <mxGeometry x="1820" y="1000" width="80" height="30" as="geometry"/>
                </mxCell>
                <mxCell id="l96GCFTQp6p8LahC0uS8-65" value="Registrarse" style="rounded=1;whiteSpace=wrap;html=1;arcSize=5;" parent="1" vertex="1">
                    <mxGeometry x="1905" y="1000" width="80" height="30" as="geometry"/>
                </mxCell>
                <mxCell id="l96GCFTQp6p8LahC0uS8-66" value="" style="rounded=1;whiteSpace=wrap;html=1;arcSize=2;" parent="1" vertex="1">
                    <mxGeometry x="940" y="1230" width="313" height="290" as="geometry"/>
                </mxCell>
                <mxCell id="l96GCFTQp6p8LahC0uS8-67" value="" style="rounded=1;whiteSpace=wrap;html=1;" parent="1" vertex="1">
                    <mxGeometry x="2050" y="930" width="3" height="1170" as="geometry"/>
                </mxCell>
                <mxCell id="l96GCFTQp6p8LahC0uS8-90" value="&amp;nbsp; &amp;nbsp; &amp;nbsp; &amp;nbsp; &amp;nbsp; &amp;nbsp; &amp;nbsp;Buscar" style="rounded=1;whiteSpace=wrap;html=1;arcSize=5;align=left;" parent="1" vertex="1">
                    <mxGeometry x="1143" y="1050" width="450" height="36" as="geometry"/>
                </mxCell>
                <mxCell id="l96GCFTQp6p8LahC0uS8-99" value="" style="orthogonalLoop=1;jettySize=auto;html=1;fontSize=72;shape=link;width=-0.5142857142857142;" parent="1" edge="1">
                    <mxGeometry width="80" relative="1" as="geometry">
                        <mxPoint x="1470" y="960" as="sourcePoint"/>
                        <mxPoint x="1470" y="960" as="targetPoint"/>
                    </mxGeometry>
                </mxCell>
                <mxCell id="l96GCFTQp6p8LahC0uS8-103" value="" style="ellipse;whiteSpace=wrap;html=1;fontSize=72;" parent="1" vertex="1">
                    <mxGeometry x="1158" y="1053" width="20" height="20" as="geometry"/>
                </mxCell>
                <mxCell id="l96GCFTQp6p8LahC0uS8-104" value="" style="edgeStyle=none;orthogonalLoop=1;jettySize=auto;html=1;fontSize=72;shape=link;" parent="1" target="l96GCFTQp6p8LahC0uS8-103" edge="1">
                    <mxGeometry width="80" relative="1" as="geometry">
                        <mxPoint x="1148" y="1083" as="sourcePoint"/>
                        <mxPoint x="1178" y="1094.8200000000002" as="targetPoint"/>
                        <Array as="points"/>
                    </mxGeometry>
                </mxCell>
                <mxCell id="l96GCFTQp6p8LahC0uS8-107" value="&lt;font style=&quot;font-size: 36px;&quot;&gt;Destacados&lt;/font&gt;" style="text;strokeColor=none;align=center;fillColor=none;html=1;verticalAlign=middle;whiteSpace=wrap;rounded=0;" parent="1" vertex="1">
                    <mxGeometry x="740" y="1150" width="670" height="30" as="geometry"/>
                </mxCell>
                <mxCell id="l96GCFTQp6p8LahC0uS8-109" value="" style="rounded=1;whiteSpace=wrap;html=1;arcSize=2;" parent="1" vertex="1">
                    <mxGeometry x="1290" y="1230" width="310" height="290" as="geometry"/>
                </mxCell>
                <mxCell id="l96GCFTQp6p8LahC0uS8-110" value="" style="rounded=1;whiteSpace=wrap;html=1;arcSize=2;" parent="1" vertex="1">
                    <mxGeometry x="1626.5" y="1230" width="300" height="290" as="geometry"/>
                </mxCell>
                <mxCell id="l96GCFTQp6p8LahC0uS8-116" value="" style="rounded=1;whiteSpace=wrap;html=1;arcSize=2;" parent="1" vertex="1">
                    <mxGeometry x="940" y="1580" width="313" height="290" as="geometry"/>
                </mxCell>
                <mxCell id="l96GCFTQp6p8LahC0uS8-117" value="" style="rounded=1;whiteSpace=wrap;html=1;arcSize=2;" parent="1" vertex="1">
                    <mxGeometry x="1280" y="1580" width="313" height="290" as="geometry"/>
                </mxCell>
                <mxCell id="l96GCFTQp6p8LahC0uS8-118" value="" style="rounded=1;whiteSpace=wrap;html=1;arcSize=2;" parent="1" vertex="1">
                    <mxGeometry x="1620" y="1580" width="313" height="290" as="geometry"/>
                </mxCell>
                <mxCell id="l96GCFTQp6p8LahC0uS8-74" value="Dirección" style="rounded=1;whiteSpace=wrap;html=1;" parent="1" vertex="1">
                    <mxGeometry x="860" y="2003" width="170" height="110" as="geometry"/>
                </mxCell>
                <mxCell id="l96GCFTQp6p8LahC0uS8-75" value="Contacto" style="rounded=1;whiteSpace=wrap;html=1;" parent="1" vertex="1">
                    <mxGeometry x="1220" y="2007" width="410" height="60" as="geometry"/>
                </mxCell>
                <mxCell id="l96GCFTQp6p8LahC0uS8-77" value="Privacidad" style="rounded=1;whiteSpace=wrap;html=1;" parent="1" vertex="1">
                    <mxGeometry x="1090" y="2094" width="670" height="20" as="geometry"/>
                </mxCell>
                <mxCell id="l96GCFTQp6p8LahC0uS8-76" value="" style="rounded=1;whiteSpace=wrap;html=1;" parent="1" vertex="1">
                    <mxGeometry x="1860" y="2005" width="170" height="110" as="geometry"/>
                </mxCell>
                <mxCell id="l96GCFTQp6p8LahC0uS8-115" value="&lt;font style=&quot;font-size: 18px;&quot;&gt;&lt;span style=&quot;white-space: pre;&quot;&gt;&#x9;&lt;/span&gt;&lt;span style=&quot;white-space: pre;&quot;&gt;&#x9;&lt;/span&gt;&lt;span style=&quot;white-space: pre;&quot;&gt;&#x9;&lt;/span&gt;&lt;span style=&quot;white-space: pre;&quot;&gt;&#x9;&lt;/span&gt;&amp;nbsp; &amp;nbsp; &amp;lt;&lt;span style=&quot;white-space: pre;&quot;&gt;&#x9;&lt;/span&gt;&lt;span style=&quot;white-space: pre;&quot;&gt;&#x9;&lt;/span&gt;&lt;span style=&quot;white-space: pre;&quot;&gt;&#x9;&lt;/span&gt;&lt;span style=&quot;white-space: pre;&quot;&gt;&#x9;&lt;/span&gt;&lt;span style=&quot;white-space: pre;&quot;&gt;&#x9;&lt;/span&gt;&amp;nbsp;&lt;span style=&quot;white-space: pre;&quot;&gt;&#x9;&lt;/span&gt;&amp;gt;&lt;/font&gt;" style="text;strokeColor=none;align=left;fillColor=none;html=1;verticalAlign=middle;whiteSpace=wrap;rounded=0;" parent="1" vertex="1">
                    <mxGeometry x="1120" y="1950" width="670" height="30" as="geometry"/>
                </mxCell>
                <mxCell id="l96GCFTQp6p8LahC0uS8-111" value="&lt;font style=&quot;font-size: 18px;&quot;&gt;&lt;span style=&quot;white-space: pre;&quot;&gt;&#x9;&lt;/span&gt;&lt;span style=&quot;white-space: pre;&quot;&gt;&#x9;&lt;span style=&quot;white-space: pre;&quot;&gt;&#x9;&lt;/span&gt;&lt;/span&gt;Anterior&lt;span style=&quot;white-space: pre;&quot;&gt;&#x9;&lt;/span&gt; &lt;span style=&quot;white-space: pre;&quot;&gt;&#x9;&lt;/span&gt;&amp;nbsp; &lt;b&gt;1&lt;/b&gt; 2 3 4 5 6 7 8 9 10&amp;nbsp;&lt;span style=&quot;white-space: pre;&quot;&gt;&#x9;&lt;/span&gt;&lt;span style=&quot;white-space: pre;&quot;&gt;&#x9;&lt;/span&gt;Siguiente&lt;/font&gt;" style="text;strokeColor=none;align=left;fillColor=none;html=1;verticalAlign=middle;whiteSpace=wrap;rounded=0;" parent="1" vertex="1">
                    <mxGeometry x="1080" y="1950" width="670" height="30" as="geometry"/>
                </mxCell>
                <mxCell id="l96GCFTQp6p8LahC0uS8-122" value="Filtros" style="text;strokeColor=none;align=center;fillColor=none;html=1;verticalAlign=middle;whiteSpace=wrap;rounded=0;fontSize=18;" parent="1" vertex="1">
                    <mxGeometry x="1640" y="1048" width="60" height="30" as="geometry"/>
                </mxCell>
                <mxCell id="l96GCFTQp6p8LahC0uS8-124" value="" style="shape=image;imageAspect=0;aspect=fixed;verticalLabelPosition=bottom;verticalAlign=top;fontSize=18;fillColor=#FFFFFF;image=data:image/png,iVBORw0KGgoAAAANSUhEUgAAAgAAAAIACAMAAADDpiTIAAAAAXNSR0IArs4c6QAAAARnQU1BAACxjwv8YQUAAAJbUExURQAAAMbGxs7Ozs3NzczMzM3NzczMzM7Ozs3Nzc3Nzaqqqs3NzczMzM7Ozs3Nzc3Nzc3NzczMzM/Pz83Nzc3Nzc7Ozs3NzczMzMzMzM3Nzc3Nzc7Ozs7OzsTExMzMzM3Nzc3Nzc3NzdLS0s3Nzc3Nzc3Nzc7OztXV1c3Nzc3Nzc7Ozr+/v87Ozs3Nzc3Nzc3NzczMzM3Nzc3NzcnJyczMzMzMzM/Pz////83Nzc3Nzf///83NzczMzMbGxs3Nzc3Nzc7Ozs/Pz8zMzMzMzNHR0c3NzdDQ0MjIyM3Nzc3NzczMzMjIyMzMzM3Nzc3Nzc3Nzc3Nzc3NzczMzM3Nzc3Nzc3Nzc3Nzc3Nzc7OztHR0c3NzczMzMzMzM/Pz83Nzc7OzszMzM3NzcrKys3Nzc7OzszMzM7Ozr+/v83Nzc3Nzc7Ozs7Ozs3NzczMzM/Pz8vLy8zMzM3Nzc3Nzc7OztDQ0M3Nzc3Nzc7OzszMzMzMzM/Pz87Ozs3NzczMzM3NzcvLy83NzcvLy83Nzc3Nzc3Nzc7OzsrKys3Nzc7Ozs3Nzc3Nzc3Nzdvb283NzczMzM7OztXV1c3Nzc3NzczMzM7Ozs3NzczMzM3Nzc3Nzc7OzsvLy87Ozs3NzcvLy83NzczMzM3Nzc3Nzc7Ozs3NzdHR0czMzM3Nzc3Nzc7Ozs3Nzc3Nzc3Nzc7Ozs3Nzc3NzczMzM3Nzc3Nzc3Nzc7OzsvLy83Nzc3Nzc3Nzc3Nzc3NzczMzM7Ozs3NzcvLy8vLy83Nzc3NzczMzM3Nzc3NzczMzM3Nzc3Nzc3NzczMzKuil6YAAADJdFJOUwAJKkdke4iRmSkDOHSl1/3/cxBhqe1gBVCs96pODW/i54ARifLxhwZm6ncIRN3cQg/+ohM84zoB+vsCrqsSw8cVINkeHNsbF9baGQ7U0bO2jopVUu69wWxoFp+cMjCyNLCtHfwfg4EE5eZZm8qmNTZu9JpYJp31YgreJYz2edMs4DHO1S4aGNAv+cx6B/NplgyvV2o+6xTp+Mk7bZgixS0zxobIC5dW5IKx7LtUUdLP2MKoOUDwhN9Mp0tecCdFkI94PWt94WdlN3yTghQAAAAJcEhZcwAADsMAAA7DAcdvqGQAABDNSURBVHhe7d39X1Rl/sfxIRUnSUGCSMxBMQXBFFAUBwsz8A6tNDJJzUKT8m7D+0Vpdb3Z+C4iq2v43a99W2+6v8/MzKzcarc/a/Wx7+2BMMOcmbnO8VyH1/NH5nM+15nrM8w555rrXCcEAAAAAAAAAAAAAAAAAAAAAAAAAAAAAAAAAAAAAAAAAAAAAAAQVBn3DBs+InNkODwyc8TwYfdm6M8YAkZl3Td6THbOHbLHjB6bNUoBCLDc+/PyVfQB8vMeyFUYAqngwXGFKnYcheMfKlAwgmZCpEhlHtTEScXaAEFSPPlhVTihKVM5EgRNSek0VdeR/LJybYhAmP6IKuvYjJnaFParCFeqrEmorJqlzWG52dWqaZKq5ygBbDY3UqOCJm3epKiSwFoZtapmSuZzLmi5Rx9TKVNUt0CJYKXHF6qQKRvzhFLBQvVJX/0N1LBIyWCdxUtUxLQsXaZ0sEzjcpUwTSsmKCGsEn1SBUzbU0wUsNHTKp8BK5USFlml4hnxjJLCGvVx5/2koomLQctEn1XpDFnNaYBdnlPhjFmjxLBCc5PqZkwTY8I2eV5lM2itUsMC61KYAJJI9nolh/+9oKIZVavk8D03vgBycio3KD387kWVzLCXlB4+17JRFTNs4yY1AH97WQUzbrMagK+1vqJ6Gfeqv28bbNyyddu0lGfADj1Ttg/fsaAgo/53r+W16U8G1EzbtnPX3ZhAsHvPXu0CnFi4b7967pbG0t/rz2bsXduuzF7JODBPbcOJg2Nb1XNS3pHgvvEk1az0dEJ5++tqF44s/YM6ro8Nh/SiIXUeTiU8nNSdr/hjzB92mo/oZUOqjyqx69qpf1KWxvlh79gMBRhSfVyJXVb+JzUIRwrfUMcNsK5TIYb8jzdrjx1Qc3BmrPothj8rxBRPRo52c/6flIX9zv/76krxRvJ4TnhxENijxuDMPvVbTN0KMuWk8rqokfGfpEzpM/4zUM9BhRnS5v6Y4BY1BWe2q9/i+IvCTDmlvO7ZqpbgzHD1WxynFWZKWHnds00twZkd6rc4/qowU+qU1z1n1BKceVP9FsdihZnSq7zuMTx2EXgl6rc4GhVmylnldQ8fgOQkGJzLUJgp7n8AOAQkp179Fke9wkxx/xDwv2oJzvxO/RbH3xRmivsngTvVEpz5P/VbHKYvA88pr3t2qSU4k6d+i8P0LQWrlNc9ExgKTkpbozoupgknFGZIW48Su2it2oIzpeq3mF5TkCk7lddN7cwET8rvB5mt2WV2cnBO51tK7KqVag3OdKjfYpikEFOmKq+7yuvUHBwpjHuX7/qzCjHk/7uU2GXLDM9jCbpDzeq4fo4Z7scijyaFhkJH+QQk5cgxddwdjq3Qy4YUva3EHjjOUSApM/6ujutjveH/ovOe/f/f1rXZ4P2NQ0Dnn/sdnrsmmT3+d17w6Pj/m+Mn+Qgko7q7zxjNhNfMXv+1hT25/uun59S5i738OuxY4V9O/3Vx8aX6v51+0eD4X2fvxXfe9WD8D3G1vqdaGOfzBSIg76texrFEjB1YJGqoS+tRgfGNU3r43WF3FoqMe1cx/OYD1cwo1om0hxtfAdl8AVjEhVumvZjbAVNmfaiyGZPPAyOsYnp27+AzyeA7ph8a9VFUiWGJRUYPAk0tSgtrfKzaGfGJksIiBldPm6yUsEnU2JODeHi0nRo/VQHT9Bk/71uqeYlKmJaFnk7ug0mLDKz+2xBzCjHssOlzlTFlS7gAtFrxFypkis4nWFQKfpcxX6VMyZeePvcDbpgbSXmm9LyyuUoCm81J8Z6fostKAMtVjMxWTZNQWTVLm8N+MxtUVseWfqVNEQgFpb2qrCP5ZV7f2ge35V64ouomdOXrCm2EIOmJOHo04NWyXG2AoGn9Ji/BI0EOXvuWn/4CreL6tbjLK5/Zfn3QVQQRDNEd31Ud6Xf/4MblVZENzPsbQspvfL+vI/OHcPjHzJv7pt9gyBcAAAAAAAAAAAAAAAAAAAAAAAAAAAAAAAAAAAAAAAAAAAAAAAAAAAAAAAAAAAAAAJiXcc+w4SMyR4bDIzNHDB92b4b+jCFgVNZ9o8dk59whe8zosVmjFIAAy70/L19FHyA/74FchSGQCh4cV6hix1E4/qECBSNoJkSKVOZBTZxUrA0QJMWTH1aFE5oylSNB0JSUTlN1HckvK9eGCITpj6iyjs2YqU1hv4pwpcqahMqqWdoclptdrZomqXqOEsBmcyM1KmjS5k2KKgmslVGraqZkPueClnv0MZUyRXULlAhWenyhCpmyMU8oFSxUn/TV30ANi5QM1lm8REVMy9JlSgfLNC5XCdO0YoISwirRJ1XAtD3FRAEbPa3yGbBSKWGRVSqeEc8oKaxRH3feTyqauBi0TPRZlc6Q1ZwG2OU5Fc6YNUoMKzQ3qW7GNDEmbJPnVTaD1io1LLAuhQkgiWSvV3L43wsqmlG1Sg7fc+MLICencoPSw+9eVMkMe0np4XMtG1UxwzZuUgPwt5dVMOM2qwH4Wusrqpdxr3Lb4N3UuGXrtmkpz/AdaErtmjnHosXN/1hTe1B/QkI107bt3HU3Jkjs3rNXu2BGw0+XlPmWnm5Ht41C9q5tV895JePAPLVtRuHPJcosXR2deglO1Kz0dMJ8++tq15Bf3lbiPtbN0ItwpM7DqZKHk7qzN7EVx5T4DsuO6GU4Un1UHee6dsP1/yVm/UOh5kMKgCPVx9VxLssw/P1fGOP7/z82JFg/Bneq61LHueuAmjPlZ+WNoUMhcMaTkbHdZs//cxr6nf/3VX5VQXDkhBcHgT1qzJSflDembgXBmZPqNxc1mh3/yZnSZ/xnoArDrQVdW486zj1b1JQpCaZ1zFcYnDmlfnPPVrVkSoLZvRGFwZmw+s0929SSKQnW/clSGJy5qH5zzxm1ZEqcQaD/alEYnOlVv7nH9G80CcYu9isMzpxVv7nH9Adg0IuAUKhLYXDG/Q+A6UNAs/LG0awwOOP+IcD0SeBs5Y2Dk8Dk1Knf3LNTLZmS4DLwnwqDM+fUb+7ZpZZMSTAQNF5hcGaV+s09PW1qypDCRiWO6dIJhcERD4aCQ2vVlindyhvTvxQEZ3aq39zUbnAm+G1Fg4wElBhYWHIo6XxLHeeqlWrNlA7ljeGmQuDMVPWbu8rr1JwhNTuUeIDLZxUCR857MyUstCzFBz7EMyPO7wEtExUAR4o8mhQaCh01/Ak4EnM4sOVTvQxHiuJOrjVvwWo1akj1r0rcx2X+/5Ny3rP//9u6NpsdDijs6HdnU0kHx/9kdF7w6Pj/m+MnzX4EDnVXKPMtl0q5/ktGW9iT679+ek6du9hr8NfhvfMjWS37S5p/XZPH+J9jnb0X33nXg/G/NLS+p301jgUi7PC+6mUcS8TYgUWihrq0HhUY3zilh98ddmehyDeUHr73gWpmFOtE2sONr4BsvgAsYvqW4lu8mPsAU2Z9qLIZk88DI6xyWnUzplSJYQfTD436KKrEsMQioweBphalhTU+Vu2M+ERJYRGDq4tNVkrYJGrsyUE8PNpOjYYm+X3m75+/EVfzEpUwLQs9nfwGkxYZWAG8IcGiMvCzTZ+rjClbwgWg1Yq/UCFTdP5NJYKlMtJa+vFLT5+LATfMjaQ8k3he2Vwlgc3mpHhnWdFlJYDlKkZmq6ZJqKyapc1hv5kNKqtjS7/SpgiEgtJeVdaR/DKvb32D23IvXFF1E7rydZ/7BhEYPRFHjwW7WparDRA0rd/kJXhM8MFr3/LTX6BVXL8Wd/nhM9uvD7qKIIIhuuO7qiP97h/cuLwqsoF5f0NI+Y3v93Vk/hAO/5h5c9/0Gwz5AgAAAAAAAAAAAAAAAAAAAAAAAAAAAAAAAAAAAAAAAAAAAAAAAAAAAAAAAAAAAAAA2C7jnmHDR2SODIdHZo4YPuzeDP0ZQ8CorPtGj8nOuUP2mNFjs0YpAAGWe39evoo+QH7eA7kKQyAVPDiuUMWOo3D8QwUKRtBMiBSpzIOaOKlYGyBIiic/rAonNGUqR4KgKSmdpuo6kl9Wrg0RCNMfUWUdmzFTm8J+FeFKlTUJlVWztDksN7taNU1S9RwlgM3mRmpU0KTNmxRVElgro1bVTMl8zgUt9+hjKmWK6hYoEaz0+EIVMmVjnlAqWKg+6au/gRoWKRmss3iJipiWpcuUDpZpXK4SpmnFBCWEVaJPqoBpe4qJAjZ6WuUzYKVSwiKrVDwjnlFSWKM+7ryfVDRxMWiZ6LMqnSGrOQ2wy3MqnDFrlBhWaG5S3YxpYkzYJs+rbAatVWpYYF0KE0ASyV6v5PC/F1Q0o2qVHL7nxhdATk7lBqWH372okhn2ktLD51o2qmKGbdykBuBvL6tgxm1WA/C11ldUL+NeHVq3DTZu2bptWsozav1vSu2aOceixc3/WFN7UH/yoZpp23buuhsTEnbv2atdCKaGny7pnd7S0+3ottG7Zu/adu2pVzIOzFPbwVT4c4neqXR1dOolf6pZ6ekE9fbX1W5A/fK23mgf62boRZ+q83Bq4uGk7qS1z4pjeqN3WHZEL/tU9VHtqOvaA17/X2LWPxRqPqQAn6o+rh11WUbAv/8LY3z//8eGBOvH3G11XdpRdx1Qc0H1s95nDB0K8StPRqJ2B/v8P6eh3/l/X+VXFeRTJ7w4COxRY0H1k95nTN0K8quT2k8XNQZ7/CdnSp/xn4EqfP7u23q0o+7ZoqaCKsG0jvkK86tT2k/3bFVLQZVgdm9EYX4V1n66Z5taCqoE6/5kKcyvLmo/3XNGLQVVnEGg/2pRmF/1aj/d4+/fRNKXYCxlv8L86qz20z1B/wAMehEQCnUpzK/c/wAE/RDQrPcZR7PC/Mr9Q0DQTwJn633G4feTwDrtp3t2qqWgSnAZ+E+F+dU57ad7dqmloEowEDReYX61Svvpnp42NRVQhY16ozFdOqEwn/JgKDi0Vm0FVbfeZ0z/UpBf7dR+uqk9wDPBbysaZCSgxMDCkm7qfEs76qqVai2oOvQ+Y7ipEL+aqv10V3mdmguomh16owNcPqsQnzrvzZSw0LIUH7Bgixlxfg9omagAnyryaFJoKHQ04J+AIzGHA1s+1cs+VRR3Mqt5C1ar0YCq/lVvtI/LPv//P+/Z//9tXZuDPRxQ2NHvTquSDn8f/zsveHT8/83xk8H+CBzqrtA7veVSqb+v/9rCnlz/9dNz6tzF3gD/Orx3fiSrZX9J869r8nw8/tfZe/Gddz0Y/wuQ1vfUd8YNsQUirPW+6mUcS8TYgUWihrq0HhUY3zilh98ddmehyDeUHr73gWpmFOtE2sONr4BsvgAs4sItzl7MxYApsz5U2YzJ54ERVjmtuhlTqsSwg+mHRn0UVWJYYpHRg0BTi9LCGh+rdkZ8oqSwiMHVziYrJWwSNfbkIB4ebadGQ5P8PuPneEs1L1EJ07LQ08l4MGmRgRXAGxIsKgM/2/S5ypiyJVwAWq34CxUyReffVCJYKiOtpR+/9PQ5HXDD3EjKM5vnlc1VEthsTop3uhVdVgJYrmJktmqahMqqWdoc9pvZoLI6tvQrbYpAKCjtVWUdyS/z+lY8uC33whVVN6ErX/e5bxCB0RNx9Fiwq2W52gBB0/pNXoLHBB+89i0//QVaxfVrcZdDPrP9+qCrCCIYoju+qzrS7/7BjcurIhuY9zeElN/4fl9H5g/h8I+ZN/dNv8GQLwAAAAAAAAAAAAAAAAAAAAAAAAAAAAAAAAAAAAAAAAAAAAAAMCQU+jegmgEpmiq4ewAAAABJRU5ErkJggg==;" parent="1" vertex="1">
                    <mxGeometry x="1710" y="1050.5" width="25" height="25" as="geometry"/>
                </mxCell>
                <mxCell id="l96GCFTQp6p8LahC0uS8-126" value="&lt;font color=&quot;#ffffff&quot;&gt;&lt;span style=&quot;font-size: 18px;&quot;&gt;Aquí incluiria la información del objeto perdido, como imagen, fecha, descripción&lt;/span&gt;&lt;/font&gt;&amp;nbsp;&amp;nbsp;" style="shape=note;whiteSpace=wrap;html=1;backgroundOutline=1;darkOpacity=0.05;" parent="1" vertex="1">
                    <mxGeometry x="1005" y="1290" width="190" height="170" as="geometry"/>
                </mxCell>
                <mxCell id="k_dgjwr1SHSMGFhL6LZe-56" value="&lt;font style=&quot;font-size: 72px;&quot;&gt;Página de Inicio de Sesión CU&lt;/font&gt;" style="text;strokeColor=none;align=center;fillColor=none;html=1;verticalAlign=middle;whiteSpace=wrap;rounded=0;" parent="1" vertex="1">
                    <mxGeometry x="2630" y="820" width="670" height="30" as="geometry"/>
                </mxCell>
                <mxCell id="k_dgjwr1SHSMGFhL6LZe-60" value="T002" style="text;html=1;align=center;verticalAlign=middle;whiteSpace=wrap;rounded=0;fontStyle=1;fontColor=#FF3333;fontSize=20;" parent="1" vertex="1">
                    <mxGeometry x="2310" y="960" width="60" height="30" as="geometry"/>
                </mxCell>
                <mxCell id="k_dgjwr1SHSMGFhL6LZe-61" value="" style="rounded=1;whiteSpace=wrap;html=1;arcSize=1;" parent="1" vertex="1">
                    <mxGeometry x="2323" y="1030" width="1240" height="830" as="geometry"/>
                </mxCell>
                <mxCell id="k_dgjwr1SHSMGFhL6LZe-62" value="" style="ellipse;whiteSpace=wrap;html=1;aspect=fixed;" parent="1" vertex="1">
                    <mxGeometry x="2868" y="1073" width="140" height="140" as="geometry"/>
                </mxCell>
                <mxCell id="k_dgjwr1SHSMGFhL6LZe-63" value="" style="rounded=1;whiteSpace=wrap;html=1;arcSize=3;" parent="1" vertex="1">
                    <mxGeometry x="2730" y="1250" width="410" height="430" as="geometry"/>
                </mxCell>
                <mxCell id="k_dgjwr1SHSMGFhL6LZe-64" value="" style="rounded=1;whiteSpace=wrap;html=1;arcSize=5;" parent="1" vertex="1">
                    <mxGeometry x="2750" y="1285" width="370" height="310" as="geometry"/>
                </mxCell>
                <mxCell id="k_dgjwr1SHSMGFhL6LZe-65" value="&lt;b&gt;&lt;font style=&quot;font-size: 18px;&quot;&gt;Iniciar Sesión&lt;/font&gt;&lt;/b&gt;" style="rounded=1;whiteSpace=wrap;html=1;arcSize=5;" parent="1" vertex="1">
                    <mxGeometry x="2850" y="1610" width="170" height="40" as="geometry"/>
                </mxCell>
                <mxCell id="k_dgjwr1SHSMGFhL6LZe-66" value="&lt;font style=&quot;font-size: 22px;&quot;&gt;&lt;b&gt;Usuario&lt;/b&gt;&lt;/font&gt;" style="text;html=1;align=center;verticalAlign=middle;whiteSpace=wrap;rounded=0;fontSize=20;" parent="1" vertex="1">
                    <mxGeometry x="2778" y="1332" width="60" height="30" as="geometry"/>
                </mxCell>
                <mxCell id="k_dgjwr1SHSMGFhL6LZe-67" value="" style="rounded=1;whiteSpace=wrap;html=1;arcSize=5;" parent="1" vertex="1">
                    <mxGeometry x="2770" y="1369" width="330" height="40" as="geometry"/>
                </mxCell>
                <mxCell id="k_dgjwr1SHSMGFhL6LZe-68" value="" style="rounded=1;whiteSpace=wrap;html=1;arcSize=5;" parent="1" vertex="1">
                    <mxGeometry x="2770" y="1480" width="330" height="40" as="geometry"/>
                </mxCell>
                <mxCell id="k_dgjwr1SHSMGFhL6LZe-69" value="&lt;b&gt;Contraseña&lt;/b&gt;" style="text;html=1;align=center;verticalAlign=middle;whiteSpace=wrap;rounded=0;fontSize=20;" parent="1" vertex="1">
                    <mxGeometry x="2790" y="1442" width="60" height="30" as="geometry"/>
                </mxCell>
                <mxCell id="k_dgjwr1SHSMGFhL6LZe-71" value="" style="triangle;whiteSpace=wrap;html=1;direction=west;" parent="1" vertex="1">
                    <mxGeometry x="2338" y="1070" width="40" height="50" as="geometry"/>
                </mxCell>
                <mxCell id="k_dgjwr1SHSMGFhL6LZe-72" value="&lt;font style=&quot;font-size: 14px;&quot;&gt;&lt;u&gt;¿Olvidaste tu&amp;nbsp; contraseña?&lt;/u&gt;&lt;/font&gt;" style="rounded=1;whiteSpace=wrap;html=1;dashed=1;dashPattern=1 1;" parent="1" vertex="1">
                    <mxGeometry x="2800" y="1730" width="270" height="60" as="geometry"/>
                </mxCell>
                <mxCell id="k_dgjwr1SHSMGFhL6LZe-94" value="Página de &quot;Registrarse&quot;" style="text;html=1;align=center;verticalAlign=middle;whiteSpace=wrap;rounded=0;fontSize=20;" parent="1" vertex="1">
                    <mxGeometry x="4500" y="950" width="250" height="30" as="geometry"/>
                </mxCell>
                <mxCell id="k_dgjwr1SHSMGFhL6LZe-95" value="T003" style="text;html=1;align=center;verticalAlign=middle;whiteSpace=wrap;rounded=0;fontStyle=1;fontColor=#FF3333;fontSize=20;" parent="1" vertex="1">
                    <mxGeometry x="3980" y="930" width="60" height="30" as="geometry"/>
                </mxCell>
                <mxCell id="k_dgjwr1SHSMGFhL6LZe-96" value="" style="rounded=1;whiteSpace=wrap;html=1;arcSize=1;" parent="1" vertex="1">
                    <mxGeometry x="3985" y="1000" width="1240" height="860" as="geometry"/>
                </mxCell>
                <mxCell id="k_dgjwr1SHSMGFhL6LZe-97" value="" style="rounded=1;whiteSpace=wrap;html=1;arcSize=3;" parent="1" vertex="1">
                    <mxGeometry x="4405" y="1230" width="410" height="600" as="geometry"/>
                </mxCell>
                <mxCell id="k_dgjwr1SHSMGFhL6LZe-98" value="" style="rounded=1;whiteSpace=wrap;html=1;arcSize=5;" parent="1" vertex="1">
                    <mxGeometry x="4425" y="1265" width="370" height="505" as="geometry"/>
                </mxCell>
                <mxCell id="k_dgjwr1SHSMGFhL6LZe-99" value="Registrarse" style="rounded=1;whiteSpace=wrap;html=1;arcSize=5;fontStyle=1;fontSize=16;" parent="1" vertex="1">
                    <mxGeometry x="4525" y="1781" width="170" height="40" as="geometry"/>
                </mxCell>
                <mxCell id="k_dgjwr1SHSMGFhL6LZe-100" value="&lt;b&gt;Nombre completo&lt;br&gt;&lt;/b&gt;" style="text;html=1;align=center;verticalAlign=middle;whiteSpace=wrap;rounded=0;fontSize=20;" parent="1" vertex="1">
                    <mxGeometry x="4432" y="1283" width="192" height="30" as="geometry"/>
                </mxCell>
                <mxCell id="k_dgjwr1SHSMGFhL6LZe-101" value="" style="rounded=1;whiteSpace=wrap;html=1;arcSize=5;" parent="1" vertex="1">
                    <mxGeometry x="4441" y="1310" width="330" height="40" as="geometry"/>
                </mxCell>
                <mxCell id="k_dgjwr1SHSMGFhL6LZe-102" value="&lt;font style=&quot;font-size: 14px;&quot;&gt;&lt;span&gt;Registrate a Objetos Perdidos&lt;/span&gt;&lt;/font&gt;" style="rounded=1;whiteSpace=wrap;html=1;dashed=1;dashPattern=1 1;fontStyle=0;" parent="1" vertex="1">
                    <mxGeometry x="4476" y="1190" width="270" height="30" as="geometry"/>
                </mxCell>
                <mxCell id="k_dgjwr1SHSMGFhL6LZe-103" value="" style="triangle;whiteSpace=wrap;html=1;direction=west;" parent="1" vertex="1">
                    <mxGeometry x="4013" y="1050" width="40" height="50" as="geometry"/>
                </mxCell>
                <mxCell id="k_dgjwr1SHSMGFhL6LZe-104" value="" style="ellipse;whiteSpace=wrap;html=1;aspect=fixed;" parent="1" vertex="1">
                    <mxGeometry x="4550" y="1020" width="140" height="140" as="geometry"/>
                </mxCell>
                <mxCell id="k_dgjwr1SHSMGFhL6LZe-105" value="Núm. Cuenta" style="text;html=1;align=center;verticalAlign=middle;whiteSpace=wrap;rounded=0;fontSize=20;fontStyle=1;" parent="1" vertex="1">
                    <mxGeometry x="4437" y="1361" width="138" height="30" as="geometry"/>
                </mxCell>
                <mxCell id="k_dgjwr1SHSMGFhL6LZe-106" value="" style="rounded=1;whiteSpace=wrap;html=1;arcSize=5;" parent="1" vertex="1">
                    <mxGeometry x="4441" y="1390" width="330" height="40" as="geometry"/>
                </mxCell>
                <mxCell id="k_dgjwr1SHSMGFhL6LZe-107" value="&lt;span&gt;Licenciatura&lt;/span&gt;" style="text;html=1;align=center;verticalAlign=middle;whiteSpace=wrap;rounded=0;fontSize=20;fontStyle=1;" parent="1" vertex="1">
                    <mxGeometry x="4471" y="1440" width="60" height="30" as="geometry"/>
                </mxCell>
                <mxCell id="k_dgjwr1SHSMGFhL6LZe-108" value="" style="rounded=1;whiteSpace=wrap;html=1;arcSize=5;" parent="1" vertex="1">
                    <mxGeometry x="4441" y="1468" width="330" height="28" as="geometry"/>
                </mxCell>
                <mxCell id="k_dgjwr1SHSMGFhL6LZe-109" value="Correo electrónico institucional" style="text;html=1;align=center;verticalAlign=middle;whiteSpace=wrap;rounded=0;fontSize=20;fontStyle=1;" parent="1" vertex="1">
                    <mxGeometry x="4430" y="1514" width="320" height="30" as="geometry"/>
                </mxCell>
                <mxCell id="k_dgjwr1SHSMGFhL6LZe-110" value="" style="rounded=1;whiteSpace=wrap;html=1;arcSize=5;" parent="1" vertex="1">
                    <mxGeometry x="4441" y="1542" width="330" height="40" as="geometry"/>
                </mxCell>
                <mxCell id="k_dgjwr1SHSMGFhL6LZe-111" value="Contraseña" style="text;html=1;align=center;verticalAlign=middle;whiteSpace=wrap;rounded=0;fontSize=20;fontStyle=1;" parent="1" vertex="1">
                    <mxGeometry x="4459" y="1591" width="76" height="30" as="geometry"/>
                </mxCell>
                <mxCell id="k_dgjwr1SHSMGFhL6LZe-112" value="" style="rounded=1;whiteSpace=wrap;html=1;arcSize=5;" parent="1" vertex="1">
                    <mxGeometry x="4441" y="1618" width="330" height="40" as="geometry"/>
                </mxCell>
                <mxCell id="k_dgjwr1SHSMGFhL6LZe-113" value="Confirmar contraseña" style="text;html=1;align=center;verticalAlign=middle;whiteSpace=wrap;rounded=0;fontSize=20;" parent="1" vertex="1">
                    <mxGeometry x="4434" y="1681" width="216" height="30" as="geometry"/>
                </mxCell>
                <mxCell id="k_dgjwr1SHSMGFhL6LZe-114" value="" style="rounded=1;whiteSpace=wrap;html=1;arcSize=5;" parent="1" vertex="1">
                    <mxGeometry x="4441" y="1708" width="330" height="40" as="geometry"/>
                </mxCell>
                <mxCell id="k_dgjwr1SHSMGFhL6LZe-115" value="&lt;font style=&quot;font-size: 72px;&quot;&gt;Página de registro CU&lt;/font&gt;" style="text;strokeColor=none;align=center;fillColor=none;html=1;verticalAlign=middle;whiteSpace=wrap;rounded=0;" parent="1" vertex="1">
                    <mxGeometry x="4260" y="830" width="670" height="30" as="geometry"/>
                </mxCell>
                <mxCell id="8ZCCWY4n8_wKpXx7-8Hf-58" value="&lt;div&gt;&lt;font style=&quot;font-size: 24px;&quot;&gt;1. Agregar filtros para los objetos &quot;Perdido&quot;, &quot;Encontrado&quot;, y&amp;nbsp; &quot;Reclamado&quot;&lt;/font&gt;&lt;/div&gt;&lt;div&gt;&lt;font style=&quot;font-size: 24px;&quot;&gt;2. ¿Què coste tendrà para el hardware (servidor) la visualizaciòn de imàgenes?&lt;/font&gt;&lt;/div&gt;&lt;div&gt;&lt;font style=&quot;font-size: 24px;&quot;&gt;3. En &quot;Destacados&quot;, ¿va a mostrar la imagen junto con su descripciòn? o ¿va a mostrar un panel de visualizaciòn como el ejemplo de abajo?&lt;/font&gt;&lt;/div&gt;" style="text;html=1;align=center;verticalAlign=middle;whiteSpace=wrap;rounded=0;" parent="1" vertex="1">
                    <mxGeometry x="210" y="1369" width="540" height="30" as="geometry"/>
                </mxCell>
                <mxCell id="krbPknht3z9TjCIM4Bz2-56" value="" style="shape=image;verticalLabelPosition=bottom;labelBackgroundColor=default;verticalAlign=top;aspect=fixed;imageAspect=0;image=data:image/png,iVBORw0KGgoAAAANSUhEUgAAAf8AAAHwCAYAAACop2ZrAAAgAElEQVR4XuxdCdxVU/d+6ioqKlKaUFEJpcE8pCQaDSHNGUvKFEJmPqWQoTTgI82FSiPykWSmNP0pZUqGt1Sm0qt6/3vde9c9++y79j733t4M37fv72d473DW2fvstdbeaz3rWUUK1OuHH37AAQccAH6pt7Bz507s2LEDxYsXD71Pn+Xn52OvvfZKvU//Q9//448/UKxYMRQtWjT0Gf2xYcMG7L///qFrbd++Pf43/UZ/0fssu0iRIqmP6D36Z4899hBlbNy4Efvtt19IBn2fXvQbUwaNhd7XZdA4SD7dk/4+//ann35CmTJlMpJB88GyzXGQnFgsljaOdevWoXTp0thnn31SMvie6Pv0j/6c6F7p2pmOj35LMvbdd1+ULFkyJIPmip6dKYPGQe+bMmzjYxnlypULrRNeU9K4f//999Ta0eeKZev3xDdN46hQoUJo/fA6pHWrX4ee9bZt2+Lr2VyftJ553OYzJxkVK1YMzQnNE827JIPGQbphXodk0xjMOeS5qlKlSmh9sow999wz9D6NQ5JB79NcmWuEf/z999/Hx6GvHZJB86XrOH1O79O1SLY5h/S+Tf/y8vLiz0PSM13H2b7QHErjc8n48ccfQevK1AH6W7IjND5Tl13rkK6zadOmuH7sigyeW2mt03V//vnnuJ7zi+/J1GWaK5edlGwYrymyU3vvvXdoHNIa4bVDsqU5pAvQOCTdIHtbokSJ0Djofs01wn6D3jd1me6Jrm2TUb58+dAaddlo0jOWrd8v6Tg/C2kc5P903XTpuMuO2PSP7EilSpVCtsel4yTD1D+aZB6fZA+//fZbVK5cOSM7QnNYxDt/7/xptbDx8c4/2GyyEfXOP2FP2El45x/YV3J00gbDO//wAc07f+/8M95N+5O/P/nTYvEnf3/y148y/uQf3nj4k394s+5P/lmc/NWuNeuwvxTe51CM7VRghv3p+/yPmVrgXbMZrss27M/XJ3XRQzqkMHQtSXFoJ0/v28J1mzdvRtmyZUNhLpJjymDZLhlmyoFPmlLYPyokb4bMOFRoC6XlEvY3rxUVrpPC/lEhQYo8SGF/832eKzPsb1sj9Dwo9MdpKV2GzWBEnfzNFBfLkFILrnAdhQQzDfvb0mu5hP1dqT1Jx6NkmGF/1jMztaCnFU17wc/PFj6VnD/rspRaoM8kO2JLu9Ezl8L+UvrQZUeiTv5S+lBK4XHYn9Yr6YCesmIdN9/PxY6wbJsdscmwhf2lFCWnHCQdl8bH46B0sZ4esvkaPT1qyogK+0vpQyn9q+sf3bNpR3jcUmrBDPvbUpQuO8LjyCTs70qvxcP+yigVmI6Zw8D0Xyl/TwvbFE6C6B9zQthLSvl4DiXqMugaLD9bGaZj5mvRfyUZ5vt8P65x/PLLL6F8vGvcvCkw55Dvi+SZi4TwF5SnK1WqVChKYrun+ENM4iLM/Kw0ProoyaANhp6ry2Qc5rN1/YZk0AZDwoxIa8Q2Dn5fwl+QDDI+utG3zTmNmzdQ5rVssnmuKOdorh/b3Eq6EaVPJuYm6vsuGTb9kxyzpH/8HjvH1CJM/o9rfk3HrOtTNvrHMqVnLjlmSTd4bUo2LMpWmY6Zn0c26z9Kxq+//pqWj7eN22VHbHYhFzvC9kif9yjdIFyBjv/icUt+w6XjkmzWP5sdsfkm6aDgWrc0V3RQ0Q+I/H2XrcrWjtAGQ7LR0roi+bZx2HRcwu6xr5F8UBElpEAyDHxyNQEgtt0K71BtJ2YJ8EfX4pOxbmR4928CkfikYpOR6Y6dHQFdTwL8sXGVFpcN8MeAFR6HvmM3d9N8KpBO/gTaIMdsAnVoFyrl412AP7oX6eRPMih6IQH+pLm17TZdJ3+SQQpl7thtc0snYwks6gr7kwxyzKbzZ1CoqWj6yV9fb1G7aQID6RtR2/qkZ24D6kTJkIA6nPrS79UmI+pUbgL+WAckGbnquAT406N4haHj0sm/sO2IdIigcZg6TuPhSKGpyy4dp9+ZgD+2F5KO26KU/L5Nx007YrOfuq2SgMN0vxJQlfSPHLMJ+LPpuE0HXFHKbO1IrraKHLMJ+JOiRjRXJMME+9Ic0fu2yDeNg07+uk1y2ZFcZHz33XdxGVF6xhsCD/jzaP/4WmHD4AF/HvBHRsmj/T3anzc3tkMEpas82j9wta4Nvkf7+1K/+Epx5QN9qZ+c8/elfgkjQ7t2X+rnS/1cUQf6jOyIL/ULNvJROX9f6pfcxJCB4ZOgr/MPRVHg6/yD+fB1/ulcAr7O39f5R23wpbA/21sKC5vgZF/n7+v82er6On9P8pM6BXqSH0/ywxEBT/KTThZGTtWT/ARRI0/yE44scpTkf/Lkv3XrVhHtzwZFQtwywjR8Jk6EJKXv0/dMMJ7r+uZ19b9dMqRTOf3Wdk+5jMNE+/O9Sddy3attjASaIrCfDsaLmg9pjC7ZJIMYBHWgDj+PbK9lk0MyCFRogjZdc56tbJJBOUcJjCTNWa7Pg0qNJLR6YemGBJTLVf9s612q6IlaVza9sf3OrOiJ0g3bvbqekwnGi7IjNr102QUTjBelG65r2ebKRPu7nkXUGKXf2uxILjYvBRDT2FZJJsmg1ILE0pjt2ilMO5KNXvI4TDviWoO52hECJ5sg5Gx1wPYseBwmw6ZrXcXR/lKpkYTS5TIO2j1K1KZ0Cs0G7S/V59LNMgoy2x17tvS+0qkgCqWbTdjfhQSmubTV4Et1/lz6YTqhXND+Lnpf8/m5UOQcjrRR1pp1/ra51WXYaoBtc5VpfS6tK64oMEtlovKBUn2uVAPMSHwbhbCL+jPTOv+oigIb2lii93Wl9hjwpxsPfk42GevXr49XX+hOP9sa/CgZtjp/kmmuQ5sdiarBt6H9bTKkqiEet1QfT9eR0P5SRYELie+SYcv526qGbBTeUXwhEuBPQvvzOExAMc1FlAyJ3tdW0cPU0KaO8/hsfCHmyZ91w6zi2BUdl+h9s6noobnKtmqIxsFU5KYue7S/R/vH14RH+yd6GpinBs/tH4Cmohyz5/YP9yFhrgSpZNhz+weuKIoszHP7B3Plc/4+5x9fDa5TgS3qQL/zjX3Cjad8Y5+geRdH3nypny/1y+RU7kv9AsfsS/18V7/UavBd/XxXP14MvqtfAMbjaiLf1c939SP98Cf/9P4dvquf0ZaVc3i+pW/CpfiTv2/pq+fXPdrfo/15Pfg6/zCqPwrX8z+J9s+W25937dny7mfK7c9OjeRIfMSMtJQQnX8Ftz/ny1283/QdCeVpvk9/Z8PJzQBMvnYmvNEsQ+L2Z8MhcVbzvWYjg9D+OhJYv18bL7b5Pv9GyptK3P6u79Pm0cWXbXsehPbX13uUDImQKIpbnIyP/nLxubt4922839lw+3PoP9txSNz+Ubz0Lg54Scez4fZnW2KzI/R5phTekm7wOshWN+j7mXL7M7pbsnsufSLdoIoevWooE/3L1lbZeoRk81yj+geY/Ttc42CwYUiZ1B9R+ldY3P7SWmCba+sRIumsaxyZcvuzb5LWeXw9qdBbGrc/XVxHZptGidGt+vt0Mb5hSWmlMiD6Pr10I6PLNgFYUTJshoGR9ZmMg3sa2MrHJJQuLyzTWErj4wci3RN9RvzMpLQmtz8riKlUejcuc3wuGeSYzcY+tuenVxSwMWIHYT4/vgcaBymt6fy5q5+5iZDep2sxOlkyJiSDFErq2Cg9Px0JrM+V3m3MNBokgxyzVGVh9r2g37pkSL0c+JmbnNwc1TFlMOjOLKGk+WRucUn/bM2DbLrM1QzmfHBFjyRDKifUeenN9WlDbGdrR5jb32ZHzLUQZUekxj6MxDfXoc1e8D1Jm02aB6mc0GYvbFU1/H1JBq1bcsxmgzDeAEt2RKpMiJJB3P5mYx+uTDLXiF5pkI0dIccsdX6VALo2/bPJZv2jqiFzg2/TgSgdp3nUx8cyKlasmHYIZCS++X3uQ2LOoctWmRU97EvpGUp2xIr2Z+dvTjo3/SCjrt8YlxRkWwZEv5Nk8A3rMrIN+zOCnSbfHDxNuqvUz1ayKEUXpHI7NjD0X1vTD0mGjd6XldZcoK4SHUk2zYUN8McO2HR0NhlRuTqp1E96rnSfelMM/ZmzDFs5YaYtfUmG3jxIl5EL4M82DhfDH43BRlMslfpJZUC0ZmkcZHDNDRTPoSTDbPrB65NkmBs0vTzIlMGGT9qM2dD+Nh1nwyfZEVtZpNQgjDcYpo7T+5KMKDuSTYOwXHA9kvN3Vdvozl+fqyhQr0nvuzsqemylflKPEA69m7ocZUcybenLdoRLxLPRcZsdMcvN2Y7Y2nbTurXZKqnUz4Z7ceX8bTKoeZDUIEySET9MqsGk1fnTAF01wPQQ9d0en2alHuC825eUlhe15JjZ8O2K82cDR/cgdauSnCMbPvOh8ziyqfPPxTB4bn/P7c9RFZth8Nz+ntufo2KuDb7n9vfc/rwBNomYvPMXTuXe+Sfq3fnFYWbayUs7dt5YmeEp2sSYJ3/eUEoRD3Jo3NLXPPlLxCAcwZBIfiQSqo9vOgQNBn9uRrEz+ztWEvuV2xulD2yAxs3OQ9eL2+G46ntjbwOQSnPluf1z5PYf1wZFus4OnkerMSiY3TXt+UgkP65DhBTdc61DEiid/LOVwZFTWwTR1/kHjzbq5O/r/IO58nX+vs4/vho4L0zOMtPIhivsn21q4Z/U2GeXnL+wRSherR0emzEGPeuWCm2UvPP3zp8jNwzM9CQ/CVtlS0t55+9L/VJGlHbZPuy/T2o+OBph5kG988+81K+wnX/i4ZRBk6Hv4eU+tUE0Of7knweTW5zz0npqj9OKobSGP/nHbZ65kWcdp9UmpUd92D8I7dMc8cnYBEH6Ur/wBiMe9ldAoILffvsthAqlSZQQtHza5B2teSBiRLqEBN6yZUtas5psZdBCp39spQ6qSVEagp1RlFK5jzSOKBl8suOx8/fpb1tJkYQQpt9JKF1qHET5GQkEKX2fT+tS6ZxLBmE2JIOciwwJYEbjoDIj/TMXAto2DhfamGQQmlmfX9uaWvGv43H6418FS7bYPti/TFghhAN+Yr3t2IJNm7ciUZtivkqj3ZjleLx5osacQZOSbkhrhN6TmkXZxuGSYZtD+o3USCZXGbTWpNOsqeOsG/RfqTQ4pH8vdEWlPq8G09bsMXw37oK02ZbsiAuJ75JtQ+JLOs62TdJlm+7Tb2wyGNCl2xHb9+l9SYZLn2hNmTqei/6xbMnmkgyqGDKrbWzjcOm4bU1JdoTXlbQGXfbQpX+SHbF9n6tRbDpumyuq4DLBrdL6jNJx21xlq+NF1EDSSv1sgD+6KXqwtqYfXAYkPRSpBlg6FZAMRuOa5UzZ5up4Eum/mYbFWYatLCvThhwsm+ZSQiGzYzbnihCbVKJjlvrppSq6wZAqDXgOeWGZGwOSQSU6eqmfa25ttJWcB5VKbkgG5fx1oIlrbm0yXGh/kkEnTf3ZsgxzzpfcXBMNH9By/iqnvGNm5/hURjXLoBKdokV/x/r3xqN356vxwhf5Yb2vdDle+3wkGhdLVBSYlTC6DLpX3pDyRUyULj0vmttskcB6xYRpmMwyIJuekWyaQ64o0K/D+I9MK3pYBufd9Wul6fj4toh1mxN8pdWz6vl0SXP+uTT2ydaOZNPYx4a4j7JVUs6fNxjmRsmmA4wrkGwVrSkC/JmlfpKNjoog0kOw6bhpR/haEtbBtj6jdJzQ/vozdNkRvaJHXzyu1ILNjnCpn1RVQ/aFxqjrcpQdIbS/CWB3gXrNrqv0Wz2yYSqHWdHj8qXxQ436l0f7a60qOcTu0f6JpcUG/78O8Nd6LApmJZxLVqV++d/gqXOPxOVzftJ0L4YmI9bjtZ5lPeBPbcb0lw/7x8QoiQf8BavE5/x9zj+1GnzOv3Sc6IdfPucfrkDgeaGKgpzR/rk6fyV8x4YxaFutO+b+prm5U4bixzd6o4SqWjBr8Olbnts/gtvf5/x9zt/SVdOj/QM749H+Hu2fOpXbwv5RBCAUrtOpPzmUJpFzuEh+6EaksOPfvtRvV5y/Ama91rMizvj3hkArS3XCjF/G4XTv/P3JnzaIao0wpsGj/T3an+xhYZH82MjCsib5kXL+nCuQcnW2sLgr10PXk0h+GIBi5uNZcSRKQgZ0SAqVDTOXTUZUrs5G8kP5GLM+nsFqZr6MGclseTQp58+gJjMfaMu766xgZm5Iyvm7nh87f0m2OW6WJeX8bTJykU1ypFwdX8vckLhy/i7KTJKRyPkHbYBpjWx9uiVK99QAamiFZ7fPwAWKAIvZv8x8oC1XLikt65me6+R8PJNpmViObKg/XTrOqR4p9eXCFaxfvz5Ot6y/bHqWlq/ehZx/tnYkCteTac6f5snFLmjD3ND8mCBPvlZh2hEp52+zI7a8Ox8uJOAirVti+NMJ32huGfBn2ugoO2KTYcv5m7gCFybFJttmR2zYIZduRNkRM+cv6TjdD8kgPSPdN3XcpX9Szt8lo4hCthZIYDw2XBJyPw4W0PLkrOy29+lz0zHzIOm/5rVYtsSR7LoviZOb5WQrQxqfTWl5/DYZtmuZTpn+JopUAunoQB3bXLEzsF3f9jxIBm0wTE5uaRx0bd5wSffrkkH9A8yqBdtcscHIVgYZH4m73ZyTpbfWwbEPfRFcvuUz+H1ax9TfrnGQ8TEpjzGxHUpcMle73ZZ45vdpuFAZPxMIpOvHHz8twSvDn8GoWS/h4y/XY+PGLVoVQXGULl8GVWqfgZYdu+DyDk1QvVS4lCl9PU/EuXtdDL6T6n3fwycDjkqIzF+Ht0cMxh2jp2L5lxuxeWuyl0bJ/VD1sFNx3tU3oV+7+ihLdYrai+aC/pE22Kl52vIl5k96EqOeeh4LV3+H9T8zCJLGUAmH1m+BC6+/Dpc3qYaS0kNV74We+cRzsdfF2ny2fFo9n05pv7TZEZsO8Olb34jxGGzPXLIjLtvGc2XKkGwbD0hCZrvsqstOSp+RjlPq0ASNSTLYjrhkSPPrsiPm93dFhmlHbDY96n36XPIpNA4CJ0sVKdK4bbbK5ZtIBm2MTfCgbY3kKsMstXXNSRElRGzsQzs+8+TPjkBC+5MQ187Hhvan30knf67zN40Sl1JJD0UyDLYTcNTJ/89A+0sc0Da0v7RjpznQwWr6XEVFF0ihpLC/hNJ17dil50fvuU7+0tzqvN+6EY3asZNC6REiO9r/0DDDX+sx2JlEk0ehdKWT/xcDjkbNOz7Wprw1xuyYgfOTaH/TyPz6xUzcc3FPPLbgexi1AhbXqN4uXg3nPzYDo3scGXeg9LxpbqgULagoGIe2RbuBufFq3LgIqwcdjm/mXo9W5z6O5VHClIzuYxZgVPuqca4CPbpgouTjOv7bl5h3T2d0H/IOfpRrH0PjiZU7Adc+Mx73takWvz4bO1qfpJspGePaomi3MMPfziQgU7+grUEYzUumdqSwTv50X/rJX1+3UTKkxj58ys4G7W+LLtjQ/rbIqevk79JxG9pf0nGbf9gdaH9zA86ypY05zRU17zLLkmmupOZdlHfPJbonof2l6Dqf/E1K3ii0vy3sb/rS1KFRCfJof4/2T/Vy8Dn/8EmbcnXk/HXDsGPHBow4rSKuWqB5v9q3Yvkn96KGkPPPm9cTp7R8AqsycJbpO4EYavd7F0sHHW0hEhqHNkW6as7/Pcw56CYcd9V86PUI9h0GfVIGrceuwqwuCaQ+GQve4IdOKj+8giubtcXIFVE7ClNaDFU7PYePxp8LkkDGjcORKQPnAX8e8OcBf3HFIf1wNfYptJy/d/57iN0JfalfwoDTQvSAv7Dz3/r+dTjiuEegJRFQqfdbWDf0hPRSvzUD0bB2fyzWHX/ximjU8Upc0e4MND+qIhI1+MCSea/g5bHP4KkFXxjRgRro9/EaDFLRfD75BxUFYed/8MknI3/hQnyX9L+xkjVxUovmOP7EGqhZpig+e3M6pj3/Fj7bYuxESrXG2LWz0GVfi/PP/xA31Tseg1fqv4uhZM0z0KdXN5x5xgkou+1HlPvjG8x7ZSpGDp+Ij77XNwlqA9B9OpaOboOy3vmntfTlSAFttkzSHFdfAY54mJFQ2rT6xj6+sQ9H2HxjH+1A4iLnkMgd+Ke+q18wif9obv8c0f5blg9Bq5OvxxuhY3Vd3L16KW6vYTb22YSRTcuj1/zAYcZq98DcBaPQXCuHJ0Ott/TNXzkMZxx3VUgGbS6+HXZipPNPPZ1YVZwzfC7GJ1MGIZIfxVUw56rTcdYTK0OshQ0GfIVFtxwknPw3YfK51dFhujboMsei33MzMUgbSLil7xYsH3IOmvSbp6UHyuCcSV9gavuy/uT/889x3A2/vPNPAKalTYwv9Qtsri/186V+qVO5L/WrkJbzz6irX8bOfzVi24riq+XjMeYh6VSuguadZiJvfBsUM7v6rbkH9Q69E8tYd2P1MWDlYtxySDgsbjp/+nTD8Cao2PuNwDkrHoGNC/rET83h5kHhk3/iyjXQ5+1lGHpCALUzGf5Usg9DG1fBNQu1k/wZ/8a2ly9BzAj758/viWpNn0hFE1CqOUZ9Ogs9qoaRgmHnn7iTb59tjcMvmhOkICr1xsJ1Q3G8AkZ6bn/v/GmNeJKfv4jkR3Fli2h/M2u3q39LYDy6JoOYdvX69Hsb2t92bZts1z1JPOyFce98DSqXIqS/DsZzzVMu80cyCAmso/0L+1mQDAo7SqCxbObLNT6SQYAjCThpylh22xE4bogeqM/mLuzfjdXqizfe/xcaGoh5+sXaB05A7TuXpH5c6rxJWDf2rBTwTX/mZokclt2mUgtDgtRC9b54b8W/UDftViaiXclL8ZL2viRHAtzmq4qFcpe+FGwwRBmb8VSLA3F1Ct8Qw0lDPse8K8IlfSRe1vHPMfDYI3Hvcr7BUjhv0jqMPcuYMHUvJdW9pF4t/o0tU4NqDH7fLMPL9SkWpo7nYkekfiq5jkX6HekGUYRLFLE6MJF/m6sdoeiFGVLOdhxROk7gZAl4l60c2/dprqhqSOpRUpgyqGoom8qvbGVLpbaua1jpfRkNLzWYkcBADOCx1TJLdf6SDLpZ5v028+78vk2GaXw4lEbXlDpiMdJSfyBR5BxS2F86fZOCMRLYRL66ZHzzzTdxp2ky/DFK1+QSsOXjXSQ/JIMWu4n250oKs6zNlfOnuZPCdSSDFru+wbA9P0a38nPVn4cLCUwyCKWrP1ubjN3R1a949e6Y9O5onJsM4Zv5+CUjuuOeV7/Epws/xfe/bkOzMd9hynkl0vSRxlG1atXQ+zsW90PNhg8Ezr9GP3y8ZhDqarz7iXkyT/6l0Gnmr1CBiNDLrAGOr08lo1ajB0MyFq++Py6DkfhF/hiPNiUVoJADBLGWGPPrLHTdK+A9YEHSyZ+u8+PjTVHx2oXBJqjTDPw0plUgg8aRBvh7FgWzu6XNlc2O0HikHhqpcQig3kztCOsy3Yy50bSlvqLsiI3eVwLc6hVLum5E6Tg5Tb1HSGETedG6pRI5qUeINA69okd/sK6TP8mgjbHZI8Rmq0gG+w19rlwU3i47YvogBuMx2l8fh4vFk2RUrlw5VD5ry8fbAH9sJ8ne2irFSIb+8jl/QWl9zv9/nOEv22219v3iFRui/e3D8dilx2LfPQNQUToYL/hRNL1veWxe9xkWvalAf8+Px/i5H2OdDspLOv96kWH/kzF045voo4B7+is97E+b0zE4q9hFKY4AKJbCmb+OR0s97P/GFaigQv7r+WIHXY4582/B4RrpEX9kLeddeh8at3sG3/IXVWXE0hV3o5baGHi0f2JSfM7f5/xZPTzaXxkgk+Eo6uRv1gC7duze+f+PO//ipVGh7F5xfbORq7BR3vughmhY7VDUb3kmzmjZGPUq7oOiyRp1k7QjnI8XnH/+Jny17B3MW7YEi5WD/37Dp1jwf2vx84Zf3PX/GTv/VhhbMBtmP7yMnD8U4r9gFjpqzn/z46div6ve3IWtkvBTtcl48acxONM7/9TkeOfvnb93/moGfGMf39iHFcFF8vOXNfbRCGoyc/5bsOjZO3Drv0Zg3mqd0S8Ln/oXOf+lN6tNz2CtFXIWt2z/amtFhfwiLvTO3zt/NQMe8PcXAf58nb+v89fDjp7kJxOSn4CdLtL5581Dn2Zt8Hgk1V7CD8QU9W7tozugfcvv8PQt0/A1uwfv/OMzYaYWKGrjqoOXcD1R/TukHiHZysg15+/r/NP1z5f6hSOIhUbyQ9z+EoiGxUnoxFx4hyVaTtchwhaKdfEnZ8PJ7bqOKwwsNeSgcUjzZJOho23N3/3www9xkI7E7Z+LDOk3JINQupnwfnNYXBqjaw5JBiHxJW7/whwHAY5MUhRp7bq4/aPGQcYnjdvf8sxDurHpObQ/rCtmSFR7sZIKdHkwDj+pNmoccgJOb66IeI6shoP2T5TnFSzpj8NDaP/r8f4n96EefRbqrRHm9gcSPQZMnLyp44nnOgHtSlwS5PyTv+2grs/P25y3WNux+HXK+eJ6lxyzzY6kzXmG3P4S2j9Kz2zrzYa8lqh3C1uGye3vsglRtkrSTdI/Ag2bVUO52FXbb0gGgZOlHiHZzHmU/mVjR6J8k22uCJy8O7n9aa5ytiOao4yaKwJA6y/X94uoHWoavS+fBGkiTcPKO22zhIvet3Ubo+tJxkdHw+s3zJUDJtIyii9bKjUiGfSSOtLRPduQ+DZu/0y7+pFMW8e9KN59s6sfjZsXtemESIZ5WnfJps+IAzpTbn9+3jYZpOTZdPyisbt4v+l6Jtqfrm+TIXH7SyRNu9LVT+L9DvHSJxcvo3Fp3RYtuh2zu1TEWRN1z18c1c8bgCfvuxgn1VRNj5K/E7v6fXyTgcS/EYs+ux8E+Avr2Xi0jXXDnJQCtVI9Bmaic8gEIMkiqGgEtdfOnWPDgD/VmZB+2zGJ9qdxrB10DKrfujj41UlDkDf/KtbB2H8AACAASURBVJQTAH+2rn6sZ3wR+jvNjqR19RuNHTO7GqOQT/6kG6YM+iGfvs31FnXyt3X148oW/aZsMlw6Tr83NxiMTzJl8DyZEQEenzRu1nGpqx+tW6kbnsuOSONmGTZu/8KUYXb1c/ka7npnsyNSOZ/E7c/zbq4dli1VikT1IZF6hLjsyO7s6kc6YC31YwUxT25s4Mwacfo+GyWpG5gUXXCF0rgZgVmGx85DkuEBf4FZcpUBUa6clFZq7OPD/oUU9t88Ck3L90JA7hdDrRvewrIHjkur85dIfnbM6IQyZ0/Eb/xI/6Kwf5HZXbB32wnBfZTqgBk/qw2H4PxtpX5kM/QyPPrbc/t7hj9e2j7n73P+Kc/lAX8e8KcbBinqQJ//rQF/U9phjw7TAwKdUufjubyJOL/kHmmnWcn5r7qrLmrfnWLGUaR9iTr/6FK/wkX7F9n8OBrvdxUCvH8pXPDCBkxpl6iU0F8257/m3gY47P6vVXXFfjiwQUMcfEQHPDa4Hfb3gL/U9Hm0v0f765Ex39inePFQCNiX+sVC6QtXSNCf/MNrJ43kJ2N6X6mrXwaAPxXGLtJVa1Fb/Xp8tOp+NFTU1OYrzfnnz0ePak3xJHfnoR/8Vc6/yFoMbHgw+muR/1iD+7ByUX8YLMUQnf+W/6DXoafjKW0slXovxNpHj/f0vp7bP64K/uTvT/7+5J88zVLO32T441ydyfDnuf13N7d/js7fPPnjJDyaNx9Xl49y/nmK7K4Wus42UILle+D1vFE4NZLkp5BP/gqDsUmx7x2oNjKpFATCbYZZcdOdfz7eu7EuTnpwldZAqC7u+mwJbqvuuf19Y5/EyvHO3zt/7/y9808D9v1j6/zTwuWqAVCrJ7F82mUw+uHE0xfU1S//m7m4/cKueOjtH0Pd9hKKkSDg6fwXOH9gjTr911an/1BfYhzZezrmDmmZGo/Z1e+de5qi5Z3vB0191CioCdIP41pjD9/Yx3f1S1p87/z/IuevmL8KpLITykHRyzxp0nsMutPDlwziYfS3Gdo0G1nYvs9IYLPSgK7HqF6bjK1bt4bK13ZFhoQup3tgBjceH8uQ5kovs9CBi65xEAqYKE9NLmsutzGBjvycTHQrVzlIc0UyqMxPB2HZKgr4efP1TQCm9D79hmQQoFCvFomSwWMz54quZ46PZVBJpL5GWYbZb2DFvceh2eNfBcvy9GH4ftz58b9tFSEsg6Iw5j2RHKmnARmyxJh/wgtdG6LPq1tCqhDb93Ccd/nVaN/6aFQrRR/l4YOXX8Z7M2di8gefY2vKv1KKZ4e6N/756Rj23Vicr07izGue+OR5dKnYB6+mpKjvfT8OiZEFL6kh1Y4dU9CtytX4j/5bJeO85JyE+MM3KDknKjk/h68bK1EDp17SHd1bt0b1vbegZEEePpw9BcNHT8PSvD/CYz+kt6IGvh319kiUEvIcJobRBRX7BKNAs8fw/fj2xigA1YgsBFR16V+ajOTVXOuQvmLaEdYxkmXaQ7ZXJoo8ylZxTpcHGGWr6HumDrAMyVaR/hEoW+rNItkE0gFJl6NkSHbEZqu4oiDbcUg6TjKkcXOElOeL55d13DZXVF6t21bX9wtLBs+tVGKo6zjbHltFCI9RKkPndWVW7cWfgfowrdSPf8CIe32BerT/T/HaVn1OeKEURtMPOgX6sH+AuP/HnvypkUyearpTSzXFker809ya9kaZY3Hj5Ck49MFq6Jnyhwfjug++xEONolr6Fn7Yn+9s29p/o32Dnpjxox4BcA0k+CxWtROe+2h8vAmSR/unl/p5wJ8H/Ok+xQP+POAvdULyOf9Ympf5W6P9uYtcNgx/sXKo12UAxg/vgTp77sCim2ri2IeCNsQNBnyFj24+MBV9SpwIzK5+u8/5x2ucf1uBsb0746bxS5HRHkCNqe7lQzHn0Y6p9IB3/t7568rsw/5/Udjfn/w9vS+HR7NtG2xrZ0rXI8dM7Hs6H4SLXIXSKQlynKIiyY9EzvGPcP5xK7cFK18ehkeGTMZLH36KtRsDfv/ipSvggGpHo2Of63FF59NQPUHwF09FbF/YB9WbjEQKKF+pNxauG4qGaq5oXv8S559MaxT9/Su8Nn4kho+agje/yMOPxpgq12yAVmdfiYt7nY6jyhTzdf7G1tXW0tck8+GKHvq51JacPpdIs0g3KEKpt/RlghrSJak1OMmWZJBsKcVFMqg1uNnS19VuV6Km9c7/H+D82SjRw6KctJ4HtS0sXvMm+xfnL0wCEJZBxs/G8GeyR7GMTEl+WDY5I5OpMIqT22T4yyRcZypnVBmeFPbnnJyZu9H73ZvMeJzbM3EC2ZD80NxyH26JJdFlGCTnv7sNA5eDZtOH2zY+3sQQM5c+dpYhsVzSJoZ1Q38eFMazcXKLJD/J5kE69oMxJFLnwCj9++6771CpUqWQC7KNg9Y0zUm2Om6i/W3pw9TmRuiMyOQ/EoMa/U6iEGY2Pclx5aLjJsOfS8fZXpjrLVs7wk7e5fxtdkSyh5Lz57k1nT/Nq80B21hKWTcksrA/Q8eZGc/0QczwZ9oqep/soJma5XEQi6eJT6I5MVn26DmRLtP7pl1lHZdwBfQ8KleunFa6bhtHYYX9mTPHtCNxXAbR+9qUlhaLxMyVi2OWGP4YeCPJYMCfCbQi2bvq/Nn4MIDHBLFJ77PVLAx6X5dCEdWkSe9rA3rYDAbda5QMid6X5pypdHm8ugxz9x8lg04FmZz82XGxcdOfB5cy2mg5JXpfiULY5VSiaDmzofdlwJ9pGNgoScyUIr1vEg2fKY22PoeSDLOlr77JNmXY5orXgk3/pDp/3Tnqa4qvle0G33T+vNbNQwRvPGx2RFrrfH8SvS+Ds0znkQuFN8mRwFm8wTdP5TZMUZT+2WjCSb8kGeb7mdgRk97XFt3TN6e26J6Nwtuk942SIdkR1nGbjAoVKqQ5f4kmnMdhrlveQNl0g3RcovdlX6rvyhlXZ6P3lTZv9HvTjug6YG6MaQ6LqB1GgXQq51OG1NCEPjMNDL0n/cZ1Ko+SYaJCWYaE/CY5ktLaZPD72cqQOLldMtiRmTtU21yRkaZQnRmui+/UDN57fT5o/JIMaa5IBhkGnd7XNrf6c81mrkgGGQazaoHv07zX+GJMjs/8jNeQ/j69RzIoumBuHqW5YmcnVRS41hXJoA2GWVEgjUOXYd4rI8Yzdcz6fJiGIRf9kzb4tjVF8kJI/OQNROmfdCp3rVseR6a6QbchddzLVYbNjkgbfJcM25q2rUPJ+fP6kHSMvh+l/5JuUJWK3iAsFx3ndWjaF9Y/OkSYjX2i7tW8lm3sLIMOEfoG1TVXLDtbGbTBkPrYSGuE06OSjkv2nsdBGwxd/11z65JB15PsCDUP0hv7uHxyfJ7Uvzzan8FZSaMn7fjYANtO/vS5R/sHburvlvOnxW4L13FI0JbXlML+tnCdFJKnWSHZdH1b2JHq/PVXPOev099qDjiXsL958qf54FO5lPpypfZsIfld4vbXxmeLntBXfEvfYJVEpQ99zj+oGuLUni0kb4b9Wf+yCftHpQ8p7WaWE9p0vLDC/jY7Et94eOfvAX980vtvBvx55/99POzIL+/87elDKbrgakLG6VEzfcjRE+mU5gF/wSbGA/7+AYA/DiPQDsd39UssXjai/uSf3g3v74T2987fO392N66qE/qOd/7h6AL95dH+gb13RRBt+XiKhPqTvxbec+2mmWDI3E0zmMu39E1sPDy3f2bc/t75e+fvnb/iaVAIdl/ql35Q8WF/zTFL+UAyoIwENnMhrjISumympX58ki4M5887fJJvgsL0MicTXU73YENtFkapn6sMyMbw5wrJc3lQpuMgGQTU0cFAfE9m+1yaCz2XpcvgcJ1ZIUDzbcv5u8qA2ChJMmwnDwLj6TlrW66O1gLdL6N0dRmFlfMnGZyrk8qAssn5SyU6nJ6RZPBzspUTmqV+trC/Ht0zy5miZEiAo1zsCD8naYNvVg1xxRDdm6TjrpC8udZ5c2Ce/FmGGd3jzTfLzibsXxh2hHP+u1rqR/evV7yY+scn/0xLhnPRcZ5bE0RHdoTAeDpwmG23iT3hDb7EFxKl45k6f1oLdC2SkW05oXnyd+m4VGpLc+QqGbah/dmXBvGcBI9IEcWVXWDWx+tfMv+fHg5Nsu192+emQrlk2D7ja9tkmHk0G2o8E9k2GWYfBJZhmxOSlc1nBJoipL+OxLfdS9Rz4s9N+SSD0P566mZXZEjjIxm0wdAdc9Tzy+S56N8hGYQE1kF0UTKyHSfJIOMjOaJs79f2fQkoV1jX5utIJXJRepap7tucZi5jiHp+ptPMRQb/xrYWzDK83WFHzF4nu8OOENpfJ+DJdu3TPLnGTuuWQIW6Y456ftk+L5JBVUP6xi5KRrbjJBmUopTKibPVEZeO00HF3NxkOx+u75sH7Cj/4AF/qgmL/kA4giHVcdJkerR/sKT+SQx/Puzvw/68cn3O3zP86Y6RoguZnvyj7IjP+SsmJfMlkfz4nH8s7UTpG/vsHnrfKKXlELAUdvSlfglt5vCwL/ULrBvZMI/2L5GaEBdBlI19z6P9Pdo/tYA4F2LiCmy5Hv5hpvS+9H1bjaw/+RcVeb8lakx/8i+eFhb1df6qbZ/2Yj2TWDxtNc6+zp9aQgcbLtchiTZknts/WHA2il1f5x/eYPg6f0FxvPP3zt8MCfqTvz/5+zr/WFq+2jf2CUe4/2tIfqJQuoyo1PNopCC2nMffEe0vhetcCFop58/5Q0bcSzt2c2de2Gh/KWQdxf71Z6D9s+34VZhof2l9knJyNOmvQvvbqhZMhj+P9k90eIxKH/7d0f62ioL/VbQ/p4ykigJbBCNTtL+OxDeZ/KLQ/kS9q0enXFVDjPa3ybCxeGaK9ucUpdRYy5Y6IT2R0P42Fs/4yV+FKQvMfDw9GJ0/WVdARnZLqEX6zIZmzBbtT9eiyTWR5C4ZEhJY+j6jQZmBKxsZJhKYc6HmuPU5NMfhmkMqlyKUro72T7OAyTeiZNieBckglK7JyU2XdY3D/CxqHITSlRrTSPdFz0Iy9lEyCKVrcnJL46D3XDLoniSUMM0VGQYJ9VyY49A5uXlN2Z4Hl33q68Kls/Q9Sce5rC+bcdjWO70vVRS4nl/U85DWvdm/wzVX/JnNjtjWiVk1ZJPh0j+bzvL7ZtVQrjJs9tBmR6TnweOw6YBLhmlHXPZQWrdR80TjoEOE2ZjGdk8u/2DzKSSDNhhms6Nc7IjtN2YZLI/bdr+56IZUNeTSP7GrH92Y1I2LDSjzmusPjoRwfadkTCTDQDI4Z6Vfi0/T5k6Qd/nS6Yl+L20wOFxn7sZ4fNnKkAyDrfOcSzbdr63DVDZd/Wwdv/h9mwyzqx89B1ZOs5kTjUM6wfD4pOdBu1ByzGYrSZIhfd/WWS+q457Z1c+1Dm2d9aJkmN24WIZkkPTogr6md3dXP5LFuXJJ/2xd/Tj6ZepfLjoulRqxLktdxWgtSHNoWyPSBoOeBcmQ7IhLx5ksTJqrbLr6sQ0z17TNhvE8Sw3CJP2j77vsCI3bpn/kmM3GPjYdj9d9G93+XLLpM9Jxs6sf2xHznlhnJDsSpX9mVz+XjjOJkXmQiJIhde6U1gjJtmFSbLJ5rujkL1WWSQckmx1xyZDadnMaW+rc6Uv9fKlf3B6xsZJIflhxMm1cRNfzjX3CLGK+sU+x1P6CHbYH/JVOzUkm6UNzoxSV2vONfXxjH05f6Icwtvfe+Xvn752/wgL4Ur/g7E8Gw3f12ze0WfGAPw/4owVBG1fP7b/XXnqkMH5yzIaWk0M3dBFpR8uUhHqYxJf6pZNzeG5/z+3PRknibWcl9S19g1OgJ/nxJD+68/IkPwcckBaWMzmBGSDku/qVCc2VLe9uq4PPBe0vVVLwBsqsNOBcHedBJeIaytXpoEIf9k+UOHqSnwTex5/8/clfz/n7rn4Jk+9P/r6lr3f+agY8yY8n+dFPUBLa2JP8pLN40pyZgD+f8y9i3XybzbtcXCye5KdyKCLvzPkrhS2QytcYQWs2O2A0pwn+YhAPnZykki2ptIXLCc3vu2TH6xMtMlSTotBp1nVPLMNEw9ve5xndunVrqFmGTQZHSeh3XELD13DJoHJFKsEzUfLSuFk2XVcahySb3iMZdOrX0y2uSgpGAtuek1RRYJPB5TbmCZsrCkwZrqoFkkFNkPQ16ppbjp6YslmG1NiDZFDppX5fLhmc+gppoPrDNj5+HgTO0l/8PKSa4VxkFKaOS8+b7t3UcX19FpYdMRviuGTY7Ai/b7MjNh2nMZrlYKzn2doR7szIz9xlRxK6vx2vXnkEukz9WVsmMRxyzct4u3/dtIiVy46Y95qLnXTZEZuOR9kRm/5RxYKuB1E6TuOT7AjbYVP/bTpOcqSIh82OsI6b9p7niqq4zDS2rVrDpuO2ObTZEZdt84A/D/iLG5O/f9h/ItoU6YrZKdPXGo99MwpXGOQcjD0xqaGjwnX/O4C/JbjpkPoY/DlPZHX0+/hzDDoq8Ckc9n/u/BLoFkw4Wo/ZiakX/hE3xNIG35/8A1zBjh1jcNYe3TFHW69jC2ahS/LvrE/+nw/CcUfcjsU7gudUptVorJjeCZUNG0bfoDy2R/t7tL9H+ytlME9Qntv/n5bz986fjDptYqT+AVx/bGPYDAB/3vn/OYC/wnT+W/DGlTXR/KnvUp4/Vrsf3lp0HxoW89z+esTMh/2zCPsro1Fgsg9xGMgD/sK12lJohdMg9FmmdfAe8JeeByWHxpS8emgsIOfwzt87/3QWwaiqISYxMslVmEhIimCYZGG5yCjUk/+3j+G0g6/FQj71l2mNsatmocN+21PkRhJQ1Z/8/cnfefJXylEghevYQel5YaaBJLS/SRrACkInD0mhMmX4Ixl6Vz8zD+pi5sqF4Y/Cw3Tv/MqVmcvGjkXXltjNSI6UzyXWLBvDn5TLsjFX2ZjHaJwkw2T4c52GbDJszGMsQ2L4s7FA6pzV+vPQnX/bot3Swv49y5cPzS+vQ3PO6Z70+lxdBjfkoOehv8/jMBn+GHBEOmB+nzYxJic3XSdKRuXKwY7dpQN0LT7567rBMmwh+WCDvwQ3H9ogHPZfvAb3J8P+rOM071PO2ysU9m81ZgemXZjo3yHpuMTwZ7MjbJQkdjMXU6jZuZPGzWtdYvE0DzC8geK8rTQOieHPVtFj04GdO8eirQr7z9XC/mN2zrSG/fkQIdmRBVdWRpOR3yeuFKuNfu8swf1HF0+Ne1cZ/kgmrU9b1ZB0sGHdkBj+bM9PL0U1dVySzTJMFk+2VTYdp/dpTkwZtnVL9jBThr8oO2LTP5N3n67DdsTG8Gf6WJojPbJh6r8pg77v0jOR3jfq5M8P1wRBSe/zDZrc4iyDd+b8PVaCwtqxS0rLMui/UtMdBqxIhsHsH2BTWj0iYConGyvJmdMDJIAZ/WPOiamE7OjYYOi7fzZKNhkSva9E48sy+DqSDJvxIU5uvX+AbYPBSsDKKZ38ixadaORQW+HRtaPQQ3Fy68rDzkaibdaNkiyjaBpwSjIMzDdBRka/DofeWbb+maulqNSQg+dKHxsbM4n6U39OEnBKD/vfXLMhHtBy/jcuWp1y/rruTz6vBC4KktZoNfoPvJB0/pIM8xDB12I909ezDjA17QjNr0QDS783DxF8HXOTrduXbBprkQzzEMEyJP3TNx5hMNdYnF38Is35t8KYHTPROTkJUs6fQb0hUOHGkTitYm8siJ/6y6DVmE8xs3OibXIUvbZJ72vTP92OSOnR+J5DKIN1HSIkplAd9JqN/pn0vrnaEclORm0wJDui0/tmo+O2Q0Sm9L66fZF8k2RH+NmadoTeL6J2EmmNfegDNjSSEA6Z6TsP/o2EdKTvSTt2XuxmyIqvJcnm+zJ/QzKkHXt8kMmmLfr9smx6zzTgtt/Qd22Nfczr0N+2cbjmiow0OX6Tk5vvPdN7dc0hySDDUKJECX1K4jtR11yZc26bQ7ooySDnLy066blmK5tlkGEwG/vw5i00OPWHtG75OUnPj2XQySPTph82GTQ+ekljl3j3bd9npyY5X5duBKfypeh/2DF46Aueneq4/oNPMaBeeLZyGUc2jX1c69O2FugOpeie7VquObStEZIhbfBtNsGmy/wsbOtKqoyIslWSnXStW4og6lwetnty2fsoW0WHiEwahNF95mLvSTcogqif8l1rJ1cdt9mRXOyh5JtoHNQgTNf/XMbh0g1bYx/bWvdof4/2j1t93k1LO3bP7V8x5Pz1UJq5GZPAeDS/fx9u/8wBf1JLUVtTExqjR/vraP8dcZ2yhZqzRvur+fXc/okNKkcKzcgb65nUNtgVefMMf57hL3Jh2U4FtnygZ/grl1HYn+Y1GvAXCx9N1V+ktGYfbjIMNO++1C88Xbmg/b3zT8whh07p/yUHLKUoXaBeuo53/sH6JH21heRJxz3JTzBXnPOXIn8SrsCX+qm586V+wQIihfL0vsF80KnA1/kH88F1/t75e+fvwhWQHaHUnp4+5FO5CXyjDZQO6tW3pt757xnaqdNcMQmUmULwzt9CMmLiCmgSXShd+twGDJNCStEn/0khIprqN3yIlSqZSjL+WPcWhg28Ff+epN7buAVx/E6sJPY7sA6OadUJ/W64AqdVLxk/zVKuTgf86YC42PL+OKT+YDBeq9XofLzYWaF1P30aV140ENOWfYmf89W1i5fGwUc2w4V9b8MtFzRE2eIW57/lC7w2fiQeHzUFCz/7FnnxH9OrOEpXqIyaDVqpa1yDnqfVQGk1DlNp6W8a3+ZRp6F8r/mJcdHryJux6oM7UVNrAGUD6tDX6eT/9f3HoPbdy1MiSrWfih/GtcFeirErFsul1G8rvnhtJB4cPAFzFn+Gb/N+Bo8uVnI/lKtQHQ3U3Pft3QUn11JGLILbf1ybIuhqkN7M6hqEemk92cL+o1sVwcUB9ButxxZgVpLxhZ55lSpVQnMb7Nh3qDGMx8hnx2HWS5/im815ieebfAXjOAs9ul+Blo3KxcdhvnI5+UeT/JgphDSxWbxRQ5ENqaqDevZ+6XSxbxZNx9zJ0zBu1kv49JvN2npN6lO5Cqiu1uzZV16GXqfXVWt2Z/y0rhtR1zokGZu+/RiLJz2JwRPmYLGuE6Sv5arhyPM74PrLrkKLBmVRdPv2eBjalLFLpX75a+M6OVzp5JshnYyh5H7lUO3IFmjT81rceE5dlMmozn9cyC7VuHER1gxukHg2+d/gzaEDceu/n8OKrzZi45aEBtO6OrBOU5x/zc246bz6KFfCd/WjeWHHTJFFE7/DqQXpVE46XqlSpdBvbKfyP835q4WbcZ0/Dd4VVnXlA020vwtBy8qZrlDuPJrp/HND6bplmKDCsIxJ0MvRql//AT4dcBg+fvBMtLrjbfyosXOlW8XiqH7+Y3hqYBscc0DpOG0tvzjsGC+HWXEbDm0QOP+Wz/yOJ4u0x1GXzrBcvxJ6L1yHoScGEik8VKbEr1gw6BJ0eyjqvhK/i5U7AX3HTMK9LQ9U24LEK7Rj3zwKp1W4EvNTYzwMt69YjLvrBLtaF9r4jz9WYuDRhyPw/Yn7HnIMhwQn4axYdKkfb5Q2zr8d53cegrfdk54ciTKqh56Dx2aOxyW1tV2S+lRH+49rWzSN8W4mU7ZphkEq9Rvduigu0Z2/Ysvj38rhul+w9ImL0eHGF/FZ0iCnrxnznRjKnXAdxkz+F1pWDY8jhPZ3lPrpOv6cQvt309H+qtRvanud4c8sG4y+Q/s3lPNfvBoD6u5MATN147pl+RO46Ly+mPZZcuOcgShas9c+PQ7/alMNeyrd4ZfV+W9ZjicuOg/XTfsMW526GtcIlDuxL8ZOuQ/NyqeX88adfzEd7d8arlK/+D1t/Rqv3N0ZFz38ToStSI6keDW0e2Qanu1ZD6W08dGn4ZLhcWG7dMNHyvkfgW/mXo9W5z6O5dpmUpxWJafbmDfwRPtA91lGpiXDZMO41M+kF2Y7YqtMMkuGc40uSBVLPA5KH+rRYVdFT1RLX3N8LMNE+0fJcJUMSxuM7777Lr7B0P0Gp5/MioI4cFDxWBeYKF1yMjoyVFoQ0ncYrSp9X0Lp0vek37hQyy6dN/NoGdgH8SuMjpTmQOpREFxkItqVuCRV3lO971sYh4vReMiq4EQccVOxSmfjmflP44KDSoa+mZqnpbfi8OOGgMHap1/VF18PH4JVNmN15O1Y8UF/1NCulvfJC7i38yV46pMorU93LlUunIB3Rp+F8smPgueXjxldKuPCF35L/ajatW/hk4ENIx8DraWdb1+DGqeNQrKaGah4BV7/4mEcn/x1kSKTcO5eF2ulUy3xyFcjcZlCApuKkDfhXNS79CX8FCnZ+EKsFvou+AD3NQwcJ4HYCAlMCj2xXYmQA6eN19QOAUdEfBzJiglTdNpvn96KqR0T30oDyuWvwoi2jdW9ZD2CxAXLtMTTy6aiIz8k9Vaw+V6KWw8/DkM0tH/f9/4P9xlof3quk88rGYpWtFT3/IIab3CKNq+V7YRr348djYGfvInrDjJtTz5WjWiLxn0XZP88E5OBlk8vU3OtTUZqTQWy8leNQLumN+I/GyO9fniQpY/G3XNeRb9G4dAtMBHnKlvwUurb6plsVc8k+bfZoyB/3QvocWp3TF6XpXwa4dH3YM5/boS2bONriqKHiZB8ul2aXvWWLOc0fR5JBlUNmfXotlVgs+suv0EyKEVpYi2k3+Tqt0gGbTCk/hNm2N2l41HjoA1GJi+WQTYnyg/r15N4Nuhz2315tH+hov3DYf/ytWohf9WqlNEqXr0lrr3lBnRpVg0lC77D8hdfxKhhj2LuF2EnHKt5Ld5d/jAUj0f85Qr7Bw+fIge34ZEbuuGoir9i1UujMeTBcdhv0JcY304zTPkfovfhx2P4Gt3IqJNvzea4f7BpdAAAIABJREFUskcXnHnmCahZWoWNv1+Cea9MxcjhE/HR9/r9xVC1+3QsHd0GeyugDr1SqZP5PVGh6RNYzzelHPhb340ABx1c4db5vSqhKROZqN/XvXs1lt5xSPy0kMjHZxj2/2wAGtW5FR+nhkdjOwN9ruiKpk0aofa+xdT1tmDNO6/g5TFD8cjcL1KpgPhtV+qB178chSbJuadwHe3YyTD8OWH/fMxSddxtJ+iOPzmGXt1wRvPjUbXYtrjB/e3zd/HKy89j9L/V8zAiHKVaj8ValVfgxrS7J+yfj83rvsNP2xMPXCr1k0hwfnmpN06+YrbmzMuoNMgqlQapEDdUegQxf1ZnVGg7IeT4YyVr4ow+vdDtzDNwfI1SidTer2vwwWv/wfOj/43pS38Mb7ZLKUa8tYpXPzkZaeswT4XFa6m+EaG9VnjOq5XYoUTMw4RHBqevmTIdMOOHCWi7Z47c/kp+ayV/jrHXK16xETr2uh6dzj4Wh6hA4B4bVmDq1JEYMeyVtGgQ0f2+u3RQymaEuf3DYf+DTz4Z+QsXgsmCaT5PPKMZTmtRH1VjW/DZm9Mx7fm30iNOxjz6nH/RkC//x4X9lbJlHPbnukQapF7byQ6KOxFJtcwSyQ8bBglBy8xcYeKMHXFFt7Eo/d1y/sHKKIMmDy3E7L5Hgs7zYSTw73jnnqZoeef7IQNXo9/HWJPsthLt/APjyTLl3gWbMPnc6ugwXbMyZY5Fv+dmYmCz/eP3lV7q95tKW5yN5rf8RwtFlsE5k77AlHaJ1ESAm3gbfSqfhMdTFOQV0fut7zAs6f3tzl9Rle7dFpNTQYNTMHTjAvRRxjpb5z+z0944ayJfKIba172JRUNOQIkkiMbM1W15py8anPKwFjmJocmI9Xj9ioSn+NOd/9t9UPmkx1OGmU6uTYa+h5f71I6nW2RcQR5e6dkYrZ5YGTi9WBOMWP86ksOI8y7QJgbIvNQvOucfsn0Zlfrlf3gT6h0/GCu1zVntfu9i6aCjU+MLnP+7xnoCSp90P95/7SZwdkZC4ufN64nGLZ8IydCfaXgdbsDTZ9bApa8EESvEKqPThPfwTPuqqXvSbRWtmYZqzQRjoD3ja/hyVNNUSizznH8ehjWujKve1DbjsXJoPng+pit7Qes2zU6qPP3cvi1xzuPLQxvXSj1eV/fQJH4PLuefemqxqjhn+FyMu/wIFEsi7lO2mGRcdTra6mtK/bDBgK+w6JaDUrrhAX+BDnjnr8A13vnrRlE55jErMavrAak308uA8vHhTfVw/GDZeEc5/1IXPIeNU85PGR4SJDn/fHUyr6ZO5infXOoMjPp0Jnqo/HBUnf+GieficEX3lto2VOqNN756GCeEnD+w5p56OPTOZamxluo0E7+ObxP/2+b886ddiP3aTUHKZTcZgfWvXxE/tWbn/D/EddWOUemApPhSnTDz1/Eg6S6gzqd31kWdewKgYUydmreoUzMb0T/v5J+v6HP3Q7spgSMqo+YvT80fJyJsoMKCgrdwZeWTEQRPyqPH63lQviD++js4//wPb0Ojk+4L5ZjLqLlepeaaA6L6yX/7ix1D6wJlOmHCJ4+hY6VyqfUlOX/68O0+lXFSsAtFeeUY85KTEVqH716dttk6Y+T7eLlnLaeMPAVEraXQnyl9iKnowhYVXUg+qEydv7n2abPHURC6Adv4FFIP791YFyc9qKcU6+Lu1UuhAmYZOP8a6PP2Mgw9oWQq2kIHrfBBLA+PnVIZ16SaCqgbOuPf2PbyJSnd8M7fO/8UEJCbs4TPBHrOMfGJfVEnHNd/y8m/VPMnsObly3CABsiRa4DX4J56h0Lzm6ldttv5l0LH6Zsx4ewwEj/d+W/CyKbl0SuFyIvhlKHfYkGfhNmNcv5Fi36JAQ1ra/dXCuc/94OSWzxcMbFpGBrvdxXe5AVQqj2mbpyMc5VRlJ1/vgqnl1Qoej75lEL7qRtVhCJhRbNz/ip8qtr+pjBqGTr//B8eRbOD7sCqsgrh3KAhDm50MZ66r0188/HnnvxnobOKgExI+f4jlTFfFjfm/LI7/wI8q0CFtoqCv9z5b5qcFlqP1boe7y57MBWqZrvAJ/85XUur9EewEaJU0Ou9y8bzs/p8iBFE5ZyLhEozxqIgWV6hr0NTBlWYrBnZBAeoPLNbhqmvMeW0t6jURWLdZub8dxg6qVx/x+nIm3B2aLNnj5Cuwv3HHI7bgxwXeLMddfKncW6cfG4o2pLu/IEtz7ZGabXpT8UlavTDx2sGgVpB+LD/Pzzs70L7cwmL7sij0P62lqJm2D+hIAlkvUndaEP721CefH+Zhv3JgDJK30w5uHj3SY6b239iCFWrgoG4Yv6XGN64WGgvZOPd3zTyNFS4UiuXO+Ux/PhGH5RNlizGiTCW3xpC+wOn44lf5+BSoxQnrT43XyF+Sym0PGtxrAXG/DYndVJxI/H/iOe8fxpxGva/OuXWUarDNGwa09rg/VabjNMq4MrUJkM58xd+xCTlzMXnt2kkmqoqgTdSvr8TZvyicpTJGWPnH+f2N9D+j64diSsUiCZ4hh+ib/Vjg5O/QmTX7jED8x5riSqqJIrCctLm1Na4iG4h5Px3Ae2f5pg1tH+q1G/TLNx2+Wh89NUiLF67EZsrXIMVS++G5vvjm2Ybt/+YNrGw89dk7B60f2hZwwQcpfTs9w9w+9GnYLAWJ4/Vugwz/jMMLSqnl+ElejD8gjl39MToj1SYefFabNx8APquWILeZX9Mc/5i/w7l/GN6qULrMdiZLK8I1vpL6FbmbG2zpaIlr/2A++tvjje+0p2/JOOrgQpDMmgdylSpjVPq1EWTW+5Fn0aJTUNGjX32eh4t9roMr6QkVccNH67E4IbpJbUSCQ7N07bpnVCx/fOpqJkKceC1H0aipsKqBF39wmh/oBQ6zfhFbbqD52fjuti+qB9qH/1gCmAM5fwXr77f6fyZYteksnWh/W1IfNINAtzqoEIbgRLrBqUhTfBeYEfS+3fYGP5onZil4K4IYpQMqdSPxiL1CLHV+TNXQqbc/rzWRbS/xO3PO3BGvesqzgqdLbe45JgZyWguEpZvDpAxB7b+AaZjTiihzFfP17LJkCaXrmdy+4fvaSLO2VNDpO9/KV5eOwxNFGDNnENGYIbQpGsHo+GhCp3PX46dhXFbnsP5WtfBIstuxWHHPBQoY/W+eO//7kN9Q0bauBf0RtXmTwVgvAMvxszX+uOwpCzX3KautWwgGp/3TJA2qHUTFivnVEddQx9H/oudcYAySFuS1441Hop183rENzHmuDeNaIaK1y5MTU/FK+bjq0cpmZB4Bc9pUnhuEaD99Q3cK5cqsNy4MHIqVvJQnNitM67u2BWnNKiKfTVgFq8R+q+Nd585uSecs2cY/f7MNijbG7pXmitJN8ar3+qlfi2130rc/rb1ScIYm1Fk6wZ8vfw9vPqqAqJNmYD3Pgl4DOh7uoxsuP1Zx9PQ/uqep3aQ9Ynkidz+2z7E4GatcMcHOs6kJZ5ZPg0d9i9Im/MoHZfa7SYewBZsWLsC7736KuZNmIIJ730S4kNQkxF3lLym4v/zyV2o1+B+rOInWKoDpm18Fif//HOca0N/ZWsvCgompFWnPLNtOni5xO3Im32w37mTAset7MUr3zyOU42yPacN2zYabctcgVdTN1sLN3+8DL321XuETDB05yQ88v1r6jvBCO0yjHEk56iV+imtW4nbX7Rt6vssg6SatNh8Jya63tYjxLwG/z6lGxnOIf2OZGTTI4TG4epPIt0byaDOgVJvFskHsQypnwpdX5IfdO5MzAb7V+l+4s9ITZbY0lc/fetKwKc3WytOG5e17eRPNyG14pSiDpwqMHdjfH9SOSHv2E2DzCd8s1sVRwSkLlYkR9pg0A48sTNXdf7qdJoKO58+Cr/MvgglDXIcm2yohrXn7XMWprPXRG30X/Z/uKdOgqyIT/41Gz6QIvlB/Xuw5v2bUc0gduF74prTTY83CZ3aQ5Yt1z/IEGwao6Id5m7aGEfsVAz/4TX0KJsALwXPbw3urV8Ld6UgAkfirs+W4vYaQfmcdW6R6OqX1tL3h2E49cBr8Ja1YkqRF1Wri9Mv6IRu53ZGs+NUS2AFdnK1++T63PFtY2l17zO5TVtS2aRTOU3vs+pUrjt/ao/Lv3W3+1QNq9Z9hsUL38WSxW9i4eof8OWixfhqfUDIYnt8uoxQS19HVz+6Fut4Wp3/s9sxVXX1s+lfeqlRHsa2PUx1BtQcf7Il7b/qF02L+rHBcrX0/e7z5dj41Qq8u2Qx3ly4Gj98tRgff5mHH5k4yz4Z2JGccLIj8dPpC+2xZ6cXg5B27f5Y9n/3ovJm+eTPp29dhK2l744d7q5+5Pz3fP4ClLhsXnA5ZS9+nXNxGkkT2wvJThYULMFtdY7RujSqNOCMnzG4geLyUGV4iQZh48N2SemO3mGQ54NuJF3GWJyjuhMGdA/Bb2ndmp07XTba1Rpcmlu6H5Jha+krrUNb22C9o6C5RGwtfek3pp+j39pO31Gncjr5m2RTkgxbdI9l2wjozDp/kqVzCejjjjt/9S+P9jcIQOiBFAbDH4fFM28pqsKaB9fH8K/5MSVYzwYq4hO6p3hKxWD4U31W8Yc6aUfRFy+56RDUH5zq45qruzd+1wqj86ejm1EuSV968eIDcM7ovNT3Txm6EfOvLBMmcFlzD+odeicC338nPlt6Jw7Vnkd2Of+E4/r2+c44odMkfJNJybRiQqxzXCdceN2luLpVo7SowJ+b8w+md+tXCzD0tuvw8JRFCFVaZvHkdBbBPz/nL4BYk2C2mZ3LpzYYZo04GaU0sjCFPF847DZc+4BZdprVZKTn/CedY6QGErgAKbrgqkzig0q4MkmR/OzRXXOaChBYoACByVsmTpIv7msQ0kmyF5vHtknrUumSXVCwDWPa7I3LgtxBnD1yVNNw2L+NwsIE5JSt1L3MTt0Lz7mU89++/VmcrciKAucfjMPn/P/hOX/v/PcQd2OF4fx1el+zZJHDw+HwzX+P81/39g1ocdJDSGHo696NVR/fhmp04lKbGBp3GJEdw6mPf4/Xe5ULPY9cnH+8oVLefzBIUaAOeuUzZEyQV7w6zh8xF+MvSZTV0evPd/75WDmsDU66dl5mLG9Ew6wiGc3b98ABb/TE8PcCh/jXOX/l+AeegtP76+WrCn+RLOkrlsTckFOLcv75K4ehzUnXYl5GTI3Eal0NdZu3R8/KC9Bj6Lv6ZPztnT/Zi1UDj8rS+RfE8TTddNpp7/zj9iWUilR4H7Y7Zijdd/XzXf3ihoJDnoXh/A+65h2sfqBRWpjUBlihGuw/6+Qfa/ssts/oljKOnOYpvJa+b2NUi5Nwb+D9cdeqj9G/Gjt/o4Y71hLP/jITXfcKK22uzj/V1S/Zu4B40udx3wPngTFwUn9+qZ9aAbcdhkb3aSWf2r0WL10BlWs2wFGHHYHGpzbGSWccjdqVqsT7NtDp7e+C9k8rgyPgpVHLz3rmdP7L7sBhje4L1dOnpkNFbCpUrokGDY9A3RNOxIknnI5jjzgQVbiJRSZo//+Kk/9GjGx2ADQcrj/5J3u/eOefwAdJm+w4/sKf/HffyZ9C8vkKZJR52H8yWu7RAS+lwtUJspsry+x62P9rRbN7cP/FgStRp/KNC/umGOAK3/mvQ2xqJ1S9ekEqp0oNRT6978jEDnxOV+ytmNu4kKvUeZOxfvJ58SY+utLusvNPjjiB0t2Enz5bjNenT8XoF+fgHetmQPUVeOvbODnRn3ryXzMQDVXeeXGI7+VEXPHYENx5znEorxiiaBxS86C/i/Mv+/VDBomPKl9TerBqdvdQLX+08/8Kg46ug/7hycCxFw3AYwO74DiaDPXiHDP9f6hyJxfn32AAvlp0C/bZtClOKcsvqwz1BTKsuYb991I5/z0v1eL1qiz4N5Xz1zFCUbLjOf/DjkaQ0VNI/pm/qpy/D/t75++df1yHo3LirOiFefJHrVuwZPndqGvkxK0n/68Hou7B/YNQuSrbeT1vFBqrXdqu5vwVZ2zI2ULV38/8VdVeJwe+O5x/uX3eQvfKFyLFWVNJlfR99QhOju3Aix3318hsVEnk659j2CkJgqjd5/y3xQE8QaplC9a/Nx2D+vfDI6+tC1HCMilM4Tj/JbihRn08lOLTh9jVzySmIY7+satUOaZGCW53/l+pngTVVM33Xxf2X/fKrWjXfgDe1/F9tW7AwkUDcHypoNyVqwmcYf/3r0PVU4aHmA6J/ObZlqqhTgZ1/mmbXUUmlFbnr8pmQ+DZJC/ESZk6f8VpcUr5m/B/+5VCxTqn4LCjLsDDj3UA8d9lVOe/6MYwHXb5y/DqtyPQTAMIRzr/bc+gzd49tHLBBhigSkW7xbzz984/wvkrFH6BrXyNFp7U7IApdvXoKSs0TbhUhmA2xOHv0zVMGYy4Nx02vc9lJJIMs1kGXduG9udrSbJdMvjUpZ8KuISlaNEX0HH/Xgjwu8djwMoX0aNcuMUqyzYd3ean2uDQm4M8Zaz5CKydeAE4Rxqf20/uRaNTh4JJ7ND8ccUAd0HanPO4UzI2P4U2h96M4Oolcc6zq/FU60R22/X8GCn79UNNcPTDa7F/6X1RpV49VK11Dgbdc1acwMjMo1FVRMmSxfBKr8PQPVW+cAAunrlE1TFPRaeDrsQ8PuEecClmLrkPxwstdYPnp5qihOa2OR5aMxJdVPdDfobr3vk3nhy7AB9+/B5Wf/czDr31/zDrsqBemzdQ5r3u2PE73r6xEc4d80OwpI+/H6tnXYYiahxU9kW/mdbtAFw+JziWH6oaN73bv3YoicBgtZCM/PE4v/I1mK99s/mIDVCPNv5KVJB8jwHHn4Qhq4Mv1bnxXbx506Gh67MzSGt0sm0WLqt5EV5MVYoAuoyg6dUK3N3oVAxNLaCDcdUbH+HOI0Ji4pvNaV0ropcGRm8+fD3GnZco9UvTvw3Pof0xvfDaL9p1SjfH4++Mw/n7p+s4I8xNHef3Vw86GSc/rE3G4TfhwwU3Yv9ff03reEn6FLYj+Zh92aHaulOfKl3akJxwXutFi76KKw7ujBdSc3YALp2zAnceuUWt3aCxltVWvdITB3V6IVXSiuSaoRW3c+cUdFb8FcH0NceIDRORfOSJ6E3Rmeh4oLIXqSV1AC6ZvQyDjwsDyXh85pzT+/kK3HrwlfOCjWu5bnhx5RAcqdYUUbAn0irPpemOfi9sJ6Xn6hoHrVtqHKQj4l3VUjbEfZqt0pYQyaCKBX2d8POQSmrtOp6olpLKxEkGNUEyS84lP0e3xtUoYY1J+Bqb/yMZbEf4dzY/R5+LdiQp21YZYSt1JzmSnvmw/25s7EMP8cg7PsXSu2qFnKN88jc51wPGMI5G7AraH/gaAxserMKowZKNqTDnShXmJBKZyJP/9jfR+1BFKJTiBlYURr3eiNfkSyU3dGKmE9pei24I0afSbz4/YRD2VgQsbPOIue39flVSBDy5nvw3DWuM/a4KSIhiGk1wIuxvnvwTcxEnOFH0xcUUk1nqdcpQbFzQB1u0xj5mxUSpTjMUdXHb1E9sp/I8dV+V1X3pxQc6GC9B8rMBNx1SXwvfUp3+75hzUbhbnE3GD0Mbo4pK/Npk7Fa0v2oWdVO940MkPih+JG596yPcpUr66J4lIi/XyX/FbXXQ8AGtOiV5cje5BMSTcZ5imaysWCbDkyEw/JkRKOLofx2L7z8qA4a/dCpmnfc+o5N/6XSGP5Oq233yz5Xhz6P9dcftAX8e8BdfD4Ua9o8fR2qh3ztLMeiYwIhnxO2vuPPf+nZYvCNe4Th/YJPKgx6oKE8DwtQAiLUH9RMXG/tQ6dVvWHxrozQe8Ts+/Qi3qV7BTue/18qwU6t+DW6sMwwPpE7QiTDldRV+32XnD5U2aajSJsH+pgau++ATDFHtEaOc/3vXVkPjEcHORqdJZW7//KfPDOdoVW+Ef3/+Mi5JhuVFxyx2jJPC/j+p3O0RUFi/1Gt/lQ9e/1Tz0AFDkpHeLCfxEyqvXEDdkdRrtzl/5fgHnnI6+odi/bXR71215tW8M810ts5/1d31UHeANhnJFFjdH9MZ/kKlcNJGJDEZ8c0czQZvdGkzvX1Br3C/C8VDcPUrb+DR04JeHJIDzv+wL+oc83DAt2E0UsrM+ZdG4XL7h7EqOsOfL/XzaH/dkHjAX5JgSCJeKAy0f2qyVee8u+e+jjtUEw16hZ3/Bszr0wxtQh26Squc8GfxFqf6hmTXTv50JcUZoPj5QyAqVSp2ZO/pmP3gmaikcvFSV78372qKs+75INR1kBrOrBt9Zrwkzu389zKa/ZRSYbzf8FtyB8Kn8xIqDMrUu7me/NX2BmNbH6iIeLQObWWa4KGFs3HdESWsJ/91cy/HaW2f0jr7yYC/9M2F2tvV7oG5C0ahuXpUYcf8B76ZezvO6zg4lAPnNZF+8q+C+T0roOkTqYbI8Y3jdW8uxpDkuqHfhmVsxfInuuOsq56H0RU6LkbvDLl7nH+eooitpfoy6En+corf4f8wLbl2c3X+e7zVBxVPezJgpKSKAdWh8dVba6GqJef/x8pn0P2sq/C8PBkpTnrd+RctKnT1K14HvWfNxzB6qMk51zcYW965B01b3hl6rn+Hrn5lzpmEL1STLO5J4Z1/0GKZO+6ZqVZ6vv+zJ3+lCCLDn8S7z4xBNlYiFzOX1NKXc98ScxXJl/iIOQ9j5m3pIdoY/shg2lgETcfFhsHGYuZm+DO5/fW9VnFUb3kt+vQ8F2cfWR4Fv6j+4zPG46ERk/CRweJS+swnsGruZSF0NOeyii7rH+b2V7SlRKcrARo5/xSaK3USbV6zG/6j52bVbVJP79N79cAV57VD/Uoq56j6o78zday6v3RiFeod/s4Sxe9d5I+0zQKPmFizKOwfzzkq/v7TVP4zRfefmpaA95/ZsWiDQ8+LXzrav21R1Zsg9UlrPPZNOsPfzs8G4OjDb4PW60T9Qs1948vQ9bKzcP7JtVBagQoLCr7DknmvYNqoEZj40feh1qhlzpmIz6cmjCiNgxn+aHMxru1BqqZa21zQ/cRKouZJF6FLl/oor3Ll65dNx4xp87XnGkOts85QpZVzUyfF1hrvforhb8nNRt8GuniwbtodRS15gY2fLMD811/EhLGzQmuH5o7zpwnnvxirVQibXply+7OO07ybLX2JMXBq+z+SBFh/4MObj8IJeidK7IkT/rUATxyv1s7nv6YcJz1PPZ9KMvTccOqRlm2Ac9s1wD5xFsj/Q/9aDUNpkPhsHNQM115zlfreUYjPhlqnb738El6YMA6zF2nPkQixlA3RG9IwJ32ajiudaFtbra0QK7QCFtbrgqtv7opzj6+Bkioy9sPS6XjxycfxyNwvQuuFGhS9s/SBUIMiOvmb5Dhjds5MEeuEcFYUHVLydSLE+FgrNkLHXtej09nH4hDVPTu2fjmmThuFkcNewWcGeQXrpAq2xF+0pgKGP5PbX7H07QwIhziyYW786TqucbgY/iTGTFvL24DFM4yN4nGYDH98v5KNptQeHSLsdkSWQdS7OobAFQHm9KHpg1w9QmiusmX4M8tgSR7JtvXPyZrhT018mvOnyWVQhQS6kxwwA3W4QUNKoZP/I+XqJOevyzYpdlmGjXpXYuZKBwMlbihXet8AOJW4Dt9TAoQxyWD1Og4tW36KuXPDXPPm3AR/x7Dvmfdj4ZjLULvcPqm3Q0BHhVCupdP7Kuf/+7SO4uaGLiDtdL/66GFc0/JmzNqYCQVe+G5jVTti8vuK8lMdilhpJRkh56+c5qhmFdE71b0nec1SF+D59ROVkUzQ/vJz1ZUqMAzm3LbCI1+PTKf3VWv3+6ldM2f4Mx5G8SP6480P7kEjzYiGDEPeeJxVRzG3ZfpI6cR6+WzMUxRspx43JNWToZWiyp2RpAYO6H3z8dEtDXDiA3Kdv2vdVD17JGZftxRnNdHBoE9iy9yL49GZgN53KW5RTjVIp1fHjYs+w8B6wdXZ8E05v6Si5g3ebzX6D8Xtn+BpKFJkmXEd+91l/EmNG/Hhp/fhCOW0ye78sag/Gpz4gFzn77horOrZGPnyDVje8hQ8mmLLbI4nt8zFxUlOBE5x8aYk/5tn0LHRFXgxQzIhFh+r0gET3h2N8yqFm/Hs3DkOZyta3Lmp+2yFZ7fPALNBm3Zk29opuPTkrpi0LnudLHPMnZj9n9txfIBRNJy/WrMhtsHwvYRtWNg5Ek1xqF+JogbmcdC6pZJIAv3xy+YH2GG7dDzajiSk2ECFugwTHMlgQwnwR+Og/h26r+MNYhqwVmKgTA7e1djH5vy5sY+5nLkJmbTBsFGRm87f5cfpsyJKSEE6J3digtl56DdmQ1qyIGly6feS8+cTntTYh+RLlQbSb/j+Nguc3AESP0DQ8r3yiUSf4KhxSM6fZCQWrmrsE+LBVg1Mfh6G4r2b4eKxX4ZOC2m2q3g1tBs2Cw+0KI19FYJ9b/WPrlCpcSy/LdxlK+n8zXl3jYNOgWVK5GFy34txy4RlmTHJxcqh7uWPYcaDF6BK0jHyGpGeOckgw8C71/wXO+GAC7TuY2pwDBikcdoacjCClub2XNU0SecYJ+d/uYou6ArKG6XfP3kal7a7DlO/zM/M9xQ/AI2vehLP3t0iNT76IY2DG/uknkfeq7jl/C549N2NIYBdmiA1Z6c/9AamX1kLscU343Dd+Y/OTzUFCjf2yceq4eeg8fWvIpO9WfFqLXDzYyPQr0UVxLaOQ7v9LsHcVIfERO+F1urG8vLy4uMAlqJ/7aPxYKrsMNFJboDm/FnHJ59XIuT8qVEQN/YpWnS5cZ3Mptn5reo34MOVA+LOnx1B/qrhOOfU6/FqJk5Z6VCLmx/DiH4tULnYNkw4p6xqxBS0iu4wbRNUE8rUwSbN2WxZgacuORfXTo3Q1fggiqNau6HWtDXVAAAgAElEQVSYMbo7ail9MHVg587xRmOfBBV2qLGPQpjrOl6w7Rs8f+M5uOapzHSSGladNXgSnr68LkoZjWxoTRGCPcHtrxr7GHZpdP6LqXvh5812OJwGtY8jbkdU/wDd+bNNkHxHoMvh6qAoO0L9A/QosH6/6ZU7MuLe5s9Yx83GPmxHCquiQLIjLMNch65DrquiIJsGYXHnr/7luf13E7c/1C6Zue+3fjkDD954L56Ztwxf/pxwSLGSqn98naZo3/dW5UwaxJnaKP9EJSGkuPwqLMAfX49kkGOOlzMlGfAeVwx4C78IN0hhRrkWbXrg0j4tcPT+2tFCXSxOo6teUTn/hNz56FGhKZ5MpbQTfQsGJaLS8dKnXc/5JzatdF8Jhr8/sHnx8xj4yCjMeulTfLM5T+v0FkPJ/cqh2pEt0LJDZ1zR+TQcsg+daIM8Id2XXufP85dgzdqCLStm4P4BD2PK659gLTeWUSmA/Q6sg6bt++KuOzvhyOSUbfvgBtQ5NujGKOX8dce49cePMGXgw3h67jx8vFq7b3X9ffc7GHUv6IDrL7saLRqU1Xqy5+GpM6poEZYYmoxYj9ev2Hc3AP6WpVUn7LL7T7aLPVw9P1pTqUNB/mYsfn4gHhk1C3MWr8aGX3hDl3iGBx/RDu2vuwTXtj4mrkP8Wj+8CSr1fiO1QWN8SZkkuNV2gvrhyzfwnxFPY9Ssl7D8yx+xkUPsqWfbE9de1R0nV00AGmnNmRihTAF/uo6zYd8jfy1eG/kgBk+Yg8WffYu8pL2gDUfpCpVRs0ErnH3lZeh1el2UUVEzm/75nL/P+XuGv6SD0o0TA5GknH9hNfbRnb/uVOz0vhk4f617H4e56NqZkhixQ0s5/+SkcJir8Oh9k6V+qtbYNHCS0Y12/um5OnLMdJo1T/6B8w+Un+bKWeqnIjdSOsnu/BMdv8yokcS+R+PnXJ35nPh5VKlSJeQ7bUpL47Ax/OkdzUxHbJ4K+HRBz93E1pBsuhZFbczxpTXd0QQF0YXgzZwBf7rz12RkVOqX/L7NMYcBf+Gaevpp4TT22RHfFNg2GGYEke/J1GXWcbovMwRts2G8pgLnn5gQupa0Rvh9ki3JoN/adINO5ebJn7FfZkRXx/Xo65PuiWvXpc035fxNLgGbjSY9442jfi0P+AuXDMcjyf7kvxvpfbWTv3f+4RIrMyfnnb93/rqDCp38vfOPz4B3/omFEAXG884/UBh/8ldzkenJ2LWwaEpNtD+foOizPfaYBLOeVmp560/+ia5++ss7f+/8vfNP5KtNNrsQj4GmNP7kXywtTedP/pVDdtXp/NWHItpfQuK7dl2MwLSh/aVSPy5LMhc7h7rMPFou4TrOo+nADQaMcK5On62ocbid/2S0jamSndQFFeBv23R0NWhrudJAmitChVLO3wT8SeMgMTaEKc+tDUFbtmzZEIWpa25tMtgoSSFBqQzIJoOft1RqFFU+Y5YBsQwzncOhTelEGSVDKgOyVbxQeNFMB9Bz4pCnREsdoP2DlWhDG9s2py6kM11VAgNJ5bwuHY+SIQGHea1LVUNS6DZKx82wP92vJMOl4y79o+uZwGG2hfRZYdkRKezPoF5TBuuyqWdROm7aEZdtc9kRmkubjpto/0x03LRJUVVDBMaTKIRN+5mJjtvsoQ3tn60dkaoZaN24Sv1MP0fjsNkRl62S0P78zM2oUXytqRNXgaRQbAQkY0U/lN6PIwgNwBSbM6kGn5H70m9s13LJMB0zXVdHvfO92N7nz10yzD4IfFqh/xYpMslA+LbE01unonO8rjyoXeffSOOmkiwC++nc4mEZQR6b66Xpc3oeugzX3JIMygcS97c+Zn1+9A0RXytbGbTBkFq22p53Yg7DgDvXs6BxEJeAyFstrEPbnETNFW0wpIoUaRy56EZQhqfPeiJHm61uSHNI75mOWV872cqw6fjGjRtBOWDzJY0jF92n62ZjR6Ket22uTMds09dc9Y+uZ/Y6KWwZLjvi0j9Jx23PW7IjLtvmWs+2Z0EyaE1JJXfZ6J9NL0kuyaANhrnpovvNxv/x5s2cQ5ZBGwzJvknfz8WOmJgb9nO2a/mc/27l9g/Q/j7n73P+ZFw84C8otXNx+/ucf2ILxdEW+n+f80/Mic/575FWBk/zIkUQfc5fTYzP+QfnsVCpX/Jtj/b3aH9eIR7tvyleCsuvKAfM6cNMN/h0XY/2D+yRR/unN+8i7IJZbUMzxpgGiX/AO38t7BgG44UZuHypX7LO3zv/RFc/X+qXssbe+Xvnz4vBheuhQ4Qv9Qs2MTb6YvoGzRXR++ppBFc5r3f+Rh01TRYDraRcjJlz9M7fTgDi6/zDSuudfzAf3vl75++dPxF5yVweLr4QG+/+39L5S2h/zqtQOMuG0jWJQaKQwJly+5NsGwo5SkYu3P7S+JicQwKUuLn9AyIafeMhoXRtCFpCbBLgT0L7S+hW5qw2w0A6Qjgw64n/IxkE+NNBhZkggU0ZroYcJINOBTrgz4XktqHho2QQGE/i5JZYz3Llyya0v77ZdFUUMErXBPFkg9Jl/aNnqOd5GWBG15K6TjKBi7QxlkCFtooCRk2bOk735ZKRLdrfHJ8+bhs5jgQqdFUU2GwYg6CkuTLR/nRftnVoOxnzPdn6kOxutD/pH6H9E/S+iZdLx3kcUgM0+q2EkicZBOo1SX5o7NLzs60dF9qfZBCo10T7S9U2vD4l3Y+SYbMjuXD7SyF5Ggc1CJNSQ5KMXKqGpIoel44XUbuYArMMjybRhZR1oSBpcJLTlJSWbowXFi9QNnCSDEbuSwpLv5eUlhGY+j25ZLCS2GSYaH8dYS8hOel60vu2OSQjTY5fV1rX87AhTKMQ7Nmg/XOVkQ3an5RZMjBR4zDR/q41YkO9RqF0JbS/7fmx4TM3XFHjoA2G/nKNwyZDWut8TRvaP1dEs6TjUtWQy47wJluaq12tGorScdfzkDp3St+PslWS7vNYJbS/7fm5nqvtMxva36UDdG/kuHSb5lqHNrR/tnoWJYOilCa3f2Gu22zR/lH6lynan8dtzjk9B97c6M+CfZPNx0oMm665LZLNyZ+Ecuhd2q3wpGRqGHgnqu82d0VGLi19pfpH6bTASmtr7EP3bW4YbCcS16ncVuevOyjdWNpOJFEypG5c3FnPHIft1BpVZ5xq6Zu8YVfkxtXS13YKlLpxsQzzudIt5HLyD7f0TQyE0cbSyZhzdaZDc52Ys6nzd53KXVwCf8bJXzpESCcP1nEOq5qbHqaHzeQQQfNBMui/tg6kko7bTo7SIYJlsHPU7zcq6mA7+UuHCD4MSRE2kimdym0RxHBL38Qd03d5k52NjktzS9eTuDzofY5GSjI4LK47NVd0j2SYdf48DmluWcezibyRDJPLI1c7wulDU/+lOn+bDHo/l5N/1i19lSDf2KfQGvuEQYW2xjec1pCcWmRjH8/tn9Irz+0f7l3guf2LhWyu5/Yvk5Y+9Nz+1H01vXkXOX99c8VgPKl/x39Nzt87/8Lk9vfOn60vOWY6+etEQq6cv6f39fS+fDp1NQ/yjX2C/Y2n9/X0vvpu15f6/aWlft75e+f/e3zDY54ufFe/4FTOYXRP8lM6Zbt5Y0zrxnP7By6NDhG+q18wH77O39Lu868v9fPO3zt/7/z104hv6ZvexIrmx5P8BKvEk/x4kp/UaiCDQTkXM9/y96/z987fO3/v/L3zD8qVbWBV7/y98//LSX7UablAamTBCFodecqlLYyU1ZXchcCk79nQrSZKnpHAEuKew4VSSRjJ+O2330Ilci6UrjQ+uga/b5OxdevWUF0ry7Ch/emaJnrXJYMqFqhu1my6Y0P707PIRjbdD8mgUkKzfMZWrWGTIZVq8pogGVSyqCOtXePWKw10JLCraoFkUC2zPr9SBQnfE8swQ/K28fFcUcmi/huXDK7BDyHP1B82BDTL0OlkeR3aqk5sMlzjkMrXbDrgQjq7xiHZEen5RdkR21qnebGVyNFnJrrc9pyytSN0bZcOMOJef+Z/BztCPB46z0aUrbLZES4tM/XGZke41M/8vs5JIum4ZHNJBvGemKkQm63S8SKmDGl8rH9U+mxyeUjPlb7PMrK1I9noOKP9s7EjtlJ3mx3xjX0KtbGPP/n7k78/+fuTvz/5m42ZuHyN3jcPQz7s78P+KZvhw/6l47tdfnFduUkdySc0EyREv4tCAnt638BFeW7/4qEDBp2qyCCbjUWYY8DWcU8iGfE5f5/zp8Xlnb/n9k8ZGXZc9IbUqtLn/L3z5xCbjTjD1/n7Ov8oO0IbZ5MK2VVyKqVhcpHh4vIgGT7nH+w3/cn/Lzr5K0UokHbsvHhNbnGd/EA/LvCpQOIcp+9J9bnMjiUxcEnsX7koLeccs2npyzkrieJXyp3aeLGlUw/nD23MXOTQKP8kcfvTCV8PmblO/jy3EguW1I2Lr2Xj5LZFF2g8th71xMy1q9z+bBhsMipUqJCGK6B5l9YhlcnQ+zbmMel5Sw05OBJjyqA5tHXjcrHvkYwqVcJ1/jYWwSgZtsYiJu83PU+dBMfMV/PJ39RxGwskfc/G7c8OOBMZUTou0YS7eOn5EGHKdjH8ST1CbHaE7aTJJ297n+8j0x4hvAGW9C9KxwmrotOEMy7L1iMkFx3PhsvD1vUuW+fv8jUuplDXIcIk+XHpeC7se6TjlStXTsMO2VgubTJsNozWia3OX9IBmsMiSnia86cPGBxiAi14AZmLncE15sLixW5Sf/L16b+mDB2oIwGtbDIybezDY6B7M51j1DhM58/flxyzDojTx+FS2hS9b/Ht+Pjl0Zg89UXMenklfvj1R2zcsiNlw4qXroCyVWrjxMZN0aVLD5xxQkWU1CwcGysJREMyyDDEG/ssvQW1Gj6Az/m3rUZj+4wuaREannN9HLamJrwQqbFPHLiYoQx+FqYMBuqYABsaB9UAm6BCBgPpzlzf3DCAiQcZRS9qUn+yg5J0gDcedG39fplZzZQtKS3rH41DHxu/n6C/nYJzil+EObpXy+L/af2U2bMcap/UGKd3746ezY5FebUcdNnm+FwbRMn5u3Q8yo7YaHGlcl4G12VrR8IyluKWWg3xQEoRauDGRaswsF5iTliXY7FJOGuP7tq8t8Qzv09DF8W8adqquIEVaL9prmw04XGbtOK2sE5Wvx4ffDoA9VXbacmOSPZQovd12Sod0GjKoHuy2RGTJtxmP3ntSHYkylaZNOG2DWImOm4bBx0izAZh0iFQly3ZEb6+ZKuosY8JKpQ2oa6Nhw6aNNXdpPfldWtuvlnHi6gdhtjYR3dc5u6fPpM6F9H7knGj30tKSzfBCysTGambtjQPsiGapXviiTHHwTIybexD920bt26UeKz8fWnc9N7axTMxcUA/DJi1BpqvjzTrsZKHovkNQzCiXwtUUSlcvifTCdHfdAok559wzP1R++gH8QVLaPkM8l/sHJJHC9TWdIfGJc0VySDnH68o2AUZtnXI46DogmT0pfWZhvbfsgJPXXILvr15Om5TRl5qsEHjIMNgbiRsOsC89OYDixoHGQb95fp+YTj/tAUVK4cTrnsGE+5KrB/bOGxrga4nNfbJ1o6wXtqqbaT+HbnIYMccGOml6F/7aDyYUoTquOHDlRiQdP6BrZpkbLoC56/reJStclYtLL8trJPK+b//yX1x52/aSZf+USWM3rnTdU+56njKjiRvLBcZ/PwkOx2yI4YMye7YxhGlf3SIMKOqtrl1ybD5PxoHHSL0TYHL1+Sif1L/Dpufi/sF9aHn9v9bcPtvwTv3NEfre97GpuCAH+n0zS/Eyp2I68dOxp3NK6JYMqpi7kIpBJUC/C25CYfUH6yd/J9FwexuqcvS4uHGPmbo3da7gH4covdNkzFGyegauvU/ld53+7dYOOw6dLvleXyRXwPXf/AJ7q9fNC0KxOMgx6wbBj31ZSozjePPYfh7Hm2LdsPsrFeI+wex2j0w+/XhOHXf/zXA3xLcdEh9DNZO/v0+XoNBRyVO/hzlKlZsMtoU6arNeys8s20auqt0knli5g2i5KScOf8Vt4Z1svoN+HDlADRSMvRXFKhXSh96bn/P7U9rKH449M7/b8Dtn/8hBp5yOvq//5NsmYuXRvlDjsLJh+2fNDAb8OnC5fjyx42W6EBxHNHrRbz8aDNUNkoZ2aH97zr/1bj3qPq4aznvsP5bnH8MJVWkZe89wk1LeEFxCJP//n1zHn7Ol5dbrP6/sPSd61Fnzz3TTiou3v1/NtrfO3/avEjga1olmWKHOGTtS/3CuiVhh/gQoeOi6Fe02bRhhzy9738Tve/2Rbip3vEYvNI87hdH9ZbX4l//z96XwF9VVW0v/DskkKgEiloqDmio4EiglrMpzqEiqaWvOVtOgUBOKCiU1ZcKiGYOiBPikPOUmdZrloqoaGparziAs4CGGt9+zr3r3n3WXXufe+69/3nd30+Be885a+999l7PHp71rPGj6YABK9Ey7py3ItTvPx/Qi3+8gs484Ry67ZXFlH5CE/Xc57f0/G2H02pKFqvOC/5zafQGW6RWeB1j5V+YxEzcvEk9kpOEPziYT997ie658Eg65td/ofdSnaeJtv3la/Snk9cy8LeVf4JiBv4FMGdgxnGm3NEJERp5wdWnT5/UPQb+rmU6b6jfezRjn43osLvSK/6mNfeiyffeSEdvUqDw8Ww6HOf/Ob39wEjaY79L6bnUaq6J+o38Cz07cWvyI7lbfNu/OAkOEXXwc8tt+xv4sxNjRvoXfz+Dttj+V5Saf65+LD325mTa1ps48hFQx4zzr3blX13a4LpC/Wzbv7RstsQ+6Z28hq78NbY/Wp4Z6fKclx24BGw4BiZCaGdcITIQ7pPkLC3MkEFQY2ByT9HIQMwk1WywbXluy2xxeVYOO6EQHS18xretMYHfnbozfeMnj6VW7F8dPI4evv3HtPmq3UsDgEkbkjnMbc7ffz7vKho24Ed0d2ousS6d/MTz9Isty/APJnCJpVsFEz/0XrNYuiW2f7EmsT7CZ5Gy7zATP8TSlWx/Pp+VTHUUobBl/YIjdm2ZYnWf9tcX6AJ35q/1W7SVxtLl81zZd5ioI/sO8yY0IqIWohMbZwV535to3+V8tr9b+UfqoZGBmJmNtnp29Ia0RZnq7lrra/Sjh96mKd8pb1/y+wsx8auN6OGxLKMZ/DEesqGFDDOZK+RHQpFJedj+zIaXpDAm9cryxsZGyI8wSXeZ58ZWsP1B+NtcRBSwj66W7R8af74f0dqQV/7lnlD4W8qPeBN8bWzw+NNCibP8CEi9vhQ591utj9TqR0Jsf80GVvhaKHGWr8LKX+KAxvbnSXbIRijaTbL9Y+MsIby6mcRSLT43xkRkcJSdQZ4r+r9rbH9egUinG7KdxaCtlu2PF8CDWTrpWL1DgzZpSCUCIVqPD2bQAesfSfcsKrdS04an0e33/ISGrNI9FZ/LL1GzISMNlvx9DG25/UX0D28bt2ngefTcEyOpb9EUgABkIGb7b7T1RSm2/39uG5F6tbFohhC7FTbABJbnWXmfFXsfsIEJhhYOF2ICNzU9T2M22pou8ljdpz7xAk0Y0KUiDS8aATYwwZBs/xgTOG8kTIilq9kos3dvpP1WOILuKb2pdSlWj8wx/sEU2nn1k+kx780PPO8VemLk16vqC7hIgn+s32aN8VC0jTbBx7PwkWM5FgXAlUqx/UW/OO3JFxO2P/up0PsI9YWYP9RynZT8yJyxlBqT657q2P4TaIA4vov5Q/QpqIT6bP9q3oeMeMkafyU/UmzQWJmyxr72DlEPLFR88Od6hMd4k4SmYEQWj3GEE2ph7ZqNrHpoi0bUAxMMrY82sh6IKPA/ZX9R2SZG+Gslbf9nztiAtirHFblDtc1pwktP0eFfmZckq6lH3vfVC7agfmOe9nYUutFBs96nG/cvrP5t29/O/Hm1B0dWcKx/o1PX2Zp+9a+y6+g78ml6deLA0he8IrFt/3Ib+UJJxvYvH1Ea4S89/zDCn9u+4Q9vz+Lfne/M/2E6ts/OdMWCcgfpdtAsev/G/WmBC8OrF/xpySP0o3V2pCveKj+/aYcptOAPx9IqOcB/8XMz6Nxzfkk3/mEuvfF+kVDoIg96rz+Qhg0/jX704z2ov6MlaFvsjQr1++jl++mGyy+jy29+jF5+02Oou3J8bbV1aIuhh9KokSfQTuuW+RHY+pPpoK/dqwsdXlVcXF/iEC+eKFWE+n3yCj04fSpd/ttb6E8vv0nzS7R5x7hfZVVaZ9M9aK9jTqbRwzanlYunLTirw6oqpFQoFf5iZKBCOKEM9ctP+OPjtQL4yzNvourAfwl9+PS9dPEVF9H0m56lNz74sBSB0tR1Veq5dn/abeiP6NSxB9Pmxcbg1QiAU2M6Xz10GTqCtzT6jqRnXp1IA5a84ciJR9Mpv36EXvngUzexRXRDP9pq+JE09uSjaMd1uqp+5LP3n6LbL5pEv7rpT6n+A5Gj9Qfu7t7TKcX3VO2Zf62hfminmXTB+F/STX96md6c/zEV6DnL00q916eBuw+lo076KX1v81Woaz1n/otfo4evm0oXXXI9PfnaO7TgEyYBob160tr9d6O9jj6Zxhy0Zalv8qTO2P7lxGyxcF6MZSP8eZMbrCA41ai2jaGdB5ZjZytJNGh86cDxHZ+RaDa0owU+T8oj7xuSh0V15dECr6DwW7Vx8F8+fDT12flyKmN/Lzr6D/Ppsh0Kq/K6wd+V5R/nbEr9zn3Oe0Pb08XvP0onOvTPXPnfuhPddPS36bCrXys6qIpdtMIXRWGYG8/fi76+QpqYUi/4L3njHjrz4MPooj+/J6IYtLK4yIYhp9G1N55Hu6+xbNIPmwX8AUBnHkyHXfRnwY4PtM/y69Kwi++gq4/ehJraPPjfSd/vvjfN8I6hssB/8XPT6Af7nEQzXwvEDKaaxUWvDLuY7rj6aOq/YkExr2rwn3sg3bzltjQ+zWYtPb3pO5fQmw8cTb39OHj3rq7/yZ500uVzMt9Voo1x/TlEx+7WLHH+X7w5k04Zejxd9mxWX3b9ePApdP25y7iieNob1cT5fz6v5r65YlHLw8DfwL8kZ8kA7K/WAXYgPPj55vG7gX/14D9n7Ea02YSXvGX/CPr9wutor+KqvBHg/8VTP6UNt/SU+9xKab8bvqBbD84A/13PpIs//w2d9EhAc0DBuR7bjKcH/zSGtvJCCuoB/wUPnkQ77yUjFwIA63/dtBYdctOT9LuhhTNCfxu23pX/l2/dQkcMHkEz3sivwNRjmwl094On0jYrtuGV/59PpDW2vZTKm0Wuv1z/Od06vDJ50LLL/pdenrwPbXvyA5nAWvHWemxD4x94lEZtsWyV4H8Ejdx4Fk0SETHe4KFhN79DM/ZdvrzyX/wXGjVoB5oUmCzoPQkhklhc8K/lHaD0LmW+lf9//jqWBu/0cxGFk9GX3Q5RExY6fFkG+P/37Vl05JDv19w3H3j0DMcn+DwZLxbnX2j0TrHyd5VUFf6YSRrSFteSmsSSflTLBOYtQUwmNJYukw21lX+1CTl4tY4/tYQcTODRbIRW/hg4kgkcYvtfu3cT/dAXZd/+N/TuIyckW/Jg0OK83z/z5/LmiSj44ouH6YS1dk0dLax98hP0z4u2SmyUtP1nn0Eb+Nr+crX23Z/QcUftQwcMdExVt6X4xK3X0oW/uY6eTQeGU489r6EXf/996l28HzZKbH9pw+UP+PL3ZYU//yz586fG0OZDfp4OO2vqSuvvejwdd/h3addv9SXEQbz97IM067qL6drb59A7/sKzaU069Oa/0VX79EqB/6L5r9NbH0Mr4WWatPNeNK10tr02HXXHA3TGN5ntvyz16LNmaUsU9Vity0O0X3/HrBfzoeVX34KGH3c6Hb7/t6ivK9TSt2fTLTOn0rSpD9IrQpsZZM7HnrogmQDITyghB8aAlvSqsLNxs9CYL7P9NcKhjPNnB1ew8QH97rvr01EP+OzTb9Olb7vjqVXL4M8RCO/ecAD1dx041RzLr06b7Xc4nThiP9plM0gVL6RX/3I/3XftVJr8wCtpMaoeW9PEh/9MP/5mZQIm2Ji+z3LlbX+vsbBC/+HY0+kn+w2k7m8/S9dOPY+mzN2L/vDYmITMWth5m01nfnNrx59JT9KWX/e79JMTj6X999+Mejsbb82+lqaNv4xufOrtwO4WtP1fpgtdnD+zy1GUZZe9kfZuOjyt7f+f2+gwhYn/32fOogGDL0z3ZbfNv64bU0cdvhsd8q310JPpWddG46bcQE+9HdhBKWr7q2z/+dfR/v2PqOiby/XalA48+hQ68uAdkr7pBgzNmjWVpk5+oLJv9vsp/elv5xMCgiS7PSt/R8mPFN9TKJyXxziz/f2JOUfChCJ68mj7swiVJCJnMfE1tn+Mia/xXrLqIaOG+NhNy6HBEQUSg0LRDGj+arX9cW1CWoS2v8YE1piyzKplFqsMcyqFqggNahjTsnH5YTK+Qwx9zxODkO73hx9+mIAaf5h5in/LRozZxvUhFrsM9eOGDNmo/N4lEHEa4mW2OVGvox6geZMLMVVw0gB+mY2rxAQWjF+OWqis33s0Zec+dMrjXss60F3imPywAZbuiiuuWKm7z5c7B33W7x+gn32raykyomRjyTyaedR2dNgN81Kkwj2v+ifdNgJTmEI9qtX2L73Xj26hA/sdSnd4qNJjq1Npxq0TaJfelWx82Pha1/l0yfDdafSD3pZqj73pun+4ZxWKknx4AgW2/1jH6vY13E/761wa71jdeo6C5+mWQ7Zy7eiHT6xKO0+4n2aevCl1E3HwyeT0y7fpvpF707Apz6eAZfX/uZ9embJDSnOB20pq+4dYuuV63Ej7O7Z/eQ5ZZvtr9dDU95Ix7t7l/afuQftf8Y/U8Uq3791Ib8/Yj1aQ/e3pM2nAkNHkARYAACAASURBVIleNEkTrbnPFLpvxg9p1Y/fJYRlyfH3nzfupTP2PYimPF8Gt6YNz6A/zz67IlkN6nfdfivQkeUwhuRxTRue7iZPE2jdhe8n/cr/+L7qnxO3of5nPuPVpQdtfdbv6YGffauU+IrHPtrp0yfG0657j6MnKza68mn7f79Cd99JAw/ahM56xus33piqZPsvov89fzfa57wn05MqVDSg7f/f/77jxvg6om/2pF0ueJAuHd6Teit+5L+f/R/dP2pfOnCq7Jv30T8u/Q59RdSD21bzh6kcId440/ABP3PIsGS8h3xYhR8p2ojhgx+JJsPqKn1x4YGoh6btH8K5UCh4qH5sQ9P2hw0tvwxPPFIdPdKGuE5GDcXwL8ETZ1zN6pcmA5WLwNv7cluVz/BCTGBt5R86j+ez/Ubk4dZsZK38tV0HbgEtqx93Xhkq4qcaLXdEd7b61X3oenG2+gqWGO4TOvPnjiV3F/z4cb+zw/aM/ZZP7zD0G0vPzT2PeqS0/c+g9Tf3zhcTT9uPRv5lNl1Y3MfX0+rOp6uH9nMrNM9r9jmBHpt3MQ0p1qOU7tOt/FM29rya/nunXPkvosdO7Ee7eCzFbrtNpTm3HEFrOT5BPKXvBzR9736O0FcuS5/j/0TzLtk2BUSF2bQT+RHZ2zg+Xovpff23+9KmP/o9lV9XD9rzqhdolnOusZS+DlXp76MH0uBJL3lAtAmd84/ZdNb6lfwIn/DHg1am++TJdyHdp1v5uxVomcNYWPlPdNvp+iTm7USvAJ8lH86jN994ie6/ZjJdeuXtNOd9cZTRNJDGPfsXN0lKH524LCD0m2+vlQKbvic+Ts/+ZnACrHKC4Y+z5ZbOpjMGDPaULJvo2xe/QX84Ph3+hHuu2atJrPw3pXNedu3mFspaOCFr3C+39E4a3vN7dFPpZTXRhqc9Ss/+fHBqwsW+jVehS/7mtr0HTxIrdLft//Qrycqft/0xvpZd9gaRU6Gg7X+4iBr69JaDqfeBN5f7jRhT2g7iF18spqfHbknb/iI9ESO37f/ki+Npiywb1IOGXvMS/f7Q3okf0VL6FrLCfeHsbFHRN8968Sk6e4N0dsLYyl9LDc4rf/RBzVdJoTL0x6yUvlpqcI2XxUfS8BUSULNs5Enpy4Q/OSFihT9tcVpLanBJKozVD+1YbUpf9i8W6tfioX7TaahLDJLa9b/4fXoUTLwI+PORihxQvJ2lERofOW4N2tUPKSgyp78WS+zjuAGbOz7CU6OxJVlwfMHEPotm0ojVDqSZJWfbjUb8fiFd58gLuc/8376YvrvWj+mPjENNjqD45qN0jEswIx0JIzpsYLsu2Rp/dRxttv7ZNId/7HYQzXrfrY6LPATUozBo8yj8fUAXDulFo/9SBsceI35Pb12zRyK3LCfAsJFO7PMqXbBFPxrzdPn+bu7+hWgg74N61M/2l2uEWv/tJjdXz6VbDlolYeKndvced7yA7S51G9XFT5+j6Q+vX0Y7FNs4S9t/iSOcrHrATWVA3ORMemXOOCr0tMIHbZhi++PLzSfQv54aTd9wf9VEfhiglrpoma6H3VWebPU5jh55/df0bZF0R9uanj1qPRpYzurjLNVz5r+ErhnalX5wd/m99znhcXrzEkyLC59wYp85NNaJUKWKop75f0CTd+hFJ5QGDBH65nzXt/A60KfiiX1er+ybw2+lhdfvl+o4tYA/C11JbQyAYy3AjFW5FPkJkbJZAU8CcBYwS/DvFGf+brBZVr8WzepXCf5Dr11Kdx5aGHONYvtjcNQE/t0OdKB5Uwo0Y1n9/nj8mqkJRq+j/0DzXdhCXvD/+Hd70qpur7eE/UOvpcWuUbq48+2qwJ8+oEu+vSqd9Cf2XeWJCINKbvBfciXtsML/0B9L7rAACBM2+TIhq2WDv1tlS8Dr5QBzvgNMz8W2GfB30RtDzruXHhy5edLuEvyfcQC5uYdKfUc+43QACjtW+GSBP9EjdEzvHWlaKcxlIE3419M0Gqhe/Gjgv/YpT9Lrv9wquSIG/rMOWpGG31YG3E3Ofon+Pmadih0a9Vz63xfQFmuPoafFu64tq58TYFp2ON1eKsqmdO4rzyY7F/yJZfV78+fb0NpOp6P00cDf9c3dXN98QCkv+5GsrH6VffMo1zcvT/VNA3+5+8WLCNP2L3U9Y/tXy/avBP/NJ/zLrbQLHrCR4H/dvstVbPs//+L5YttfpPTd9XL6z/1HlbZJoyt/BxB08zBa8ft3lFdbxVVak1t5lLf9ZdrgypS+9x/Vi3b/7bul/rT2MffQH0dvnICsJFPyRcmZvztj5l2P2ecNoX1/+2bpGf3GPk8vnv/N5N81rfzv/D5123sGLeYnFoF7e3euXy34k3PSuzsnfX+5VDT2+RepWKzSO2/Vlb8jVG6w2yj6+aWn075OLwGrHkz40uD/AV3sJlc/Lk2uiHb65et05QFljNIkvP2jL7fBSzcevgGNepTvKUegxMDfnxyHwf/vNGqDwZ5IUS866sE36dLtC6RJTVY1LTX7Av1so/40vhSEU8fK/2+n0jpb/4pKnFJlwhdN6fuPc2ij/uOpVBQN/F3f7O76ZmnTTdjIXvk74mlF39zQ9c2XUn3TwN/Av+RA+dzBQv0K7orPNfH36uL8Z9NIlzfcl1H3V1CNA/8FdOmOvelkX6/VraaXutV0LM6/70+folcnbV7y6Jng/+wY2mirX1ApDXq3Qtji5rnA/wP61Xar0qk+ObGMKTX/zd9irwX8l1y5O63gSHqlz26/pf/cd2QShlU1+FeI56R3JHjCVz/450np+zXaaLuNaO2+Q2i3XXem3bcbSL0KGknJRwd/uWqv+bWkbvQnvjye0tv+6fYKg/8Mt1v1Q48DsRtdvugudxZfLfgTTXdCUO7UoPipA/yn70Vdyg8iKvYbP7lWFPwdr2AvdzRYKooC/qG+yTaqAv8q+qaBv4G/gX/RJdQv8rOErthtBfpReb+OqAjKDAQNifP/4iE6bo1d0qF+xe3TGPgPPP+fjgy0bvXgT9LpDqVrHfFqx1zgP5tO6zuQXBbZxn68dq0F/OU5ME8mYueB6TN/VGcJXbn7CuTPIfyVbOPAv16Fvyzwn54GpAa9KXl0ULntn1ZcDIL/3LNp0wEXlFfLNJSu+vw2OqQYLpm98ndBgqlz/9rB/4WfbUT9y1sIqfHNzRYH/+dplFsglE5YFPAP9U1+fnXgn903Dfw7MPg7MFuqhchxOIWW1U+ykHnGXmCSplmeoc4eWjEzExEOVotx5vALjdGsJcvgUJVqs3FxTG8oc9KiRYsqwvCY7V9tnP/sMwfQt3/zetl9fs2tWF79f7Sd+wbODck4kjC84ofLFNISwPeS4PLlv35BO2x2Hj1bekoT7T7tbbrp4OUTG927dy9Iqz53Ng3Y9tfEpdntsg/o5uHLpMDfD8WREQVdutxMh6x6LN1XumN3mvbRTbSLs4FJTPIOhQ3a/TL66KbhHnw8Rz/bbFu62NOVbwi27D7N2XGqRu7DOxjLLvsinbv59vTrUvOvQyf98W907qaV/fa5swfQtuULaZ2TH6fZ526SxMjGYoDlNvONB/Wgo8sN5N7DR+49lGuobZczI13LnllQ0pxFB698jNfuhXqM26xJZftrobas5SHHOLdVuh430kE9jvbsNeQNldqUnwbb1x+4Mh1XmhyvQyc/PptcsycfLatm4qvmnENbfuc3pX5MtDtNff96OrCYNVSCv+ZH0u+7bJd9VWH8zRTtsBtNee96OsSL85f9xr3wUj/kei5evDiVdIdtFPzOC3T2gG3LfXQdR4T9uxunERvcN/n51fqRir552Yd0kyfsxNFSGoMdNhCWrGXc0/xnKNY+NsGADXAX/D4aio9H3WvJuAcbiIzw/XcsBp+VbGXIYizOHzaQoMjHrXpsaFoeoYyX6OuaHzG2f4uz/d22aoW8bx864fE3CWTgRm371yrvm3vlv+Qq2qv70d6ZdiNW/uWz4Fgq3BTb35soafK+rbfyl0RELATLBE8UuzGEv5Ze+fer4C5kE/4KLwnvgkODM7X9PdY97rWVf6ENG7Pyz+6btvLvwCt/Y/svW0EGCoWRYNDVv+2PM9XH6KSvb09TvMQ7DU3sQ3+m49fYNvX8ahP71H3mv/Yp9OTrv6Q+ubb9/03nDVybzppdXk1uXwx/bE3wb19n/s0N/lL7v5yPgt9aq4J/xfHT9vT/5juFwh7Vn/k/ckxv2rEUilD7tr8jD6TP/Le/mN5/9MREwZM/8W3/x9JREXbmb6F+xY7DoYzayj8U5w88U1OrG/i3Bvh/Sa+MG0gbjfMT7/SlU56cS6f1WVB3Yp/5l3yb1nAxb150edUpfZv2nUFf3HZIyUllEf6WXDWUuh/tERiKjm5xLvAnJ5rTnb53Y1lKh8/XWxP86ZFj6Gs7TqP3uDUawvZ3qZv/9VQqvK19rPz/TRO2WJvGehFokqzXuuBfL9tfroLrAP962f6fTKVvr3oSlQIrNLa/65u9Xd8sRU02hO1fGXppK/8OvPLXFP7g60JnjhzSp23XsRBNtVn9QrwCVvjzz5J4uzBmI09Wv9B5S+w8CWXQzhxDXIfQwEkUyf5zF/1wrf3pel9WtO8pdPdDp9F2PVdKzuT5wwpjmmqWFPlR1cqcuM/Tr1xIHJEttf1T6nu9fkQPv1OOQ2fw15W5FtEdh65OB95cBm1kgoNaIWyUNLkzFP5Qz3d+vT318en+TqTnlvfAeg7H+cMGBEAK51mv0rgBGzhg7U09VlmLNndAtckhl9IvhhVU7ThKBQp/Y5zCXzlcvaCMd+HmhbPy1Dnekum0a7fD6aHSLModzzw2j/7ftwoZLLU4f8zM/RC5JdP3pm4ul3DpEc5JP/zO1FQsdZ4ZOx9frLDCzJoV/vytd/R3Oc5CKp6PHLMa7XS5l4d603Po5dlnlUR6NJnwlB9ZcqtT4DuI7lyhJ3VfrR8N6bc6bT/qRjplUHlFjPqlFf7KSnvatr/vq+47YlXax0tL2Oe4R+m1X20TDPVLaaq7d723e9d3+Yl9PIW/Mq/n+ioU/qSKZ6HfXFzW+In6kS+d0E6qzxQV/rZMZS10BExX3rKOUNoG+hQ4N5ofKSkbVvTNo1zfnFZ1nD9s4Bxb8pNY/lbiAAvtaOp7zBGQ5+iwgXBeySvQODfoCyEboe9xD2xo2v4xFUE59mO22Yam7a+NP/ZVIRshFV2p7c9jI2TDaXl8HtT2Z5lbb7fK00hPy0CmCStlwhjfq5GaYhrNIc3jkG407GiJfXA9E+J8MGVioeyIXKZQ/oAQ4UjagK1Q/fh7LUFK03pH0T1/+jnt2CsN/lo9+OWyzOTn866mAwf+SCT56OPinV+hKd8pBxqhk4DgUtD2Hy2y/3VzYD4/kQbmDzs+KWf55duX0M7rnEJl2Xunh/73f9AFTicfNqDBnkwSpQ2XY+Dz27+fmtx8+fqFNHjDs+iZ0rdNNPD8F+h/T187+UZ7H7ABxwDwX/LH42j9Xa7wstL1oeMe/Tc55dkS+Bckkp+r0PY/9YkX6IKBnNjH7+0f0M+/3YfGeAp/3Zxk69vT96Fli4mn5NhgdbOCE/snTdz6m/QzT9+92yG30YfXDPVvq0jIwX0nNP4KNm6i/Vxom9T21+uhC/AwkVQj9fL4Sznjuw6nlfe7PiV1fMhtbzo1u0Jf0SS8/XE2f/KO9I2fPFaeCDV9my5580E6xksehOuvcxn6jihp+5f7FGyEiIvJWHDJolKSut2G0Y1vTacDRDIlbYxXlI3Sdstj+Qbadzm/3feg3312Kx3qyHjlzxK69ZDedFBZ+pLQb+a7XAk8qjRyMupObi0/dee16SePeZLLRW1/JPYpfz5w1/Whkx719vc8GxgbAH+ZI6TsP1+r7JtO4e8D1zclORLlCo2/kh8pFoz5HNr1PnHYHwBMytYWjagHFhEaqVDKcTMGaTLdvEAL2QD4a4TtWmxoeRBQD4C/zIfDEyX5PU88Uo7C/YMXv3KShOu05F0xjI2CPxqz2qQDsZeOgoUYzfhNA+CQ44uBfyixj6wHO6RQ/WI2NPDHc7QXzkzZ8ATjXQey/Z0QTzqrSNOqO9KFD99GJ/cvBF9nD6jP6c37R9Je35tCXu4UtCxtePpj9PQFW6W0zdFJ4BgQVVAJ/u62HnvSVS/cTt8vpujjgZOqo8uXPm3fTeiEB8ur/qbt/h/9+w/HJ5n9YAOrgmrAH3X84ot36cbvre/aws8styGd9ujfaMJWBZlZ2eFhA45huaUuWdLm29Iv/uE5zE3OopdcEhpke+M2LAy052mMS6wkE/tMGFCImJCf/7vqAEXb/3l3TPG1CofIOzSFFeXnTtt/c6HTvrqbkPxfaULCtkKDNi/4I0ERwF9zDDLpB2zHJqca+C+FPr9ru1RIptdXouDvdnH2/WY6MyKSB813GQL9+Pe84M9jGfXBxG70hlt679Z15T1+Ry/ccWgp26Q6nlxmPFk2l02nNJHl8VeY4F9fAf5XfjqLDksyCpY/S2ePpn5O/6IcvVrICXF7cVCFIpPevX5/6u9mPimPoII/0We3HkKrHzSzIu8EbKTGuDcGCr7tC3pqzBYVffPYR/5FvxmSHmchwGawKSUIq7BR2Q9VP+LuC/lJtlFKEFalDQ38QwsYtuGLhfljQ05iYhOMLBsysU9o8s1+RDL0C36yEFGXlb+De2LMhrH9W4Pt70CInesyXzxFF2y/C435q0wr5lJ/7nEynT9+NB0wYKVES15uvS9duoheeWAynX/6RLpujpfVrvjme7gV9kt3Hu5S0lYmkgEwJ+A/W6jvFe9t6nc0/f5Bp7e/5nKV2v6Ln6NfDt2OTnvEKzMSl/zvszSxmAwor7wv4uOX+/dFtPU3f0aeFD7R8v3p+Fl30a+Grl2RDS9h+3f/J12w2950dqr9etCIO96h6/Z2uw6ewyjI+xJdtceKXtx9E23363/RH05YrSKdKW6dN8+l6R2+ZXol5mRwkdXv9p9uXpHVL4nzX+Zduve0PWm/S59LZfXrse919JrLqugTvwo2GqHt39yEv8IkdNHtI2it/W9IgVNTz11p0iO30aG9Fybbp/4Hzuo/b9xMR29/WDrfPJIHzflfOnPj8jtiYE6L/FQZ5+9uTnaAnPJdb6d8V+6ZTbTWiOvoL787mNYqzjIw9njF9cXLk2mvbU+mB0SK6vq0/QFon7oEO31o/xv8MbIWjZjxF/rdQWvRZx9/nEzAy076M5p78d70ndMepIqiqNr+AAKnYLjjN5yQl59xsiftOukRmnzwKrS6C5GT2/6fL3qdHhi1Nx0wOZ3Vr8c+0+kfMw+i3v7RQhFsUEYNUEOJfXj3y7T9yyNBS+yDPqiR8cpHe+ncGniaEf4cYGsznzxn/sm5u3NmMpcyHEPzs/098Mdqc8lLdMle29LJD1QCeNJ9ll+Jeq03gLbb6GvFVd0il+jkSZr7f++n86SX+ppzeIfcQP979b60hpjcMNiEwB+DnGfi5EBus0N/TD8dsQ8NXu+rtOy7bsXrcoJf/Ot76LVU6vHlaZOxj9Pfzy/vMNQE/s7xvDtjX+rnzsjFXgh13WA3OvG4Y+mAAwZQki3+1b/QVVMvoOm3P0vpNOjlTG5+OloeUNg+vPl7y6c04F0D0+pb7EBD1sFRy5p04K9+Q8OLevOox+rLPET7bvwD8pIGFl7L6lvSIcefTocfMJjWc7cufesZuunmyXTF1Ifo5cXpTHlNG55Gjz99IQ3qml4htjfw//zzRfTMz7aiIT/3sxUmrUG9B+xPJ55xNB0weD1KUsjPnkUzp0ymyQ+8IvppIXnQrIOLx0LebAHvqR7wh6jS30ZtRt9KZVN04NV1A9rtxJ/S6YfvRut2/S+9+cwtdPu0aXTpAy8HxlAdhD9Xn4Tr8NmTNHbL7ejnL/l9wSkxur589EnH01H7bOra6W2aPWsWTZlyCT3w8uJUWuVSswTB3/mwd66j/fs7nRCxdliu12Z00DGn0JHDd0z6pnsZdIsbu1MucWmlZd/sN5L+9LfzaCuXPVOuNo3w14EJf26wWWKfFk3sUyZTprXFF9Nz035AQ0+cSf92kvk1f5Zfl35w7aM0+YDV3XZ45eQmC/z7nnw5DbvnWC/1alZJetA24x+gP43ZOrUyrxX8sSU573fDaeDRt1WugLKK4o451jrkJrfKG0prOpCX52icivOjaTtTr+Me0R0tpeVkE/B3Z3VfvnULHTF4RHr1mlmewgU9tjmX7rh3FA35alMwNXH98r4ts/IH0XHZZZfQE6MH0w6T0jsb1TVHob88MmqLZDerYXH+zngZuObTrd/fkg6c8UbgHSsl7bENjRj0Ds24n5WmGgD+yNX+3u/psK0PytVvemwzgga9M4NKRYmBPzQT3p5FRw75fi4b3ALom3c/fCZttdznyXgx8C+0DK/KQ6RemW4X98RIhbbyd+Qs/vC5Bv6tdThmKPoOnKMAQmzHdrvy93zRvFcepvt+fjaNveoxsaKNu1asbPY/70r61YnbJduboZ2NTPCHtv/5X9IFO36XzvxzYCeiWJSmnoPplGtvpknfXaPinLl28C+cFS556Uo6+qCRNP3ZeBm4VZp6bkbHTL6LLhrmyhJh4hcG7bsuFHtDp+Muj1oKT5OJlgD+CW/D8RxuOmUoHX/Zs1VNTJJ38qtZdPXRm1CTO3LAMyS5jt9H+wL/ws7b/AfG0Q+PGU/3pLeBgh11+XX3oAnXzaRTv7Vi40V+KvzIEnrhihE09IRb6PXULlVl8ZZfdxhNuec62vLKjb20vg0Cf/fOl/niZbry+3vQcTNfSx0DKSWhdb53Kd07Y2u6cuO4vC/uTY3xz+fV3DdXLKbtNvAv78p1CvCPsf1jhL8QqSLEkteAOS/jPouJr7H9CwzaAlvc/zARQtYjy0Yetn+M8IeyhFihkMzsvvwX9Mrjt9Bvr51FDz/6DL2+4D1639uuW36l3rTymv1o1z33pv0PPJz22NIxYr0KMoM2ZCPE9l/3tCfpHxcOxDyW3nh8Mk0880q60TH4Pyjaht31BhxAB59yLP1k6MYEx6EJTuRm+ydkvHQECarzyasP0Q2XX0ZXzHxctMHy1L1nb9pgi6G073FH0Qm7D6SVXQMwOStEVC3bWEzPX3ESHXnhnfTiG+njE5+Rj3qAqOP3n/8u/Cf9Ydov6Zc33kvPvPIWzf+Y0WV5WqlXH1p/8z1on2P/p1QmdtQhoo4WohMi6uBZBXnRmwTxbF0XsjiXQsRFLQY/RgbSWMiwXYiY8MlcS+jDZ+6jS3/7K5oxcy69/fG7VGoOly1w1VXXpm/uticd+oNj6ZAd1yHOHxQiTuUl/HGZgtE2//mAnr3tF3Thr2+mR158ozSGmrquQmtttAMdePLZdOYh/ZNyPTt6Q9qyxAStnvBXyfbXyZRLPnyGbpl4Af365kdorutznyanAUjItBZt9J0D6SdnjqXhjuRbQVwMEP5UX7X4ddc3L6Lx19xJL7w+nxZ84vXN3q5vDvgu7X3skXTid7dIxgs+/C4K8sV+REG5HiG2P44P/SRvIf/JNrQxECPKaWz/EAGaF5TpHdVCHWPERdhAyLA/MefyapP1EOM+y4b0IzEbLCEsJ4i1sP1DxOEubqtCDfVjYJakDRSGyWqyYJWOoXyFFqITctSx8IQQsx6WQmx//KaBvza5iYWdJGD0ySeJnrX/wT0ayNZSD7B08fxwiE6avFdL+Axs5GHp1mqjzPYfk2Y+Owb2Ei/ULzY4s9jGkqUb6lMMwNoEI/bO0VYgsclxoEWEVMMEzsPS1fpnrB6x8RcCf21sxJxSzEZWqB+PGfYtocVFLNpGTvDZH+UZ4yHw4PJJFc/msLFw4cIKMl7It8XGH+7RgFlj+3M9QpFJoQkU7gtF22AR4YN/rG1D9Yj1KdQjxPbXFh0Mjlxmfqfso+X3+DdsAPxlqF+oH8bAP7T4hQ3J9q9+oVJGm6y2wi6l/9FwnH83tn9rs/3FjkSjtP2r3vYv9gRmQGtCQqyyV13K4sID69325w7aeIU/bPund4FwVsf1lmFyfOYvk36gfbXzwMqsfoWagG/Q2G3/r1RwGtBWmhgTOzjfMTDA471LkR84GDzLFyvCM3BP4cxfJ9w2SuEvZiOc0lc/PkT9ZKIln+2vTca0HUQmvmlHlJqNhPCHM39s+yshpHF53/L2c9bxKH6XpGUef5jgV7D9lT7C79W2/TvZtr978Ub4axOEvzJoNialrx7NwI6hxPZvCfCXWud7XkNL7zosNUNNQv0c21/OnA38K0PhtAkGO3AD/3K3AmAb+KfFwrQJooH/vGRVLjMHhib4TBzWFhGh8WeEPyP8JZ4ptiroiCv/D1yugVVdrgH+NO17vcsf4Kf0dYIlBv6pyVAsBtjAv2eprbJWxgb+Bv7oLMzE17bl4XMN/ItDis8imHHPI43PD9CQ/jkPfscgY5KCts2lnQfGttI6LdvfdcSOtfJfhm518dwH3FRW7us3Zg69OL6YoL3YuQz81zTwr+Jowbb90zsbtu2f5kCxCI4EeQP/9A5iwoEA218CM85+AL6SkIPv+bwMW7T43f/kIfyxDdzvTxb4+xBDMUYGkoQ/npSEbNRCOMpD+Aux/WMkDI3wx7sFGiEnRKKJEd9gQxJ12IY2M+b3it/8dx4iyj172ZF0wfPr0g6Oufz6nVPpN/e+7oU4fY2OeuBNmrJDedCiXrwdWa0NlBf10Ah/KK/kJ7ANPh/165FFKqyWqIMysbpZamAUv+fzXzlupLyvP840trHGBMY9vnyqtB8i/GljnLeBwQXIM8alH0EZtH5YjR/RyFx4nkYc1vphNX4kZEOex4f8CH8f8iNMxpPvAv8OafvXIhOu1SMu71spvctjAM/y33mWryqResXCUfMjTJTTxjj7Nm1sJBLenvIg9ylpoxo/IuvHZkqEeAAAIABJREFUfiRE+NPalscf7Ek/wtEMWj1C8r4altYyxqv1I1zuINs/xlQPsf1DrPe8g5ZDkLRwLTSqNkBgIy/bX04K2FnlGbRZjiFmI8SglWx/thGKKNBsZDHY87L9tU6tv+//o4nbrEdnljP0pH3fuqfS3166kFzun9QnNHHMYrc2gu2fZSPE9g+xjTXAzrKhsXS1cYa+qU1uYpM3/KaBf2iCWKsNLX9HCDxCNkKOnTuLxvbXbPAEQxvLWTbysP1j9Qv5SdQlD9s/NJazxngpf4c30kI+OiuiJw/bP+Q/QxOMrMm3Bv4xG9rEI6utqgX/2NhgG6EJRmgRAX8hJwuhRUTMj2j5O2JjvIsrcJDwx+dlvpfm7X2N6Rxj6Wrb/ry7IBm0+F4eObBzY8enHS3kEfnhc3fJlOUyhWKypWPgiQrKp8WJovFDNkJ62ZKlyzZkHC6ezSl95bOyZDkl4Y+fpbGTQ8pVuo0b6YDlDqHb0uq2hS7UY2sad/dDNGYQYpnLjHteaWpkmVoIf5o8M2ygHkwq9Pt0ljJXSeSneBPeR8iGTOnLdkLbkfhdavvzgA3pfqO8ecefljyIx4Acf7WOcS2lL0edhMa4xsTXtOG5HbUJRsxGyIexH5HRHbCjLSJ4Fy/PGOfdS82GphcSshEb47zrIP0h+pTG9ufdIRnWFooUyfIjCMPLk9IX5dSihtjfatE2mOD7SpCx8YexgefLiTn7kWrP/LPGOI8/v7xZfmSNNdJiaDFeT8iPcP00/NNSg3M9/IgenrBaqJ+F+iV+lY9z6g71+/cVtM93xtIj8+bTJ4lMMURM+tFWw39CF088ijZeoSDmIzuvnfnbmT96C08EQ+GEduZfnrZmhfNaqF/5aNHO/JUzfzfYLNTPQv0aB/5F35SK8/dWzJjtGvj7+w61ZvWzOH+eLOSNweeJbigG3+L80xOMZAqvqG9aVr9KvRAL9VNELYztX56F8nar5nw6Yqgfu5KY07WVv638beX/ZcJnkkcLscmNdqzIR0m28reVf+hoIeF+2Mp/2ZRSWuishwFMnvkzAQS/V6uAZ+Bv2/7+2l+e+eO32HmgxflbnD/6iG37L1eRUMxC/dZIbSsa+CvAHBo4Bv7LVGhc1y3va9v+Ju+rhGqFCI0m72vyvoxgmBiDie8T1mI+2sA/B/i7eNOlWvhMiAnMrHDJ3o2xxfEitRUzhxPKFXOIic+s9xATX4ud9cMv/ClRrTa0EB0/hMW3EWLKckSBdo6G45GuXbsm//GHdxdkvfl7GQXAK0dmAksGLWwgnFAyaNFWIRtamzM7WWPQwgZCjeSg5fAnWSY/zl+2IccAa/WAXoHff/hoQfZPPDPElGU2dageYDT7BMVQ34ENlv7E3/3yxqIWtPh4bfxxOBCeJfX4YS9mQyPKhcZf1hiXpFB+XxpLnsesFlGAOmp+hMOZNEZzKKsmb3/7fYf7goy24TJp4w/3a34kNMZDYznLxqJFiyqSd2k2YjuLWX4Euv4y6Y7Wtll+BG0SGht5/Igf559njOP4wu8noffKY0A7Ts0a44h+8iMEsvyIjFLhnRjNF+M3jHGELPo+IWYj5kdCXBUtEiZkA+/ctv2N7Z+Mw4ax/Yuj2gh/lcpjltin0DmyQhlt5W8rf54c2MpfVzDUNEa0UD/b9nc9Se4u2Lb/KqndBQP/wnGHFmcs4/x5QFlWP3/9pgsJaTH4Bv5EltWv3Hcw2eMVszb+bNu/3FZ8rGHgn/Y9FdKfsS0zA38Df+4+ltJ3+dRIwuTGUvquUmoTPgbBF5bSt9xVLNSvnYf6uRVfRZw/Xm/ozJFFOPzzYt7Ka7TCX171Ly0+V1PN4vMZVv/yZ5uxczTcVy3bnycetSj8aYl9QufxfJal7WygvKHVrJbSV1NWi6nvMadBk7PVtv35Wdp5WUgdK0ucA9K78jwwS+FPSpVm2ejTp0/qzD9L/QtjQ65gYjP2PGx/2EZ5NRsx9S+p8Merbx4DPvrjO+YV+PXIEuCREsL+GKhWxTPWR1BGjbsQG+Oh8cfcE41XkNeP1GIjpPDXSBVP8GG6detWMYkJCXlpMeqNUviL+ZEs9b08K38eA3KMZymFyqx+tYzxLIU/6UdqVfgLaQlUq/DHeJ0k9pGynHhR/J+UgWSnIUGFyUMaMSQ0aDXCEdvViGF8PRPAxMJfleXUCH/V2AjVI0Q4YqDlMnE7ye95YoU/NRtvvfVWQsYDWYc/sXozSUh29tD3eCZsgEQjSYWwI9vWJxvmtQGiXF5SobTBcqSatjjqAelPCf5a3+HVG/dbH9RiZCDYwARDkoFiNiTBzH/n2nYdbMAxSACGDTmx4npIG/570gBNA+bY+EP/CRHlQoRbTcujljGuTXS5bTQJ79gYR7vIcZZFxgsRF/OM8SxflYecHOqfMZ+LPoVFhA/+oTLFxniWDUwwpLxvQiZzegVSwpvJhpofiflD6UfYt8r3Wo+v0vyI1ndi4yzL5+L4UBL+8voR9ofaGNcm+NxWmh/p4h62tBGOIcv5hByDNqBCE4zQS2fHoM3YNcfAzhjP0yYx2gthG9XO2GMOPzagMHvDoK0G/LnNQ2z/0ICCDQxaH/zZIWpsf00PPGsSAxtgt2rgL9ucAU3T944BM2xgVVAt+PPOVJ4JBmxgVaCBf7XAjLaKrW7kjD22Kg+tjLPGn0z64U+ApagMvw+5Q5NlQ9P25500zYY2wciyUS34o81DIJ9lo1rwz/IjGniwHwmBv7aw4Z0NOXHM60dC9a7Hj2AH0Qd/7rsa+DPbPw/41+JHQhN8nizIXTnYwARfRg2FgDnmR0Jsf9gA+PugjedrES/oI5yHRO68xSJh5CIiNsZhw9j+xvZP/BF3xLq1/Yvezdj+xvZHVzDCX6WgFdrFCH/lfS4j/KV19wHaWQnCjPCX2iitzPXNM1pcZmz/cmMBmLUzf55Vahm/Qtm4uG01li5W/n6cMU8wTNs/3XHznPmjT5vCnyn8+RMr7ZgplNVPy97Hu0kYwxqhEbZM278wZhmYEekjt95b4szf2P5uta6deeRJ6Wtsf2P7MwQb29/Y/v50zBL7lFujFsJfiDgcS7droX7lNreVvyMcyThqrEz5nNDAvzALjbH98XtoVWAr//JgM/A38DfwL8Ta28q/0BNiWh6svtfuV/7O8QXZ/mgEWUHeStfCu3w2p9iRr4jBx+9MxtNsMNnCf45PBJTPx78lUYdtaExxJkOEbOdh++NZWluF6sffa+UCYxNsf5+lG6tHlo0QKxRsf0nUQT20MoXeK0cHoHxy2x/1wATDJ/yF2pwHm9bmbEM+H/fABo4WfIcVs+HLi/I7i9lmGyADSeYyk7lk/0Rb8bGGZgPP8b9nGyAD8Qd19clq8nu2IdskNv4kqRfP1MYT2+ZJthxnsfehyYtmjTN5dsnXa/0QZdFW5XxPiBCX14YM5435KibdabY1n8DtqRH+8vqRWFthbIA4rEX05BlnIf/C/RbEYf9oLzaeYn4k1FaoB9j+vpw191utHiEbzMQP+UOw/SUplaNONNJdaIyHItFQDxCH5bNCOKeNP9zrE6Dl2JSk3tgYT3y9Bv7sAKSDw/cM/hrhgJ2SBsxySz40oEKOj5/JL0SzUe2g9euHekhnHHNwctDiWczG9TtWzEYMoGLgLzsu2+YO59cja9BK8Of3oQ0Obg8JXFnALME/ZsNnscp6aPVj56MNWg2Yfack6xGyHQJ/fhachew7vOUp+2dsbMgQHb43dI9mgx1DaNIqwT82xrWJhz/+QsAswb8eG1o/1MCfHZzmqzjSQPNVMT8iyXhZNvC79COxMY7rZY4QHhuybbP8CIOmNqHUwF+b4Mf8SJavCo1xrY/E/EgM/OUEn8dfDIMYq/yxhO80f4/xh6ghyXVCebUxHhqXWX4kBP4hP4JFjf9e/fekLYYk+IfGH7eJsf2N7Z/0BWP7m7yv7yhN4c8U/tAf7Mx/+YrVeofZ9ncziwqFP95WwUxGbrfgN5yRyq0egAccBmYr2qxdi/PnjqWdM7Ftf4ZjZ/5NFbNTO/OvVPgLqdPFBi2HOMoZNVjTpu1fmBZg7MdUPLWjBQv1s1A/7jtG+EsrhTKvQFPLtVA/F05h4F9YlfN5tdyaMvA38PeBOST9qal/wfmgb8n0wPjeVv628reV/xcVpHNMgG3l/5WvpI41beVfqSUAB4qPZNyz09Xi3bHS1LT9DfybUv0N/0Bbadr+tvKvbCsD/7LoUkxvAv3KQv3KQ822/Tvwtr+m7c9nwJjlaExZJhzlYRtrMfgxlq4mrcjM2hCjMiTLqV0fY+kyeUgjVWhkoBCTtBYbmrY/t5NGionZxvUa8QY2pCY3H/VobRXSk44xaGGjFk1ueWTEZMqQJj6IOlKWU+u3vIrJy9KNaftrES989CVnKlltpWn7h+pRiw1tS17rn0wS0tjGPtlXGxvyaI+JWfizWmnaGJMbzwkRh7W2YuKiJsOsMbn5nWl+hIlX1fZPbtsQATOPvG8tEQWatn+sbbN8mFYP2ADhTwp5af4z1neYnBzyVSD8aWx/DZt80p0/BrPGn/Qj3Faa3/FlivPY0LT9847xkG2UQyMOh8ZAgg15E/vwgNb02UMhSNqg5cYNOQYN/LMcgxbqFwKP0ODMslFtYp+Y4/OjA6QTzTNoY4DNnT00oEKJfeQgr8eGltgnr2PIGrQyIUfs/fHA4UkRD9wsGzKxT8yR+brfvmPISlDkgz9P9phtLCcSGvhnAXO14M8g1yjwDwFXqLyx/hbyI3kXEVljPAT+oQmG1qezwD/kR7TJd14fhnaK+RFpI2uMaz6abYQWEXn9CC9sNH+ogb+GNdyn2Lb/rKzxpy0iQuMv5EdiSXfwPsD29yePMWDW/Ihfv1DIoh8yHFrE8xjv4goQTOyDwkkyHm/vSwEePNCPo5YOq9qMX1xgPEueRdayXccDJyTvq9WPO5bWwKGUvhxGwvXm9uDvJXeBO5bs7FpiH34Wk9KkDfk9fo9t18GGlpAj9P5CspUxTe5QQo5Q24bS0cZScYYS+zBw+W2LNuRkGfK9xmQ5Q4l9YkcLoXS7mDBrYT0ysQ/KjXeB/6olA6F+MTKetipgAq02zhqR0pcnwCE/UssY17QEUA/UX47xWP20PhJb+Wf5kdDRniayBTsa+DN4SF6PXz/pR3hCUo0fiflPHsuh1ODaLhf6LSb41Up4h8ZZlq/SEoSFxrgmX4z2jqXt1hL7cN/RkluxH5Fhg7GU2rCBCb7/npjLJccf+yqJsbiX5X01bNKyg8bGgIX6Wahf4vMs1M9C/fydECP8GeEvaxEBzg3AX6b0NXlfnZ8E8PdBG8CcZ4KP92Ha/qbtn/hpf3eh2sRFuM8S+yyT2pgyeV+T9/U7hBH+yq1hhL8OTPhzAGJx/m47hT+8FSO3e/j30LY/fpcAbGx/y+rH/QYzdt72T808ipOxNddcM/V1bFVgWf0sqx+vyvm4Q9OnAK+ne/fupX7FR0MyHJS/xzNM27/QXDz+tONtC/WzUL/S6jt0Hmjgb+Bv4P9FskMl8y/wJFvjNMS4C/LMn3e/0M4acDHfQJ61xng9tvK3lX+nAH9HEli6aNEiNZGMxm5lZmhIL1tjl6MrLV68OJVkAt/FmMDM9veXQ8zqDdn49NNP1WQ1eIYkSITqkWWDV11cLr4+ZIOZwH49YkxghADBIdabyCLLBkg6mkPOkywj9P5QV9QDSUX8fhIrE4foaOGj3LbyN9hAAiTJoNX6La+UQgmpQuGjsIHVkyQPav0zZoPDmTSijgz7io2NrHqEQstCWvKNbCs5xnls5PEjMeZ5yI9khalpIWGxUD9tjOP6UMhwzL+E3gcruPl+JFSmUN/JO8ZrGX9sW/O56Lc4768mIQ6vpkP+JTb+pB/hfqWNpZAfyRp/mh/R3ivXI4R/+D3UVtKPxPxnLEdIqK3yjvEubsAulbGzHIIQmrGjgeW2OM/k0RG0lyJn02wDjSU7D54fmrFrZBIeQJJBm2VD2zJj25oAD4Masu7xh4lyeCEy3twP0fHbhCVPNRtIzoBO4mf1i5HxWOFPhl7yWR3syvcBGxAS8ok6XG8tooAZtHLgxtj+sIEwIH9lx8xT2UeY3crf+0CbZQOEI38Sk2WD+61vI3bmj3ognNAf7CEmMN4TnsV1zmMDYUA+EPD70OS1NRltHn8hhb9QtA2PMzmZRf8JjfGQDU3Lg5nqWubFWmxoYXghGzz+Q0x8LUoG7aD5EZ5gaL4q5kdCNqSjjvkRH7ikH2GA0sY4/JSf1S/Lj7CvkCFyMRs4WvDZ/jw2QkcL7PPkGIeNkD9EZJI/DmJj3A+R0/xIyB8iosB/tyEfHfNVWX4E4YTy/eGdSH+I73iM+xMJ37Y2+ZDhvDyRRntpfsTY/sb2T/x+zDFwuF21nAY8D6RCDKhqw4Cw2uK8EHLQhhyoKfyVuSqh81wGdVP4M4U/O/Mv5FnQ+BGYfPv+rVNs+xvhb1k19tIIfwXYYIeBQWPgX2iTmGPQyHi4xwh/y6V2Nninws78C80SWvlncRqM8Fee1PE403YQY3H+WEQY+BeHZ9Z2gWX161GxRYsvqgXH2NGCafunZ+YxkR9b+dvKPwscQ8eHRvgrx6Ib27+Tgr8bHBWhfgAynHlg4ITOHGUIRNaZv3bmqJ3V8coqxCvIO2hDTHw+08mrzKWF+vG5uzwPDJ3HM/hr6l8h8GciSyirn3bmH1sV4Bwtz3mg5DTgPcXO42Pb/rLesS3rLBs4R9POA2PKXJKQk7Uq0MQ5tP6JesRScWp8Az4ikaF+PJ6qVd/Dc2JKhdq2P682qx3jWUcLoTNHySuoZ4xrbH8+25ds/xA3I4vXo/GTaj3zD3GHmlvhD+MPnBufO8QTpZBSqDbG88b5Zx0taHyRvGOcx0aeMZ5lQ678YzZ8sqbk9YT4MHgf0o+Exjj7EYxLnyOQdeYvlUL9caapCHZxDmPpggULCE7U/4TYkbwrkJdBG0rsA5uSrBJiQbLtEINW0/bX6lENCzlkQxu0eJ6sRzU2QslqQNSR8bl4nsYiZackf+N6a/eEEvtk2dDek/b+8F0osU8tNkLRHbBRi7a/PPNDW/F38jdNkzs2BnhyqkUthPqUJssZssETcznZ44EesqEBM+6BHS0SBvXImxBHS+wTqkdsjIf6CMqrheGF6lGrDW2CX8sYj9VDi/DgCb7Wd3gM+L9ljXGQeiX4454Y4z7kRzQSdyxBWB5Wf1Y9Qol9NBuhxDchPGNf1ZYS+6DfxPxIiO0PcrJPHEbdYvXu4hqrAvwZuJiJ6E8KePYoZ9lcYI1NiftDM3b8pmX80mzzYA45OM0xcF2kDd510BxcqOFR1rwJOXj1LSdW7HQ1sNHAnx2DHIQM/tr3WttyZ682IQeu9/Wy2Qky2MRsaFn9Qm3rRxT4bcU7N6GJkjZoQ8DFkSKyzZs7IQcDdmhsaODPq1ktNBErfDmT99+T5qhDiX1C44zbUGsrbeIB+9oiIjTOeNch5EdCNqrN6ody+zts1Y4/XCfBn/u65nRj9QuNcTwvT1a/0BiI+cM8iX1i/TO0uGA/IrP6xYArNM64fppfRz2qTewTGwMhPxkC/9D4Y/zTdm39nV6/v7ENLaufNv5wfWiMx3xVnqx+ycTU/c8U/kzhz9j+jtCoAQ626zBoZagfJ6XxwREDygh/vVN+j4/XTOQnDQd5wgl5610TMeLFhcZgN4W/Micm62jPCH/F/slbdZgtaeeBRvgzwh/PsvFniLtgoX5lh29sf2P7+/Bv4F9ujazzeMnrCZ3H44l+1jvtPN5C/Qrtnhx12srfQv24M4RIhRbnbyt/9BEsCmLSu9rRgq38C7Hl8mPgb+APf2tZ/ZYrrwr4/Il3HfzZG7N3QyqCIYUxXp36AzDE9o/NKnG/JfZJD1pb+afD7Wzb37b9MSayIgoM/A38Wx383TbJ0hBLVzKBAcRMhMir7a8RdZg85gM82wixkNFl5PkWdyON7c+EP3/2nWUjL0tXq0dpa8W1mSyvViauA0gbIPz5LN1anpVlA+eBvrwv29BWKcyGx28+4Y+/194H6gEykBRxYbaxXAn5RMA8NsD2lyGWofcXqkfo/aGMqEfv3r0rQm7wLG0McD1k/UK22QZ4Bf4n9v6ybGjvQyPj5R0bsX6I3ySpl3cLND/CR4uh/qZ9j+dJUm/Mhk+I095HyIZG+Av19dD3sT6FsoR02LXIllBfyOq3YPv74byx62sd4yAO+yqe/D40P+1HGvhjPMtXgTisHT830lfhaEEjnms2ahl/8CPgFUiOkIZzPHmU5WESayj6Se68ZeFcF7eNV8H2ZyMomF8AfI/vYkkHQkx8Cf4xG6EJhu8wNAdXLUs3ZNt3JKEGljN2doj4s9pQuBhLNwT+sTAg2NY6rlYmBhsN/EM2mGEKG/6gjTFoNfDHvRoTH2XiEB05wQiVieuhgX8ImP0ta78eWQxabdCGbITGRqh+GvhnTbJZ99sHNNzDERPa2KiW7c+2mdDotxM7pdAY1xYR3NelH2G2fyjRUrURPTz+NF+V5Ue0yRueFwL/0BiXttmPhPoIfs/D9sdz8vgX7lMa+PsA7PcfHstyjGvvj+8LjfGQjSw/Im1zPcAdqjYJWcyPoG+HbEjwD/kqPAOcN959lv4w1G9D4B/yh6Exzm2ojXEZ6peF43bmn0Pb/9FHH6V77rknCfcDIHDKXn8Q+X+PzbR5dSrvDQFq6PrQ9+yAtE4SAtS8NmL1a6SN0E5PS9nQQKKWtorVw2yUR0KsT2s7R7WMs7ZqQ+sjtdQvz9hAm+K4avDgwTRs2LCUS8or8sPHprHkXbKvG+FvhVSb433HxMLQtpq/CIn8aLwCI/y5RpZM9dCZ/80335zM1ocOHVohpBACf/veWsBawFqgPbQAjlP+/ve/01//+lcaPXp0aXvawH/5iq16ALNU38M7jilsagp/rX7m72YZFuefEed//fXXJ+P3kEMOaQ/j2MpoLWAtYC1QUws88cQT9Mgjj9CoUaOS+w38DfyTjsDEjM4U5//yyy/TQw89RMcee2xNg8lushawFrAWaE8tcOuttyZk3R122MHA3+nrS5Jeh1n5Q9u/WrY/TwBiTOdqCX/+ZEJj4udlU+N5edj+LMup5Sjg80C89Pvvv58WL15MBx54YHsav1ZWawFrAWuBmloAW/84AjjqqKOi2vAgsWls/xAbnnkIeaOGQoS/WqJtQpFJGuEvLwaF6oeXoBH+mMgpSYhM3tXIsLEIqxDhD/a1qAWV7Y+LQyxdjrWXUpO4J8bMrlaTm21zw8tZlx8SJnu2FgYUItCFWKzy++nTp9Nmm21GW2yxRU0DyW6yFrAWsBZoTy2AxeAVV1xBp59+uooDXBfo7ler7c/s+VBCKvj5UPKgUGIfDfyzIgpCNhqV2Ce0+EVbSW3/WPSTxvZHu4cSF/EEww8ZZrY/ME2bSHRxP6gpfVmkQoI8E+K0FIFcYG12pe0uaOpfPIlgkR9/0PjhQZoNDfz5zEpWPmSbbaBj4UVOmTKFttlmG9pqq63a0/i1sloLWAtYC9TUAtBrmDhxYvJfyH/iwSCxIQbf1wsJsf1xfYgQxwqiGpjDBsJ5fb0QgGZIadIPw/MrzzZC8r4yf0eI+A3bsAFclCv2LMLfGmuskTpCiGEpniU1UoB5iMqAbW0SU21K35JegBH+4vK+kydPNvCvyYXYTdYC1gLtsQUY/CdNmmRn/h35zN/A38C/PTooK7O1gLVA87SAgX/hCDuUubPDEP4M/A38m8eF2FOtBawF2mMLGPgb+Cezn86e0te2/duj+7IyWwtYC9TaAgb+nQT8HQtx6aJFi9REMnk1q2NhCAiX85NMoGOGGPewq4VZsM5ASHf/008/TZFP+HrYkgSJam1cc801tNNOOxnhr1ZPYvdZC1gLtKsWAPiPGzcuUfrjcDTN50LxFGQ/mVgrlj9AI9zFcoTABnDDJwOyXw8l3dFshPIj4MXABhKp+c+LXR9L7IPnhdqqe/fuFYQ/DWPxjFj+nFBkRChZVMhGF8cerIjzZ2BEA2gJFVB5fO8z7pkljwbUWJuSic9hDvizUTZknD/bQGNqbH+un18PjnJgtv+0adMSzWtj+7cr/2WFtRawFqixBQD+F1xwAY0fPz4BIfhRKYOORyOuHAnC/Kx+0n9yEZihz/jg+9wsGwgn9HegYzZ8tr9vA99rtrkeCCf0MYJD2mWOAmCGH9WWxwbCCf0Jhh82rwkJMduff+NIg5C2v0zexTge2sG3xD4ZiX1s279GD2K3WQtYC7TLFrBt/06y7W+Ev5Yl/D3zzDOJXDBEj+zTMVsAqVQxy//BD36g7oJ1zFpbrTpKCxj4G/gb4c+JKjRy5f/888/THXfcQQcffHCKm9BRnIbVo9AC2NqDOAk00s877zxrFmuBdtUCBv6dBPw1hb/mOPOXCn+hM3+MEpwBMa9AkjCYbKGRPaSEcOjMn7+v5sy/UQp/sHnGGWfQ2LFjCStD+3T8FrjpppsSBbRddtml41fWathhWkBT+NNkeaEoh/N4qfCn+Wg+88dzJCcspr4HG1D4y3Pmz3w0eR7PPC6pDgsbvXv3Vs/8JbfNV/iTxL6Ywh9sQEVQO/PX1HI1LQHfdj0Kf3gOPl2Q2GfBggXJNqX/0Zj4zLLEn5JRyROGahP7hJj4XLAQ258jCrTKa4Q/fp5/vV8P2RG53lyPyy67jL71rW81hPB35JFH0pVXXtlhnIRVJN4Cd999d5IUatiwYdZU1gLtpgUA/hdeeCFNmDAhyvaHXj0S+0jwh3/VGOmc+yUBHpFGnb+TwAwbIW3/EAYxKEsidyx/gNT2j0WihfLLMDbJ+uHfqMdqq62WAv8QZvLiNG8eBJnYJ4ZzyTtyFVkqWYIorKbtzw/DylybEXHSAQ2YQ9r+sCWZ+CENf3zPYSR82BWTAAAgAElEQVR5Vv546RLkuX6Sxco2uOGx8h80aJCBf7txXW2noAb+beddWEmqbwEGf2j7+9lPtRVzaOUv/Sqww0+645cG32s+GtdgxQzw93XuQ/jANth3y4iCmA258o/lkWFtf9ke2MHg3QXZ2trKn23I/Dm8wseOQB4bmGD06dMnZTqUoycBfyP8tRzhz1b+1TugjnBlWwV/pBf96KOPOkITd4g69OvXr03Vw878O8mZv4G/gX+b8jwdqDBtEfwhBALuyde//vUO1NLttyovvPACrbXWWklMfVv5GPgb+Bvbv8Fsf1v5txX31jLlaIvgD7Gt888/ny666KKWaQSzEm2BO++8k1566aUkVSvIwG3hY+Bv4G/gb+DfFnxRuy2DgX+7fXUtVnCAP45g+vfvT3fddVebmAAY+HcS8HchBRVs/xATHyOCf9P0i2Pa/loYHj9PkvdCetIxnWk8q1q2P66t1gbY/o2S97WVf4v51DZhyMC/TbyGNl0IBv999tmHXn311TYxAWB53yy2P7gjYPv78r6xKC4t8op9MRPbJMENNhAuqyWYkxiUhU2wpeEWbCCcUOYo4Kg2vwPFotpi+AcbIBVqUWehvDOhHAWh3DaS7c9tizJLwntC+HNMyyDbHxf4DQKjvuaxfFHM9pffoxDoUGBt+h8tnIJt4DcZBRALgdDAH9+hvPiEQvqyQv2mTp1qbP827T7bbuEM/Nvuu2krJfPBH2VqCxMAZvsj3C/kP1FWsMvB9pfgHwqFYzY8fC5PBPAcjgLQIrhCoX6wIfEBz4IN1uP3bcSSB8EGgFkmD4rZkAz9auqBOH8Z4qjhHJ6FiAIZ/497uQ01jMUEAzb4g2v8qAU5iTG2fwtq+9vKv6243JYph4F/y7Rze7YiwR91eeWVV+iee+6hMWPGtErVbNu/k2z7G9vf2P6t4mE6gVED/07wkuusogb+rT0BMPA38DfCnxH+6nRtnft2A//O/f6rqX0I/FtzAmDgb+Bv4G/gX43/smsCLWDgb10jqwVi4N9aEwAD/04C/pq2fzW6+xoTkbWbNTKCZPujY4f0k6W+Pg+grPwBedn+GguSowBgE3U0bf8s92W/h1rAwN/6RlYLZIF/a0wAqtX2D7H9WYLdx4Esljz7W9leIbZ/KPcLkw3xnGrzB2hs/xgGhWzE8C/E9o/VA8RFzpOA+mThX4jtL9uWiZBBtj9r3GvhD5xxz39RWUx8LasfN7Cm7c+NorEjtYQHKAsETMA+lZMF/Ftj9Vdjw9j+We7Lfjfwtz5QawtUA/549ssvv0z33ntvi5AANba/ttjTsvoxDuB6GdbGjHvpi1nbP2RDZvWLYU1IXz8WUaBl9YvlD+CIAhlyV4u2fyiqDc/Kmz9H0/YP4XgyOXI/Vp3Yh8Pw0JBaGkI/zEIOBi2xDyeNkODP4YTSRizZAuxpuwt5bciEP41K6YvyGdu/VhfZPu+zlX/7fG8tWepqwb8lJwB+St+Q/0R5QuAPfJCJfXB9KOVtVmIfCf4xHEAqXICmDCfktMG8mvbfMeqBjHv+pAQ2QgnsOAwPkxU/nJBtyMkNtxWS7sjFbAhLYcNPZpSAtTuGRv04lFH20xD4y8U6hwBaqJ+F+rWkr+tUtgz8O9XrrqmyecC/pSYAdubfSc78LdTPQv1q8lp2U2YLGPhnNlGnvyAv+LfEBMDA38Df2P7G9u/0zrmeBjDwr6f1Ose9tYA/TwDuu+8+Gj16dMMbysDfwN/Av52AP7KCgezY2T6QslxnnXXabLUN/Nvsq2kzBasV/JtzAmDg30nA35EEli5atIi6deuWGhChMDwON9BIDbHEBosXL6auXbvWZSOWuAEP/vTTT2nFFVcs2chKUBQKs+DwChAjrrnmGtppp51oq622qtthNAfhb968eYQEHAMHDqy7fO3tATfeeCOdeeaZ9J3vfKdNFt3Av02+ljZVqHrAv7kmAAD/cePGJbsKsWRqn3zySeJvZUSYFuqHsoZC4WK6+7AB3JC6+1rSnZgNroeWPwA2gH/+b7Hr/VA/vzNltVX37t0rCH9auDmeyaRJ2VljbbVw4UKCDVmmkI0uoTh/ZlRq2ZRCLEg/cYMstEzsw+Ea+FMmSWC2vwx1YCY+OoL2EmWcP9cBZdFscJiFz8CUNtp6nP/rr7+eTFDOOuusNuXUWqIwxx9/PG222Wa0wQYb0M4779wSJnPZMPDP1Vyd8uJ6wb85JgB+nD98PYOH9LlanD+z5CUjHc/wGff+y8b38MFaCLcW5x+zAZY8bMvFaZYNmdUvhEGoh590x8cOfI82CtVDZvWL2QCrn9n+bINta/VDe8rEPjwZgh2J4/jN2P7tnO3f2cH/7LPPTtKgrr322m1uAmDg3ynxPFelcW6P+P0BAwbkuk9eDIEX+IJLL71UXRjlebht+3eSbX9j+7dvtr+B/9nJtuDNN99M3/jGN2iXXXbJ4+ea9VoD/2Zt3g7z8AcffDAVL15rxW655ZZEBAjjoJ6Pgb+BvxH+2gHhz8C/AP74tLUJgIF/PRBk9+ZtgXPOOScREjPwXzbZ/ZBb8nxcLOXnwZuCyI/PXcBWOQvwSJlibMljG10eg4REjPAeYQMiP/49bEOK+WB7n7f9ZVlZ5CckJLTGGmukuk3IRsLPcz9WrfCHp/I5ujxDR4FDyk64L4/CX0jBKUvhT8r78pkH/pSNFVKuYjlEPreBwt+gQYPaLOHPwL8M/m1tAmDgnxe+7Pp6WqCR4H/hhRfSxIkTE5/O5/GybHkU/vjMH35Vquxl2dDkfWMqgpoCXpa8b7UKf2gDgLzko+H7LHnfahX+8CyeYEjwZ06DxnmrVuGPcbyLM7JU093HBTFGpQTTLCZ+KLGP1EdmuyHbpaQEblUuP6HEPpoNjkzAM+TMzmf7g/A3ePBgA/96vFIz3QvCH878ZRRJW9kBMPBvphdvj1VboJHgf8EFFyRRRDG/HkrsI30qFzYUDcY2NECDjZ49e6YI27HrY0x89vMSUGGjV69eakRBDDvkc2LRbqHEPnkwtgTaDvu05Hnz588nkAr9T6ytkpX/ggULksr7H21lnKXt34iVP9uoJXmQBH/UB8/Bx1b+Hc9jhsAfNW0LEwAD/47X59pyjRoJ/rzyD/lPtANWmkik9pWvfKXULLwDrEVk+dFgviZ+bOUPGwB/yVbniDP5PnhVLnX3s2wANGU4YchGaFUe211APaBLIrX9NZxDnXy2v1/H2O6CZPvHsDSZoBnhzwh/bdmhxcoWA/+2MAEw8G+vPat9lruR4I8t/0mTJiXb/rx40s7KV1111ZS2SqPD8HBWjoWpD/6hpDsMmrztb2f+ZeKi5BUkuxQG/gb+7dPVEWWBf2tPAAz822vPap/lNvAvrJgN/Mv9N0r4M/A38G+frq468G/NCYCBf3vtWe2z3Ab+Bv652P4G/gb+7dPVVQ/+rTUBMPBvrz2rfZbbwN/APxf4Oz38pVJ6F2clPiGDh4L/vbwmdA/fq5HxtCHGz2EWpCwHM/G1ez/66CPq0aNHxU/yniwb/gOmTZtGQ4YMMbZ/G/SH1Wz7+8VuaRKggX+dnWb2KFpv4Ewa9syrNLE+Abw6C9I+bm8k+IPtf/7550crDnY5/K0Wpy75ATHsiBmBDZAKZWg57olhkPzNj+CSmAIbIBVqEWxaPTh3QQibNCzUmPiog4ZzuD9kI6utfLa/j3NadEA0zh8F84UP6mHiywkGKhGKtWfNY5/kwQ3FoRxaZWScP8rPiRA0tj8aWHYqi/NvH44OpcwL/i29A9ApwT8B7Em08bVL6c5D6+tLs0etR2M3fVU8Zzrt1eVs6p97QjCbRq03kJ4/N1au0LOrudeva61lrK+9Ggn+PtsfflTTqw/F+XMCHxm6F2Kq1xLnDxs+NnHLhdj+nFcgJI4D0JQJivJGFNQS5x9j+wP/fJzD331Og+wt1cb58+TCCH+m7V+fx2nFu2sB/5acAHRG8AdgH/D8xq6Zh9OrdaL/7Nmz69a8L3fPvABeT8du/+BvbP9OoPBnZ/525l+Pm2vNe2sF/5aaAHQ+8AfAHkA0axbRAfjT264v7gj80zX+0KFD6a65/emZVyeSu4EGzhyW/H0A+aCJv99Aw5feSekNhPI1I2a4e91EY6hL7HQXXurQa2lpMuEoAP0kGKO+NDLZJfDAn/aiLocRXZs8258U6M+eO/ImGjbzoNKuwfS9utBhicHEaPE5oZW/XxYUZ2Sxro0fOY1c+Rv4G/hXiCtgCwhbK76wA7oxtsux7YFtdE2pSVMR5BhSufWO7zkNob/twccBmnwjyiBVBHnbH7/JLSJOVYnvpfCCn7J48uTJtM0229iZf+N9Vd1PrAf8W2IC0OnAHwA/dtNkxZ/sANAsejU5rC8A4MxhzyT/TsBzbgEE6wb/SRsXwNfjBySTAp5QTHdAfzYmGiNoBm/7Vwv+/GwxQZg+/VA6NJmRhHYTvEmMm9BMd1OMQxPOQvPuCBj4G+EvF+HPVv4G/nWjcCs9oF7wb+4JQGcD/9QZPcA4Wfy7Fb0k7pUAuQHgr+wabDq2C53dvzDRKH9qWPmXnl0J8v7qf2gFv0GCvLYT0fhBY+Bv4J8L/DVtf3TLkIY+vscqXyNOxLSNNTIed3+NvMdsR3+IxHSmcZ0WURDSNo5975fLtP0b76Qa9cQf//jH9PWvf10l/uSx8dxzz9HOO+9MI0aMyHNb5rWdC/wBeIcVtt9Ln+KWOwnWfnsG/00LhEZ3luAmF9i40EiEHvjPwRHDXe5EAkTD9rPy97X98To1H/3OO+8kbH8p7+sz6/3eENP2D2EBbIDtL+V9Q5r4teQPgA2w/SXhrxbdfdRD2/mGDZAK/XaM6e4zaVK2ewxjYQMJijTMlGVK3pHb4laz+jHrPQ/bP6btr7H9NRsoeChzoGTiS++rTTBwDz4a259flHwhPPHA91OnTrWsfpkw1zoXIHwG8p/1fl577TV68cUXk1zojfx0KvD3AJ3X29gJGPj8ue4cftPgtv8A3Mfn78nf5xbP6Ks881dW/hXb/snzx9McBuoEwIshhMnEhKMTxJm/tvJP7n2ezi0dNWiRDQL8k2MHtwOSql8je1rhWY1c+YPtj/9Y21+myIU9sP0h7yvBX4vI4iNYPEcCUS1s/xDWsL4+/L3MH6DZ5nrIrH5cXi3KIZTVLytzoMzqBxtaRAG+5yN0Cf6xiIJq2f6ocwL+DugqwB8GUSgZCsehfiiAjO3EA2MF08Cfz/zleXws1C82wdBS+sZshEL9OIwE9UVKXzvzb7yjaktPnDt3Lt3lSGOnn356Q4vVmcAf2+AVW+3Jdn8aKCXhr0DyK+4YOCLg0LvmFsP4agd/7PZXbsv7W/feNnxfZxP7FUkIYBXgf6h/70gaufEkmllxxCCJi1w/d/3cSRnhhrV3wUaCPwh/nNIXJdLC6vKk9I3hA3ADvjZkQ6b0jaV2RygcOGQS/ENJhULgH1qA4npO7COTB8XS7aKtQil9gaX+RIV5dRJjs0L9YEPb9mf+HPcsC/VzkxvWMTDCX+0OpyPcaeDfwm9R2SVo4RJ0SHONBn9L7PNFctwgd4Z98Pc7EsAfkw7tSBw7lAB/f9cjpLsPXOKsfnLlz3H+Ib2CXGf+Rvgzwl+H9IQ5KmXgn6OxGnGpgX8jWrHiGQb+Rvgz8C8OCwv1axYf0+EeauDf4V5pp6yQgb+Bv4G/gX+ndH61VtrAv9aWs/vaUgsY+Bv45wJ/xxBcumjRIurWrVuqH4PwwJrO/g+1hvotXryYunbtWpeNrFA/l6SIVlxxxZINvh5faKEOWsiitHHNNdfQTjvtZCI/bcnLNbgsBv4NbtAWflxC7iNW92th423IXCPBf9y4cTR69OiE9I0Pzp7l+fMnn3yS+FsZIudHS/nNEwpf4/wrWogcbAA3/DPuWkPkNBzAd7AB/PPtc721MnE0g3z1WW3VvXv3CkE5DWPxXCa2Sxuxtlq4cCHBhv8J4XjyTkOhfsz21+IrNbY/hy2gsTQygmT785Y8/pQKf8z2x/eSjMcNr72UUGIfVDSPwp9vw0L92pB3a6aiGPhXE39eZrn3TWLcWynNXgVfwJV9vTk0PpEHrv1TDksMZyOq5ppyCcK5BJLnlMII9TLns1V4RiPBn0P9OFpKC3lDaBli8P1QP2bJ43rfR3P4mkaIY7Z/yAZi8H0cCim9MkueFWB97ODEPlrIIurRq1evFEagHr7Sq/+WPvvssyTaTU6GYoQ/2Fh99dUr8CyEpSHCX8zG22+/ndiQEy7J9sfvSaifEf6M8Fe7y+wYdxr4V/Ee/bC9Ki5vsUtc8p/ZAwbUBfwoazVgW8011YB/NW1Ty25GI8HftP1N29+0/U3bvxpf1a6vMfDnlT8S8jjFuo1d5LvTPcCnrExXjFXnxDSJYE1Rz6+UUKfwHBc47+53mvvXEh3mBG4QCz8Jl+Lec5+ngcl9nHDH/dV/VslmgsiJAE8hP08xIU5q5a/L5hZAWkv4I7ppyW5fl2zIlZkgSISVv69WWC5nGPz96znRT3HlX9GWxYkGr/z9OnKSIK89Cu1fnTywgb+d+ec687eVv6382zVyN6DwBv5p8J+0ceH8PLU9XSHYU1TIK2bLKyTtmZMI9szlY4EiiKUmEMlEQSj+TXepbwqZcrwVeKUqYCIitOnYYqKeiTTHP+v3lAI3BfgrCX/SJxUFwHbSf2VwTepdsPt8IvpTnJgUFfqSJESJYqF/NJBOWlRus0IioUnkTVqKSoZJ+RLw35TGuslS/yTrYHr3wV/5p3YBfEVE0fcN/A38c4G/Ow9Q5X1xThBSwNPOQvjMX2bJ4/5Zi7yvlnGPSXqa1rSm8Id6sJiPP1Zi9fNtQOFv0KBBRvhrAMi21UcY+KfBn7PvJStylqb1wV+cu5dXxOQBKq/otdS5BQW+lCJgxU4CnlUGxlLf0bL0JVgcUucL8BkEiMo6aDkKCimEJfiL55faqSAnXGpLrXzJRktxZ6NUwcLOgat8kcQoJiORzICNBH+c+Wcp/OEce+WVV64gWQMftDN/X/5WO4/XuGKwIc/8Q1jD30vbaFo+8w/ZgO6+JBWG1GRD8r4xhb/QmT9s+HwGlJW5C1JgiOuh1Q+/heR9NRtJjgAtsY8vNShBNsS0zGLiy3S7KGwoSQEzFCU5I8vGRx99lCSa4E/oej8KQLJY5T2W2KetQnbjymXg35rgX0iOwyvk8uq6NcFfmXSkdiX8lX+94F+UP644kWhd8PcT+yTkMIXtD4IZ/K0WYaX5Vd/fV5vgBjaQP0AjnmtlqiV5EGxAQlhL7JPXRqytMMHQIgo0G1kRBaHkQbkS+0DbX8sGxPnuJROfWZDabCWUjAD9+t13300a2AdmXpVXayPEJOVn5tH25/qFdhc4CYRp+zcOZNvqkwz8c4J/KkWvv+1d2PYvbKVXu/L3M+MVz7a97XdeOZe2voffUN22v5LwJ8+2Px99FPgIhd2LZLu+4dv+5WMS/5jFP9JorW3/rJU/JGuxKq+G7Y+xH2KqxyIKYAO44evcc+SAjAZjG8z29/1NjO0PG2DJ+yv/GNuf5X21pDuhaDfYwJa8JiVf7cqftf1DEsLVavvz7oKx/Ze1M/+aQDlFVCo/oTK3uf/0akLKaipNXTcZ+OcEf7R2kPCXF/wHFM75J4HW58h1IzemSTOLWfBSxLsika5awl8m+Pt1aD7C30xH+HPsx4S0yGOjkkvBW/9MFiye/7s2McLfvCQMzwfILGDWQv144qGF+gGYsWL2V/6su2/a/kXXylviaEh/tsdb+Lzy17YktJU/z/jkyh/fc2yiP1MKxXey55dHCybvWxcmxm9Orf6qtFPLPVU+up7LDPzraT27N28L5AsZrP7pjTzzt1A/C/WzUD8L9dO9TwaQl1dziNICE7x4tpss8IoMaG1lV72va9iVBv4Na0p7UEYL8LiI75DV1owG/sb2z8X2t1A/2/avydVo2/4c751iUnshVZsiblsLEStu/WaontVUzipuMvCvopHskjbfAgb+Bv65wN9p7i+VYXi81e6z/mXPxzUyKiB2/YcffpiEhfCH75fPwe/V/KaNxI8//phWWmmlChvataE6Shbq5ZdfTkOGDLFQP9mIkZW/3NYshXWNmOGBf4glfSeFBVabx/8a+DdPu9pTW7YFGgn+EyZMoPPPPz/qS+fPn5+w/X0ynu+//dpX49M1LIANsP2lPLtmR7tflgH/ljgFGyAVasfVIZwL2Qp9Dxtg+1fzibVV7P4FCxYk/Ait3TX87qKx/dE4IFXE4vxDbH+NaQnD8swf34UiCvhsX9pgtn9IS6AWtr8WacCJKdAZjO0f6G4G/pnj+O677yYktBo2bFjmtS11AcYInPpFF13UUibNTgu1QCPBH2f+1bD9Acwy1E+L80cThNj+sRh8kPFChD8Na0Kx9o1i+/sx+MAHfyIR092vhe2vTaqQVwD11vQKqmX7Y3KRhETatr9t+9fkm2Jn/rbtnzSpgX9NPctuqrEFGg3+kyZNShZo+GhJdwBoEvyZiS+B2U+6I4ErltgnBv5aqB/C8IztX+5AHLUgJxIG/m6HQ4vz9xUMJxvhT3dFuQl/yLlW1EA3wl+N7r3+29rPyt/PihcKEa0zdLTEW/HyDFTVxGlJ36puaYGLDPztzD/Xmb+t/G3l3wJ+qU2bsDP/tvh6wilxy6WtD/xrD7kz8Mc7sJX/MqmBk7Xt36dPnxSvILQqxy5JKKUv72zk2fbHYtZW/t6riin82cq/LYJB85XJwL9BbVsU4Ell8XMxntjzSWXo4+x1RZ36UhZA1rRPkv4NdV+7vyQJdnyQ9zLcuVR8Q++aW0qMowsPFfII3DC8qDrIVfVEigqhqAOS6zhRIX+Hy/3vfdEdTcDHVbQgV5ykIkQ9OKy1QW0ceYyt/G3ln2vl7wgESyUZjwkB6GdaAh3WL5b9MPQ9rtPIeLHhgGdJQgWuj9mQ2v5Z11djY9q0aTR48GBj+ze/72o1Cwb+DWr6VBY/KfurZa8rJAJKZwEsJgIqbslvnEgFB5L2JPbm0khkxaNwGGmodv7KP70L4E025pTlfQ8VSXtS+QhKKXqnuynNoXRoMuOpb2ci71tpJPhD23/8+PFJEUI+F7LwYPtLwTfteuAIVroaoz5WT9gAr0ASs2MYFMMtDVNgA2x/mdinFvwL3aNJ6MfalknnefqAFlHAhEQNx7u4Ve5SGSLALwoF8EMseFLAK2NZMM6CpBU4lNUPhfMbPWSbGwodSAv7wO8ynBDf4Xp85DZJKNsfJxXi66dOnWpZ/fL0wHZ4rYF/g15aKNvf+DkuxFPLXjecbvByAaQ07Isr6EJq3YD8sA+uAGnOQOiqU82Wvn+Nv7rn1sDqfxYdkKnnn8p+mNzsr/7z8glqfxeNBH9k9cN/If+JUiKL3CqrrFIB/sz217TvWZfeZ8n72f5k7bWsfrgmhDUgDzLhT9rQSItcj1BWPznpwPVso9r6sQ3kD5Da/qxkK8MPQ5kDQ7ZhAwmKYIM/jNcaZiaTJ+3MnxsXQCjD7fAgFABnCDIm3m94+RLlBIOld/GnbGAO9ZNszqzEPtXK+7LtUP04pS9miUb4q90ZtZc7Dfwb9Kai4K9lr/MEoJy4Q2uDfyrFcLFJ9EmEOPP3653a/Wi/K//mkvdl8PexI4vtLxP78Fk58MHfSYhFFABMca22cNS0/YEBKFdI21/iH7pL7DweNtrSmX8Q/DnOn2cl7BrwPTewafvnd5hHHnkkXXnllflvjNzx+uuv0zXXXENnnXVWQ5/bmR5m4N+gt+1vww+ozPbH2/vlxDab0thQFsDW2PaftHGSve/QYlRKkp2Q5LY/FCpnER0wkDjjYGrlXzERKB5LJMcAzftp5Mq/ucBfi1HPAn9L7FPuN0b4cyIH2tlRtSt/3tnARMZC/ZrXIbWHpxv4N+gtFcG/b99/0j9TORzc81Ny0Jy9Lr3yRylK2+/NTfhLipRO0Rsi/IXyVKjg7+erGDqSRs6dROWjixtoeDK5aJ6Pgb8R/nIR/izUz0L9mscVtZ+nGvg36F2lxJ0a9MwO9JjZo0bRHKecZ+DflHqrtvJfIdUeFurnuAXyvMVS+lZ6Qtv2rx8dDPzrb8PkCQb+kYZ0xyCj5jjJ3OaCfiJb+dvKP9fK37Eply5atIi6deuW6riS9c4/Mh9AExlIJANdSIcWVgCN865du9ZlgzkHIRuffvpphc40syjlMUGoHtIGztN32mknC/VrED60xccY+LfFt2JlytsCjQT/cePG0ejRoxMNeHw0n/vJJ58k/tYn0bFfhb+VOMChftr3+E47yoUN4IYMw+MwbdlGIRtcj5AN4J//W+x62AjhX6ytunfvXsH2l9FuXJ9QNANsh9pq4cKFBBv+J4TjSTlrSezDbH9phAusNXDexD6aKhEaKhZRILUEcD2eg8aSLE98z4mLtPAL5gJYYp+8Lqj9XW/g3/7emZW4sgUaCf6c2CdrS17T9mdwlDgQUsBjH60BKljyku3P+QNC2v4yCgAtlZXYZ7XVVkthRCjijLfksStdbf1gP29iHyTw8RMm8aSiEYl98CzT9jfCn/lQ1wIG/p2sG3TQ44lGg78l9vkiGOpXC/i3pVA/A38D/07m9fXqGvg3oBuIGP8GPDH1iGpEe3SblbH20/daj+aMd6qAzRB+V3s5628xA38788915m9sf2P71+922vcTDPwb8P6aGfwbUMLiI2bT7NkDaEAzAD8MpIWKGlfqap5k4G/gnwv83dnGUqkJzKQ3nHtI9b3QeUvsHAYdV575MzGEY+25c/sCQyGFPxmbz/dqZ/5MeNDO/LU4f9SZZY3BBcCZ/6BBg4zwV433aafXGPjX+OK82P2hLsnOXXP70zPFRD56zHwxpXPRXCFJjvuHrwHAiXCSyQQlyX3u2vhaeqb/2UWZXeQDcPMyrVYAACAASURBVHkCRm5MkyYlGYAK2v4Ac+05Ql+/Mmbf3ejbkvoEwabx61IsQ5IHAGVy5U7q1rIyv40Ef0j74tyfz+M1At+bb76ZyPv6Z9PMs8L5vVTf82V/fZ5V7MwfNnDm7yvNsg2JAzFOGM78ZZn41cIG5H0lcZE5bJKgGJPeRZ1DGfew7S/5ZbAhVXRZSE9Gu6G8sM3yxbJrQgoZNvwP47K0kWz7a4l9cDOz5DXmfijpQOweKcDDNrTnx35LZAkdKGufWhL7yGfJOlhinxqBoR3dZuBfy8tKS9wmYD+3kMHOpbXz9PBFUp7nz6WlQPzSTsEImuGy4LFgDp6TyOxuOractMfhc3k7vZAM6K6h1ybPKasFBp4zcU5hsoAJgp+kp0LFj5X4KoWHKltHpBv2dj3moB1Ils1lNmyBnZFGgn+jE/tk+XT8rvl1JMTBBEOCf+j6WrApb2KfWm1ggiEl8RtdDxAX/U8Mk1Vt/5C8Lx6KimP2oWn786xEm/nkZftLaWG2HWKS4vc8Cn+YCaKecneBV/48SzRt/1qAoX3dY+Bfw/tKVtmQui2uuiUAFhbApU+SInfEjFKCn9KqP5T5TpDy0uBfzhBYWO0jbwCSBHnflywHJh/u9/REo5hNMJVQKNQu6R2MwlWF1f+mY8vgX3p+c5ALlKI1EvyrlfcFMPsh3LzS1FanIWnarIgCKe/L2v6a7n4Ig1jbX0vuo2n7x2ygHmzbB3Oun7ZLorH9s2zkzR+AHQy57Y+dBdjBs/hTCme3M38786/B9XeoWwz8a3idGeCvJckp4zFvj0PmNwDabR78tYlG+sy/M4C/FuqnhXzzVrZp+y9TGgYM/j4w40dT+DOFv6o8sin8VdVM0YsM/Gtpw4xtfyVJzvg567kEubPoVayESyv28TRHbPsn2+bDb3Db/rwar9z2r0wSVLntX9h+L3IEMrf986z8i2f5jotQOsIoltWdMYS3/b361NLiWfe0xsrfwL/8VkI6BriirWX1s1A/C/XL8ied4ncD/xpfc27Cn0+AY1IcbPvb6MWkP9GV/2E0t29flzwoYeeVCX/ac6ol/JWAOX2ej9X7DcOLxMRUMymEP+YmTPpnkfDnJSpy9/JRR/iZNb6H4m0G/sb2z8X2z7Ptjz4WO/NnRqV25r9gwQLC2Y1/7oBtDz5397t9SF0Jthtx5g+bfLYvWZB25l+fA2qPdxv4t6e3Vg0hr4H1cROcUXMmUjNK8jessK0B/u3tzF9GffGqXCr8AWs0JduYwl+7O/N3mvtL33vvPerZs2fDOqH2oA8//JBWXnnlZrXx8ccf00orrdRQG5dffjkNGTLEQv0a2qpt62EG/m3rfcRL07Lg39yZ+BrZ8o0E/wkTJtD5558fLR5CxHv06JEikzWyPngWbAA35CKtkXZgA/inLVobZQc2sPgNRao1wo5cYGc9Mxfbn1mCONv4yle+kno2z5Q0XWVcqMX5gxiCj9QSYIaiZfXLen1Eduaf3UZZVxj4Z7WQ/d4eWqCR4F8t29/O/Ms9w878l1tOzc5k4E905JFH0pVXXtlQP2LgX39zGvjX34b2hNZvAQN/O/NvtjN/W/nXN8AN/Otrv+a628C/uVrWntuSLWDgb+Bv4F8ccUzswz+rlfeVMsUm8tOS7qt1bBn4t067m9XGtoCBv4F/Q8BfY8Oz8h+zIDWd4pDucIjtD7CV0o3M6te0/TUBCR5CUuGPnxPiFeB3U/hrrANqj08z8G+Pb83KLFugucAffl/TxUfsujzzZ9yQGvcs8oPnSJW9LIU/aPv7QjghFUG2wT7dx6daFP44t42U5GWFPz93Ad4FvkfdQhEFLZ3Sl/EamCmFhEra/hrbX9MERiNwohxZcVQ+prsvk+7w9fjTb1y2Ib/njp5H25/roD0rpnns/2ba/h3fyRr4d/x33Blq2EjwZ23/mA+FJj7Y/pL8HfKt/D2ww39uzBfDBiYYkhTeaBtg+8vEPiEMSoDTYWFWXhi/z6EejdL2D0UMyAR9WVjaJZTVDxXklbFfiawY/FDGvWqz+sGWzKzH9nklX29WPz4OCGkMWFa/zuAqy3U08O9c77uj1raR4F9rVj/GDQB8KKufXDhmZQ6UWf1Cei/w59hF0HafWYNGA20tq18Ia9iG3DFGn8qyEcrqJ5/FOxjNmdUvWUTnEfkxwl99bsMIf/W1X3PdbeDfXC1rz23JFmgk+Fuo35dJOmMteVBo299C/SzULzjeDfxb0hVWb8vAv/q2sivbbgsY+BvhryGEP972kGQ83pIwkZ/8TsDAP3+btcQdBv4t0cpmo7lbwMDfwN/AvzjKOkuo3yWXXEL/8z//09y+pcM+Hwlinn32WRo9enRD63j33XeTk8+mYcOGNfS59TwMxFvItl500UX1PMbubYMtYOBv4G/g34nAH+dPV199NSGvgX1qawEQdXbbbTfacssta3tA4C4D/4Y2pz0sowUM/A38c4G/C0FYunDhQurevXupa3F8IL7wkx1weAXY+DKWkVfZkuXJD120aBF169atKhtsX9oIMUn5oVhlde3atWSDrwfDU9aDyYsymQPfw7GoANYdd9yxzSb2MY/YdlvAwL/tvpuOWLJGgv95551HY8aMSSKv8IEPlSz9jz76KPG3fhie9J9+O+NZzLb3w9XYBp4vw9hgA7jhY0HMBkh6/Jw8NoB/PhZwxlmpSYD6wAZf69uIRS2gHl/96ldTbRiyAWxiPRtue/zJGCvxjNtYJrbLwnFj+y+7bKrDtTeFv47oxDpKnQz8O8qbbB/1aCT4G9vf2P4V6ntG+KvdETQH4a/20tidzd0CBv7N3cL2fL8FDPxt2z/Xtr/F+dvK31xo87SAgX/ztKs9VW8BA38D/7rBn881pO4+vsc5RWtr+7M+tBwCUts/pOTH33cEbX9zhG23BQz82+676Yglay7wh79sb9r+kp9Qi7Z/XpGfdqftD3lf6A6vttpqpfHARAEp78skOTSKlnQHEwOtk+DB1cr7+raljG8W4U/mD+Bn4U+p28xkC82GX48pU6bQoEGDjPDXEb1lM9fJwL+ZG9gen2qBRoJ/tfK+K6+8cgXJGv5TS+zDZDxJ7MP3+GjkOkjv5pX3ZQzyyXhYsDIZXZIKQ/K+IZwLJZdjhT+NuAgbq6++eorwJ/ll/DIbJe/r47Wv1wM7mYl9ZCPh3/xALblAKNkCjIUS+4RsoHB5kweBUYlEE/5HK1NWwgP//rae2Mf8X9ttAQP/tvtuOmLJGgn+MrGP5u+xaAT4y4xxiW68wwr5YZ/OOOKDHf4esiET+8RwJmQj9r5Rj169eql4I8uK53D9tN+4HlxGthtL7CMTHeG5vAD1n5OFW1piHw2vuZ2N7W9s/47oB9tEnQz828Rr6DSFaCT4G9vf2P7G9p88mbbZZhvb9u80LrRxFTXwb1xb2pOyW8DA3wh/dRP++KwcWw+m7W/gn+127AqtBQz8rV+0ZAsY+Bv4G/gXR1xn0PZvSeditvK1gIF/vvayq+trAQN/A/9c4O8IEkslUSDE9kfXBKGCQ/38rsqShPWy/fFM7DjIXQe2HYso0Nj+LB0ppYLxPepSDdvftv3rc0qd9W4D/8765lun3o0Gf5z7x2RuwWAHGc/P8MrZYDUcCOW7B56wZK3GxO/Zs2eKVMg2pO9Gq8MGvpdk8SwbvXv3TkWEMQbJqLYsJn4oDB1t1adPnxSpMYRzIRtoG4QTavVD3d96663Ehv+J2ejy6aefLn3vvfcIDSzBXGNf4hqNzRliePIzNbZ/6Fm1fI97NLZ/aBjGGKP+b2D7DxkyxM78W8eftWurBv7t+vW1u8I3EvzB9kf2x9gHDHZEV/ngH/OrMV8cwhrYkGx/fk5eHAphFGwgnFDmecnCNFmfWN01tn8tOBcr04IFC5KoBa1cWvsa29/Y/u3OybWXAhv4t5c31THK2UjwN7a/sf2N8Gds/47hGVuhFm0V/E877TQ64ogjWqFFzGRztsANN9xAo0aNom984xt1mcFOsIG/gb+Bv4F/XY6kM9/cFsEf24b3339/cj5on47VAti63mOPPSq2r/PW0sC/wDvLK+8b4jSg/efNm5ecx/tcBLahiSThbB/fy+16PvOXRxSwAV5BLsKfcwZBeV8L9etCkw388/oOu77YAm0R/O3lWAtktYCBfycBf7D9pbY/Ogez4cF29D/M9kf8vz8raRTb3480yGLiy04cSuzDTFL/+lD9ZBQAtP2N7Z/lLux3rQUM/K1ftMcWYPDH1j9Wv/CfIb36VVZZhVZcccVSNUNMfPh1MO5r0d3XtP013X22EWL7y3wDXOiYtr/UxMc9WH0DF7XkQTG2v9T2DzHx2YbEWHwf213Q2P6cP0DWIyEOfvbZZxVsf9YQzqPtn6U73Bra/qFcBH5Zpa6yHKyN1PYfO3YsjRs3ru5tufboUDpjme+7777EeQ4dOrQzVt/q3E5bAOAvtf01P9metP2zmPga2x+vL6TtH8MN7R5tgY3no1zaswDamEjIHAGxesiQfe5+oQiBLtrKP6bw52cikucXmMmEYhBlVj/O0Adb/u6Cb1s+i1flIS0BufIP2fC/l7sL0kYjV/6//e1vk3OfPffcs526BSt2nhY466yz6Ic//CH17ds3z212rbVAq7aAXPmjMJwRzy8YzrGx8u/atWtq5Y8Jr1wBM25oK39OtxuyAWD2z8X5WRIf6rGBOH8fh2I2sIPB8f/+AplT+mrZCbUz/5hmDp6F1bqPsf7uiXbmL1f+jKV4H3774ftkQmBn/sumji9kmsVGnvljhFx99dX0r3/9S81g1aoj3ow3rAUQ+4yJ6HHHHZdKld0wA/Yga4FmbAE78+8kZ/4G/i0L/hiz2AJy4krNOHzt0a3ZAphVr7baaqkVUWuWx2xbC+RpAQN/A/8KiV3eLsA2ja/qhI7FWxgaEQK/y21/JgjiN0kqxDYFRxr42ypMkAgdLYQIf7Ah5X1hA2XQSIU+maTRK/88g9CutRawFrAWaOkWMPA38DfwdyxXA/+Wdj1mz1rAWqA1W8DA38DfwN/AvzV9kNm2FrAWaIUWMPDvJODvkgEs/eSTT+irX/1qqZsxS5C3xfkHDjPgzHoyzh/fa4xN3L9w4ULq3r17hQ184TMX+WgBf0pGI44WOGxBxljiOYsXL06ds3I9OE7VH0fM+JfHAdLGVVddRTvssENDEvu0wjg2k9YC1gLWArlaAOB/3nnn0c9+9rPkOJfD0WTo94cffpj4Wz+GPOajgQ94Bv/HhQp9j99hA7jh+2n23ZJVj3IyNuFev7wxvQLYAP75eBPCBz6u5vJoNjQmPmyACOxfn9cG10/TrUF9tcR2/D4kxibtY4S/lif85RqJdrG1gLWAtUALtoCt/DvJyt/A38C/Bf2KmbIWsBZo4y1g4G/gb2f+dubfxt2UFc9awFqg0S1g4G/gr4K/rxUsz/xZu1k786g21M9XJZLaxiHVJe78WqgfznrwkSqCHOrHSk3++ZOvVGhs/0a7FnuetYC1QFtuAR/84dPx0VRV8yj8+ep0Mk8AK/yFlPGkwl8o5Bs2fN19H5+ybECXQ/IKtPwBwCA8S6rvoY3aWlY/5gigvWTmQNSji/shmNUPF0jQ9AkPPumOEzqEkic4YiH16tWr1Oe5YPjCb3Rf3lcCM9uoVt43Rlz0yRZSS4B1lVEXyPsOGjTICH9t2VtZ2awFrAUa1gIA/wsvvJDqSewjfXQM/DHBYBKbJBUi6U7Pnj1T4BWSefcXh5JUCBtMRtdsAJt8rIvZCMn7ZtkIJfbRcA7PCiXPC2FsSN43lJ23i5utLNWAmZn9UlsYPQyN/P/b+xZgO6sqzRXGsUPeQcRJIkSlym4pEwZbk9CItrQYC+PMoChMDIVYYSgLcBjH9kKAlhaScG1ERSQPQygkPNItAk58UBYIONVjK9BAZnx1qYVCQULkkQekZKYz//cn380+6661//Pfe88595yzTlW88p//7LX32nuvbz++tZZevVUx8TGg0In8eKz+9LmWQTC3MkyhXDAqZ8yY0SCjXOEcyEplya5qx7p162TRokUB/mNmWqKg0EBoYDxrgOC/atWqIba/5TH1zDPPlPY2Dfjm2Whu9mhv9YbL8gKAjiDjsMMOMz0KcviA32pmPZ9p8IcMnC7onb/l5ZC2Q3ucAWtyMpA/QG+YrfdTrwVdV3pGWN5uaAcWGFUYi+9Lr7kg/AXhbzwboqhbaCA00F4NxJ1/3PkH4S8If+21OiEtNBAa6LgGAvwD/AP8A/w7boiiAqGB0EB7NRDgH+Af4B/g316rE9JCA6GBjmsgwL9PwB9s/+3btwvICOnHCj0I8kHqZqFd/eAa4THxNeEPslCWDiGM52T164x79DTwZDz//PMyc+bMBsIDSRja/TAnm4TGYPt33A5FBUIDoYE2ayBl+8NO4mORrMEuh71NCX852+25gjP0ruUiDhkgiusQwvTIstzNgRsoi6R11B8yvNDzkAG2vyb8oe064yzKgkufZujjOdtnkfEgA+6EloecJQMui5rtT9lom6UrTfhLsVTLKAl/e/fu3ad98PEjsu6thhAc0zGZex/vWT74/L1mNLLT9HPWC3+t76zYxl5ZVc8pY/369XL88ccH27/NBijEhQZCA53RAMB/9erVsnLlyiEAteytx/b37HOzNjdtNWQA/DV40YtL18vCJoKgdv+jHIvtny4cmpVRAmqxQbY+kAHw14sVehTo3+Ta57XD2sTncDnY/sUqUbuEpMEdIshPZwxQSA0NhAY6o4E49u+TY/9w9Qvw74yJCamhgdDAeNRAgH+AfxD+gvA3Hm1T1Ck0EBpooQYC/AP8A/wD/FtoYqLo0EBoYDxqIMC/T8C/IBa4sf2tmMBeYh8+95iIVmIfMklbGdvfk5Gy/ati+y9YsCAIf+PRSkWdQgOhgTHXAMGfsf0hwEq6g7j7YPsfeuihQ3Xw8q8wtj/j0qc2l8nXPBlWbP80+RqFQwaY+MAT7Z1QFXcf3m4pDnnJg9LEPpp4l0vsA115sf1TTwa0Be0A2x/JeOokz4OM2bNnD/VFmicnlUES4IRCiMn2p4tcyvZHRegCaLkaeAxF1Ea74bGR+Gux/S0WZI6BiXJ0bH/K8MpqRgZi+wfbf8ztSxQYGggNjFMNkO3P2P45lrwV25+sd4slb5WV8+6yYvsPgVeBR54M4FaKFznWO2TA1S/FtNz7WBjUxb+6bP+RyNi2bVvpUZB+smx/b+fPnbHO6pf6cWqfRazguOrS49rL6ofKeTKq0u1qGZafv9eO8bTzf/zxx+U3v/nNODUFUa1mNLB48eKGHVAzv4l3QgPjUQPpzj+XcS+X0lfjAHflPBlOQbtKhk7pm2bv0xiEsrydP2Smu3vqHu2wUvoye59Obpf6+aftGOuUvjptcHqyYS0+au/8g+3febb/+eefLyeeeGJDsIzxaBSiTrYGbr/99jIF6ty5c0NFoYGu10Dc+ffJnX+A//gAf4DHlClTut5w9GMDLr/8cjn77LMD/Pux83uwzQH+Af7B9m8T2x87/wD/7rWiAf7d23dR8+EaCPAP8A/wD/AP29iEBgL8m1BSvNI1GgjwD/AP8A/w7xqD1cmKBvh3Uvshe6w1EODfJ+BfdPS+nTt3yrRp04bGEP0D8UCzCvEdY9/rQZfLnLR79+6GO+2cDCujIGTxN2BYWgmH9uzZI5MnT25oB909NGOTLhBW+5gcAnJuvPFGefe7391SP/849h9r89Xe8gL826vvkNZaDQD8r7zySrnsssvKDSA+VlY/uFZPmjRpWMY9ulBrNzxmfdXPq2SAC6Uz7llZ/VBPTwYzB3rtAP5pzwG0w2LV52R4mQOhq+nTpze4JnqZZdEOei1YOszJgOslP8RL/NVeDqU7ZhD+gvDXWlPS+6UH+Pd+H/dTC2Pn3yc7/wD/AP9+MmytaGuAfyu0GmV2SgMB/gH+cecfd/6dsj9dJTfAv6u6KypboYEA/z4Hf9xH4F5FxwRmdCVE3/OiK1n3JF6EP0sG4ypDto67b8V05ljGoEUc6PTOg3GjdRRBtk9HEcT7vOtB+66//nppdWz/dt35PzbwNvnow2+Ut06HhubIR750rZxx1AFtPTYgA1sH5azfrZKfr1gh/+4zn5Fnrr5aPlxpKh+TgSW3ytItg3Ksevdnf/uXcuHey2Tt6r+SN1WWU+eFO2TVqrfIihXHFD/6R/lv77tbPlbIf/ur65Qxdu8G+I+dLqOkzmsgBX/cPeMDm655ViOJ8JeLvmfF9ocMHeEPtpu8M41BjL6n7/bx3MorgLZZEf4oQ2MQY/sDNzTOUYYXRXDWrFkNOkQbIAcx/NMP8MeK7Y939u7dW0bErRPhD3K0jDIUf/HFvu3btwsSG6SgSdJdCpr4Pg3vmwIz3/fICBqYUZZFeEhJCnowVMmwwvviN5rwQBn4zmofY1OjLWvXrpWFCxf2BOHvsYElcuvSLTKYovT2O+W/nr5Gth0zQWYff49c+Krb5fdn/Knc+aYPy9ZL75Cbj/y+XPTl++TJ13xQVm34lBzxrWvluu/fIf96zgNy9QnoRYL/f5DHPvtduf/Rf5QdS/5OvvnRZ+WiJZfJ//nwFbLh5H+RS1bcI8+95cPyxb/7hBw6VMYqmX/3d+W7xW9ed9qZMvnu2+WXi1fJbZ96u7zwg9UNcuc/fq0sRxnvWC4bVx4h991+pJxxxkS585JPyIafHiYL//pq+Zs/vU+uve4X8sNH75PZn/ymfO3Ug2O6lSY1wL+V2o2y260B2GrEHcE/kvE8sDnssMMaIpN6Nho2FWURlHViH5K4NcENIWsB/ukmNCeDZDy9UMkR/iBDJ/YhsR1AbiXX0ZtG9BEWSsQsqx0AfwszNc5BNkML63IowyK8I38Akgeln3STmz4vwb9YrezTu3KCPP5qIexEiz2YsuT1gH3uuecEAyVdYFhMfHxPcLYGXDqAtAwrsY+XbIiLAr1CpGw+R2KfRYsW9Qj4z5P33f0qmV0m4XqPrP7nq2THx86WyTfeIh/4zuly9p7N8tmtA7J1cFBkyRKRLbfLsff+b5n550fK3vVXyNcXr5Wlt+oFBMF/nlxe/GTzlg/I+nOvkhPXFWUMoKylsvX0u+W/bP4bOfLOj8np266Ty3975oFFyCZZsviP8q175stFH/qunPetC+R75W8vk0Ma5K6QGau+LCdvvkaOvv8ueezY3fK9q+bJFfO+IGdPvlFuOfX38vklX5L3rpwsq25dKlsGn5dzz31S1q1b1ha7GeDfFjWHkDZpgOCPxD65xDBPP/20gF2us/p5bH/YbstTi0nkrKQ/kIHTXOsE2mLue0x8K1Ed1QkZSOxjZZetw/b32gc5kIH8AXU8CqwThJwMK7EPcc7yagu2v1rZpdcaGIy9deyvgft5ue6Mi+Stt6+Tv3zo0/LpX1wjZzWA//Xyh1P+s/zs5AvkQy/eL/edCvDfvzg4CKsHwf/WgXkyWBwrbCpAfx4WECX4nyjfO3273Lj5E/LqQsaSu5bLylduOlDGpuIV/Aavbi3+Ljvw2/Pk/ga5nxT5QrE4uOViOWr7k/LkjPvlq5fNk/NmrJIvn7xZrnn7H2XjktNl8so3yyPF1cXgsqJOB8prh70M8G+HlkNGuzQQd/59fufP430rDzDuNiZOnNgwFvG+lQWJL+3YsaM8vkl3/tZ9PL7nXUjdO3/rdIHHVnoVxbt9fazT2+Cf3vmLLPz0HfLx354jyx8+So7+5Y2yfelvhnb+8wbeI8tfc4Gcfv9a+cOHTpIX135Fnv7rp+XyR+qC/xXyZ397mlxzyHvkdT/9ibz5S7fJX6xnGT74/+CU5Y1yf3GKXHnIyTLl3p/K++88RR4pdv6D/32rnLP8YTnmHdtky4vnyPfO/L5cFuDfLowIOT2qgQD/AP9g+/fYzr9HbVXHmxU7/453QVRgDDUQ4B/gH+Af4D+GJqV3iwrw792+7ceWBfj3CfiD7e8R/nAEbhH7rPC+KZvTYiJ6bH9MrpSMgHt2MhQ9UqEX3tdj+1vve6EVNaGxl9j+/WjI2tHmAP92aDlktEsDFtvfIteBxDZz5syGK2BNmE7rzPDvsPcke+P7nEeBRfjzwr+jLI8Nnws9Dxlg+6c4xGtv7Q3meQHwutrzdoMMMPEttr9F7MPVenrlTj3m2P6QAY8CfqqwdELhT7jPuo9HAWRtph1I9qdmZnrP+Vt9H4/nHgNzpDI0258DzGuH5Z2gZYPtf/zxx/cE279dxqPf5AT491uP93Z7Af6rV68uYmmsKm00AUu7ncG1DGz/lP81EtudY+JDBrzELO5ZHQyqagf4aJrtT5dv7ernebV5nmUYLWgHFhjNsP1zC6icriy2v+etUbat+J99+kcUjhVZEP56J8hPb5uszrUuwL9zug/JY6+BOPbvk2P/AP+I7T/25qO/Sgzw76/+7vXWBvgH+AfhLwh/vW7nxqR9Af5josYoZJxoIMA/wD/AP8B/nJij8V2NAP/x3T9Ru3oaCPDvE/Av7vVrx/Yn218zF8ERsBJAYOhZpMKquPtWAB6SLSyPAovtbwX5qYrtDxmMt7xmzZqeie1fzwTE281qIMC/WU3Fe92gAbL9B4vQmwzEZiXdQUx8sP11eF/LRpMlTzb8aGP7M8GbFXcfddXhbMGSt2SjP6zY/mT7e7H9maAo7c+q/AE6tn+awC4tB7oi29+K7c8ERXosabY/vvdi+5eEP4vtjx9ZLEFUJGUiauFk1+sK4z0NzHgnjenMsvjcYuizXlb5+O7FF1+U6dPLlHVDH6tOnmyWn9Yl2P7dYK46W8cA/87qP6SPrQYstr9lc8FgB/hbWems98mGB3ilrn453PDY/mixJ4NuiamMKiY+Yvub8e8LnEo/kMn8AVrrXvvwHtqB2P56sYI6atfHZmRYbdcJ+qqwkxdewAAAIABJREFUdEJR4WFsf64YLLZ/uiLSbgt1d/70tW823S5le6cLdcL7ctWlszNxpUQZ2Pm3I6Xvm9/85mGTaGyndJTWKg1s2bJFrrvuOpk7d26rRIyqXIzpr3/966MqI37cfRpYtmyZTJkypXbFeew/0p2/hQMAudRHvc7OH4l90gUGQ7Dr3TdDzFtpg7GTtk4EoBxr50980DLQDqTbhRecPn2ukgE///Q3uZ2/l9IXz4FZ1sm33vl7Xntoc7lQCbZ/59n+TzzxRLkyjE/3auC4444zg3KMhxYhB/jSpUuLZEcD46E6UYc2aGDDhg1y6aWXjmhBGnf+fXLnH+DfefBvgy0IEX2sAYD/hRdeKIhWGZ/+0MBorqIC/AP8g+3fJrZ/f5ijaGWnNBDg3ynNd05ugP8hDffrPJK3whQ/9dRT5X18GuEPR/K429eZZUd67A8ZIPzpY3/IsDgTuWN/1FPzE3h9MXv27IZBx3ZoGXHsX9zfjIeUvp0zESG5HzQQ4N8PvdzYxgD/AH+MiAD/Qgk6eQJWXFjFBfj3n2HstxYH+Pdbj4sE+Af4V4J/4YK3z3KRs7Le0XUgl9XP8gdFJXbt2iVTp04dmoVkIuJB3ax+1tENytmzZ49Mnjx5mAwrqx9jDOjjE2aMYjs2btwo73rXu1qa2Kf/TFO0uJ0aCPBvp7bHh6zRgv+VV14pn/vc50pWON2utXsZ3Ldhb3X+F2CHld0ul9WPSXosGfBYsDzCLKyhG552J8xlDkQ74CKeHsmjzYwlkPYo4xXoTSPeyWUO1K7ueD+XndDL6ldXhpe9FvKD7V/cn+hgRWkQo+uvb31in/FhLqIWvaqBAP9e7Vm/XaMFf7j5feELX8gG+cE9NjLu6SA/sJ+WixwAzbqvhgsgbLAF5pABH/x0gUFXP+2mDW3grjzn6hd3/vvHTNz5x7F//1nFPmxxgH//dXqAfxz7Y9THnX+hhLjz7z8DGC3er4EA//4bCQH+Af5NgT8CzCD6ED+878CqIXUR4D09j8V1hD/et1huCM8++2x5fKNl4PjBujNidMH0SN6LusQyrQh/jE3dbBRBvI868egojv37z3D2WosD/HutR6vbM1bgjyN5fKyoqk8++WR57D9p0qShCvFIXkfTY7x6Pk/tOq4DGK9e3/lDBnAjxSHuZnWku6oIfzkZwD/L1c+SgfryeVpfXDmgfXqjCeWgHXDDq+Pqp6MI0s0Q5VsycEUyZ86cBoxlf1g4PqEAOzexD9nwKWCnRAh9V87Yxhb4I3AEwjSmZXmJfapkWGQSlKtJFSzfakdK+LPaQRkIjLJw4cIg/FXbm3hjnGqgm8H/sYG3yUcffqO8tUjZseeJX8iRl/+zfH3Jq/OafmxABrYOyuCycdohbajWaMH/qquuEvxjshqLNO0l9vHC+6ZkNR3elwsMDf6QYYX3zSUPInegTgjhI444ogFQc4l9yGlAnevI0OF9PRle+GKSDb3w9lZ4X2Kp3vyWiX2Kld0w8OdxATskHaseQ5FCPGD2wF/LYEIh7r617LLSBTmk2ax+TB6ULkgow2KxanYrwH/RokUB/m0wWCGiNRrobvBfIrcu3SKDxxa6eejTsvgfzpJ7Bt8iv9x4oVxwx+/kHcs3yspTZ8hD1y6XFfc8t/+/3/TFEvyveMdGWXHRbfLwKwvkUxtXyp/fd61c99AWefS3i+W09z4qd//9YbJ881fk1Bm/lI0rLpLbHn5FFnwK5f2LfOOzt8rtvz9O1t62XI5qTbe0tNSxAP/Vq1eXd8b4WEQ5gM2MGTOGEf48G03wJ7OfCqiSgdMFHdvf80Dw2PA5tj/acfjhhzd4FGivr3TTysWNXqjksvpBBgIJ6dNyyNFEx5xHAWR7+Gdl9fO82so+ivC+wfZvqRWKwjuuge4G/3nyvrtfJbPledlz5JnytVuukJN3XCqLr1kg6y87Rr5z/iUy7cv/Xv7H106WzdccLfff9Zgc+8bvyVUF+J9/1L3y0vz5MvHBi+XqnRtk+dbFctNH7pGrHj9dzpx5s2yeeYGc++Q6WffuB+Xel+bL/IkPysVX75QNXxU5dYnI5i3LpOKMoeN961VgtOAfbP+I8DfsPp53NxMnTmwYd7xv8TIO7dixo1xdpSso6z4e3+P5WN35c8UXhL9xa6eiYi3WQHeD/4Gd/1sekoH3rJR5d94py54ekPdf8Vo57f0z5JUXJ8i8Bb+SNf/zPLnl4qNke3G3OuMPX5XLCvA/6YFjZe1RF8jZs34sP5gI8B+QrYUL27JNxbXAvOJaQA5cD7z2HDl27VFywdmz5Mc/mFiC/8DAPBksjxu68xPgH4Q/jNxg+xdKCPDvTiMWtR69BnoC/Asc/mNx7H/iyoXy/c1Hyxff9zn5f//xjfK/7n6tfOX+/yR3nXKlHHLyFLn3p++XOwceKXf+Jz1wgmw65jSZ9cM18sD8u2T9Kze54H/CpmPktFk/lDUPzJe7/unP5KYA//Dzj9j+Bw++eFcOtmPs/EdvlKOE0EA7NNDN4N8O/fSijNj5x86/cucPwp92w8OPckQBK+whBXmhd7UbXk6GJ5syLG8CfPfCCy+UBJT0Y5UFwgTaYJEK6c5IGUH460XT2F9tCvDvr/5Ga0cL/mD6k/DnEczgIg57m24EaT8tHGDYX02Uy5HYIAOEP+0OTqKc7lm6m9eVAXdCTQr3cA7ujyl7nnXwwhfje7QDhL+0XtQVTqXx/9NPToYXQl+77KM8jWeUURL+il28C/54UbPqvVjPuU5HOZYPPk8SmmXiU4Y3GD3w1+1gOXyuXf3wnIzUdevWBdu//2xnT7U4wL+nurOpxowF+K9atarcIFk4QEBDTPw0vK+HA6ntttj+Xmz/HPjrBUYqmzacyqpqB/ho6dVwDuc8tj8XMbp91BXcCXX+ALosWp4DFsh7CyjK0PF6LIzloiDY/uMgtj8SK+3evbupSR0vjU8NYNJ5J1KdrnGAf6d7oP3yRwv+wfYPtn+w/duQ2Of8888vo2SlR1vtNxchcaQaePDBB+Xmm2+WuXPnjrSIlv4uwL+l6h2XhQf4x50/Bmaw/QsljGe2P8Afd2xIXRmf7tPAaAxtO1ob4N8OLY8vGaMZkwjIFjv/2PnHzr9NO/8A//FlPOvUZjSGto6ckb4b4D9SzXXv70YzJgP8D+6YcRqrSXqI4a/j7mOkwAtO5zTgCELc/VmzZtWK7Y+ohpoLwJTF1hUjQiEjf0D6ye78iy/d2P4gI1gxgcmC1EQ5K6YzK2IF+bEC8JC0QSZ+Lu6+npo6tj9DDuO9dOefk0EvAMZPXrNmTctj+8fOv3uNLGo+GkPbjpYH+LdDy+NLxmjGJMAfmxHs/mEPYS8t8hnABmx/ndgnF3ef4d/rxMS3Yvt7+QPAkoet16Q7PMczrx1g+6dYl3qDafDPybDah5EBXenY/p4ML2Ae+gGyvQWGBn/iH/6asf3B9reAma4Hmu3PAq2sQjkmoo7tD4V4DMwqxqjnTqjZ/mQ6WuzLnCtjysBsB9s/wH98Gc66tRmNoa0rayTvB/iPRGvd/ZvRjEmCf8r29xjszbr65Ty1qpj4nqufhQO52P45j4Jm2f4YFWliH73LzrlFeq5+1i7ekoGy0/wBeoRu27atdCdMP1lXv0Lx+6wfMX2u5V+JCujjEC8TUW7nz+QJelXCbEd4bp0ucGWnG2+5E44kvG+6qsTOf8GCBS1N7BPg37+Gth0tB/i/853vlCVLioD18ekLDdx///1y0003jYiEymN/7PxzO2YcZQOYU1e/XEY67lo1aFfJwK48xaGcDKbb9Xb+XipcgKZ29SPOaTDNHfszFbweZNaxP9uhid4AbMiwjv3RPk+GtfOnjDQxEuoWiX0KJeuFBJXFhcf1ceffF8ZyNI0czS5rNHLr/PaJJ56o83q82wMaeP3rXz8i99O48++TO//I6tf5rH6x8+9uS9sN4N/dGo7at1MDAf4B/kOZ9TjwIrZ/a6ZggH9r9NquUgP826XpkNMODQT4B/gH+BcEizj2b4e56W4ZAf7d3X9R+0YNBPgH+Af4B/gPs4ublsyWr/zJ8XJU+c1C+fQdn5XfDgzIvLOmy3d+vkJWfNgxpT9bJaty33exBQ7w7+LOi6oP00CAf5+AfxFXfl+dbHgpIU6Pmpyr386dO2XatGkNP/Hc7VIvgDTbEd0MvaxGu3btkqlTpzbIINtfu1PkZEMOGak33HCDnHjiicH2P6DVTWCMb9kiyxItbwL4n3ec/Pz3Z8hf/P5aue6hLfLobxfLae99VO7++8Nk+eavyKl7b5fb+f0vfiiP3jdbPvnNr8kHnt8oKy66TR5+ZYF8auPK8r1rr/u+3PGv58gDV5/QFaY5wL8ruikq2aQGAP4rV64s41fkMqziPdhb7RFmJb4B+x6sfvrBp1XJZfWDDCQP0nFarIx7lMEYLSl2eDiAekDGzJkzGwLwEIMs7wBm3IO8VIbnZkgZ8IywvNesDIFg9dOjjjJyOoSMZjPnohy0LxL7jIPEPt10579pyXS59Kk3yUyMtjcsl3+48zz5McB/qcitWwdl6dbFctNH7pGrHj9dzpx5s2yeeYGc++Q6WTdvQAbK75fIrUu3yODz55bPLz3qXnlp/nyZ+ODFcvXODfLV4r0lty6VLYPHNmmqOv9agH/n+yBqMHYaiJ1/n+z8g+0fbP86ZsPd+Q+B/4BsLfyDl20qwH7eoAzKftAfHAL/A98/tv/5SQ8cK2uPukDOnvVj+cHE/eBfvp8eLdSpYAfeDfDvgNJDZMs0EOAf4B93/nHnP8zANN75z5GPfOla+b9fS3f+dcH/BNl0zGky64dr5IH5d8k/feSmAP+WmfUoODRQrYEA/z4Gf9534K91n8PIR2no36oIf88++6wgUhM/uMdAOfhrycAdDe5CUhmMOujFNrYi/EEGPum9CiMIsn3pPYyWEWz/amPR72/Ezr/fR0BvtT8Ff9xv48N79LSliFqHu/I0tr9noxmvnrY7tbmUYUVuhQzE9p84ceKQaGKNxgHKYAS8VAYi5gFLPBk6wh8T4mgMgow0wp+WwfJ1WHwvsQ/arpMEUQai8qXlACsZ4a+ZxD7kyKEtaYS/oVDLhfBhiX2g5RxRDpXTpLsqMp6O7c8KcGClg8ojW/C5RRrB773Y/kxMkS48GE/aIwKS8Ld27VpZtGhREP56y76NaWsC/MdUnVFYhzXA2P6rV68uccCLif/000+X4K+BuQwdW5yaagDMxd1Hk61Y/ZABopwGL4tUSAzySIUW1uAZZGBjqsP75nDOksH2WXkQIAMLDL1h9mQwtr/O6pcjFT7zzDNl8qBmsLTso6IwN6sfXtAsyzSxz2iz+lkAzEUBvrNC7+K5B/46qx+ZqrrTKYOLglzmQID/woULA/w7bJDGs/gA//HcO1G3uhog+COzHzeBFpgjljzAX8f2t2w0T3qtrHeUYYE/ZFhZ/XIyuDHVJ7reAgMyjjjiiAasYzZDjTVoB9n+KE+fYNTN6mdhEGXoGP6pDq2dPxYYSBusN7kejgfbP9j+dW1DvK80EOAfQ6KXNBB3/n1858+dMVY/+j6e9w7pUQ8GPu9b9B0JJ4WVNti6j8f7eE7Z1n28l9VorLL6QX4k9uklc9batgT4t1a/UXp7NRDgH+AfbP9g+7fX6nSptAD/Lu24qLapgQD/AP8A/wD/MI9NaCDAvwklxStdo4EA/z4B/8J1YJ8+kscoZQY/zdjklYBFOMiF97VCD45UhiUbddZsf4YxZLhezj48T70Z0hCNun3r1q0Ltn/XmK3OVDTAvzN6D6mt0QAJf6tWrSqvc/GBzU3tJJ6BXT5jxowGtj+ek4mva+fhQxlqtrDJmtlOGSD8pa7aI8GgKhlg+6e4MhIZbB8w09IV2P66jQxTrN8n279ZHeK9bdu2lR4FKc7RQ87CzAlw9bN88Nl4i+1vuSekQqxOtFz9CP5a6ani07L43GKeosGa7c/yyaikUlgO/lszTOkhQBnh6tcaA9NLpQb491JvRlta4epHLzHaVc3lyrkTWq5+BHPtB58uMFIZVW54hx9++LBYMHXd8KrcItvt6kf8o+dcOrJL/RUv7NMrhiD8tZ/wd8YZZzQEywgT1D0awOnQihUrZO7cud1T6ahpaMDRQBz798mxf4B/52P7P/jgg/L444+HMepiDZx11lnDMkp2cXOi6n2sgQD/AP8g/LWJ8NfHdiaaHhoIDYwzDQT4B/gH+Af4jzOzFNUJDYQGWq2BAP8+Af+xDO+bC73rxfa3Qg+SdKfzB1TF9rfC+5IYYjE5tWxMKovw1+rwvq2ezFF+aCA0EBpoVgM6vC+9pbTnF8LJgu3fbHhfEuI0yRpkPIsIiPpasf09HGD4Wyu8b5UMK7Y/mfiadM7wvl7cfS+2P+Lua6Ijyeh1ZOBdi72vY/uTu2fhHJ5NqOPqB6FkbcILQLsn5NwpmnX1o3semZZ6wHKBYQ1k7epHMLc6w3Pl4HMO0Ha4+jU7KeO90EBoIDTQag1Yrn4a+FGHkbr6aVe4Kjc8z9VPLyJg59PENyk+VcmwXP0IzBrnqlwZm3X1Sz3qWuXqxxwFerFQgn+hFDerHxSW+lcSTLHySbMs8Tl9E62BYoX3ZcUsH06m9LWSB1lpGVEHy9WP/vypyyLeRV3ZPr0aS5MKrVmzRhYsWNDSxD6tnsxRfmggNBAaaFYDPPYfHBws7SQ++hQWz6zEPunuW7vhATeYGli74eVkwA0vDTMP+2ztylEGU95qDIJsPPNS4erEPpDB1PWp3tC+NKVv+h1ke+nmoSvs/HVWPwtLKQMYq08XcjJ0Yh/UjSmWU/3heQn+wfbvPNu/2UkZ74UGQgOhgVZrIO78++TOP8A/wL/VxiTKDw2EBrpHAwH+Af7B9g+2f/dYrKhpaCA0MCYaCPAP8A/wD/AfE2MShYQGQgPdo4EA/z4B/4IksG/Pnj0yefLkhtGZuttpwkOOie8laHjppZeGha+tK4Oxij0ZL7/8coPbCd9H/ZtNUKRlfOMb35CTTjopCH/dY7uipqGB0MAoNADw//znPy8XX3zxUGIfy+bu2rWrtLc6/ws9sqwkNpqhj2qmLoC62pAxadKkYUl36H6o388lD7JwAM8gA/inyXje+x7bn0mQPF1NmTKlgcDn4R/k5hL7eLltdu/eLZCRfnIyJhQ/2Gex5OlLabH9UTE8t5j4HqNSu+F5Poh87nka5GIJ7Ny5U6ZNmzbUdrol4oE1QC0Z9EBAO/Bvw4YNcsIJJwT4j8KYxE9DA6GB7tEAwB8Z/bAAyLH9kRBu6tSpDVn9crFYyLiv4+cPGYglkOKQx/b3PA2gecimf7xelEAGkgelngDAgdTri70HGSgLeKI3lIwlYHkUQAa8FizPMo2xlKEZ+myHh7GWR52H48H2LzpSuw3SxYOLm+uvvz5c/brHbkVNQwOhgVFqII79++TYP9j+wfYfpa2In4cGQgM9pIEA/wD/IPwF4a+HTFo0JTQQGmhGAwH+fQL+xd2GGeGPdwXpXTlD7+LOw7uP8KLv6dj+GISeDEYlsu5CSITQ9zYoT3MXGO7Rim2c3oXoMJAkNOL3iPAXsf2bMRnxTmggNNALGmB4X0T4Y4RULzLezJkzh5GsPRvNCH8oK7W5aUherT9ExtMR/ni3b2ENI/zVlWFF+GOUWV2nNMJf2o40gqHVjtmzZzc8zkURRDt0FF3gEdtn4Z+O8Id30AYdqZA4PqGo8DDwz5HxSKKz7spzZDwvsQ+0YSXdwXNNDGG9PLajR1ysI4PsSMpYu3atLFq0KAh/vWDVog2hgdBApQYI/qtXrx5i4nvJanRiH89GEzdo0zXxjeVrUPMS+5SEtQLcdAjhlO2vQwhbsqEMyMACQ5MK000glZaSCrVO6LXg6ep1r3tdQ33TuPtpXXOLm9xCqU5inzLXgZfVjy5vesWXY1qWBaoOodLqgD8HirXzp5tFMzt/lkOWZ9qBHKQ65j/BnwMF4B87/0p7ES+EBkIDPaIBndXP2ogRNC3wJwBb8fVHknEPTPx0F8xTW51vIAeaVcBsZfUj2z/tVjLxtbcb3iEwe+Cvs/oRS+uw/euAP+rkySixOgh/QfjrEZsVzQgNhAbGQANx598nd/4B/gH+Y2AvoojQQGigRzQQ4B/gH2z/YPv3iDmLZoQGQgPNaiDAP8A/wD/Av1l7Ee+FBkIDPaKBAP8+Af/CdWAfQg+C8JB+rJjAdGsgC1ITIfi9Jnrgveeee64Moahl4L81Y5NEBU02JAnRi+1vhRC26sRy8LdKxrp164Lt3yNGLZoRGggNVGuAhD+E+M3FqwdLHq5+EydOHCo0Z6M90h1lWLgBGa95zWsaXMtzdfJk5PIHQAZc/SyvM8vFEaQ7TTaEAqpkWIQ/D4M8YrsnG/K3bdsm8CjgpwrnSle/ZsGfoGz5P5I9byVuwO8sP3/Ph9Ty/0cZVTI88LcUrFn9qcLosohFRrj6VRuLeCM0EBroHQ006+oH17Lp06cP8/OvC1w50IQMbBrTuDI5HPDY8FUysPlNgd7a/LKHRwL+aAeAWbv0oV7a4wxyEDNAewHg+UjY/pbXAsoKtn+RoEEnKEoTF0Vs/94xatGS0EBooFoDcezfJ8f+wfYP8K82B/FGaCA00C8aCPAP8A/CXxD++sXeRTtDA6GBAxoI8A/wD/AP8A+DGBoIDfSZBgL8+wT8R0L488Ie1g3v63kHeGQLHXdfz0krtr8nw4urbIX3jdj+fWb9ormhgT7WQEr4q2L76/C+HpE6R1arCr1rhfeFXbfI5SMh/IHtr8P7VpEKR8L217H9PWI7CX9W4qKxIvyVuRFy4G+B/EiZ+FZs/1z+AKtzcwMLCtPgj2eeG0mAfx9bt2h6aCA04GqgWfAHgx3gr139rE0g86wAsLVLXw7828X2R2KflHXP+lpMfI/tn3PDQzvgTpi2PYelXmbEsQB/bognFBXYp/0DMSqYVlen7kWF4Yag0w0yqQJWRJa/5o4dO8rMSfxwZYW/WsGQzYWHZuLTjaSZWAIjkaFlI6XvggULIqtfGMvQQGigLzTAY3+k9AXY4GPtdJFu10vpq3GACXFg662EP1wU6IRtVkpfYEPqkZV2ClPeejK81MRWSl+dCpdymNJX1xWyUb4nA37+ab08jIWuUBaw15Jh6RB1azalL94td/7B9g+2f19YtGhkaCA00JQG4s6/T+78A/zz4H/LLbfI0UcfXUb5i09oIDQQGuh1DWC3ffPNN8vAwEB25//UU0+VAXgOPfTQIZVwV653p9zN4rneGeMkmWnX9U4XMnAfn55A53b+2JVTdloWd+UWTwAycB+fnkBjV86dvw7Mw52/Pl3I7fwhY9asWcN2/pBhnaJDBp5rfbB93unC7NmzG4Yn26FlRErfA1cOuSA/9913n2AyLFu2rNfnfLQvNBAaCA3Ij370I/n1r38tH//4xwP81dE7FjEB/kk8Z8wXcgEQkrDZO3/eJ+kwhniOFYu+8+AdiXfnofMHkLSB+mleAWSQb5ADf4Q+Xr9+vVxyySVhFkIDoYHQQM9r4IYbbpC3ve1tctxxxwX49zL4FySBfXv27JHJkyc3DGrP3Y4kOuvYgSxPfVSBgl966SWZNGnSqGTkkkag4JdffnlYnGnP1c9rhyXjJz/5ifzqV7+Sz3zmMz0/8aOBoYHQQP9qYNOmTaUd/eAHP1gqIefqt2vXrtLeapZ8mhsl1SQ2b9axey7uPmQAN3TSHXqD6Z7yZHheX/g9ZAD/NBMf31kbWZLOtewqXU2ZMmVYKHkr7wzKJdvfah/w1arX7t27BTLSTy5HwYSio/dpJj5dEFCxdFdOwLTuQvAbKt5aGGg3vJHIIBPf8yh48cUXy0QT/LBO+G/dDpaF5+lixTtdeOSRR+See+6RU045Rd7whjeUmabiExoIDYQGul0D2JjhmB82DkB76qmnDjUJ9/H4WDZ3+/btMnXq1GF3/hYOkO3PclKbyzt/yw0QMuBOmN75ezY65RXoRQbu41m+Bk7IAHdB3/kz6Y5eFKRMfM0ryMmAt5vF9tcn2cAtS0aqQwtj0Q54LfDDk2+UpxMjBdu/iTv/dGL/7ne/k29/+9sC8gZWWeggfIb8JosVWfqp+xy/xUTAALFSDeN7faoyUhnWZK5blvc+2+HJsE6GvFOjKhlWIIxyYKu+QJ24I9HGuq6M3PsjlaGvvjopg6df1u7C0y10au1W6o4pzier/9olw9rZ1W1Hrv/QjlbLgB1pdo4DlEB4W7hwYfkv/eRc/YLwd0iDroLw12N3/hoo9OlCjlfAVbMGqNwJBibUtGnTyhU1P2S3ah9SyMbkhKFsltOAMiED/rnpNYx3csPVJoBAy/DaRxk4HUkDgFCGZZT27t1bns7oFbu3GKIMrHRT4CT3RPNF0I4cUYcLLottDP/cdDGWYwKjHWizxdJFGVbQEPTHnDlzGoaax9JFOywZVbsCBBlBO/jxdgUEJsby0ExnPPc4N3rnQbDOnSBaTOecDCtYWI47hPGgT/dy4xB1tiKF1pVRdUq5c+fOcp6nc5zH3/oYPScburUWwBhTOAVNj4G9McLn6GuLf4U6Wn7+Af4B/uX47VXCX4D/vqHTiAD//aMhwH94oBboJcD/4MlfgH/jGEmP5MPVr9GOdMzVrxik+8Bohy9l+knvxPkcK8N0Z6WBkSt268hO8wpoRLlyTcviylyvQskTsFah+P0LL7xQ3g/pdnDlqp97siHHk6FX7CiDRA89qLli16DJdli7QERpwq5fr9i5K0hlQM+pj2wz7cY7kKFjcuN5LmyldR/HUwfr/gkysPPXd0087tRjhMeUKItHpqwTfYD1ePNicjP6l34fx3I8XUhleLKpKx2Tmycu1lF9VWQu3T7KgA9wOs94r6ll4B22w9KhtQvEb3QUT/wWeuLOeCzmuLbAILpoAAAKp0lEQVQjlKHnGZ6nC6i0n3gi4c0/vfPP2RHLhuH93Pyra0fSXXk6pqpkgGSWnu5xrHvhbz0bhucWiQ5zAycLKZGbuq0zl6HDnAycIOrwvlVzXF8njcSOeOFvGeFPzzPvGoTzz4rt79mR9ATRsiPWdZmOvsdxCF15dkQvCjBv0jgG2r7p0z3OMy2DOD6hUNYw8GeDCIJ6cuaeWwMRv7eO6/AcsrSyCKi6LN5FovLWAkODP8ux2JFkQdaVoSdtVV3RRl3fHCsUHQijoL0vLEYs9cHJmfZTjt0KGTgSTINz5NrBe2yt86p2wDCkA9iTQQNelwmMdmCBYZFSvbKs51XtgGHQbGNrDtCAW4u6HKNZT1oaBujLWlh5d+teP6E8iwzEee7NP4t3kpNhLfA5z7yy6sqw3Hm9duTmeK4d+mqP/WHZHW/seLI5RzUz25vL6XMtPzefMKYA/unVnmc/c+V4/Yd2eLH9UV6dunJuWPqtG9vfm2dVc1zH9s/1n7dJqprjOrY/9e7NcWsBTDKlhX+WHfFklH2Enb9lGNh4ff+U7nrSCnCl6+3SrNj+XFVariJcrWgZXFVaqyvPowAD1cofQONqtcNaHaMcy6OAxkd3Iuqak2F1LgIKYdKmO39Pt+wL687fk402QAZ2/vrOnwYx1S1lUB+prqrifoNB28ydP2SkK3Mtg4s3PeDRDgCzvvNH2/UOmDL4PC2LvAJrYQAZ2PmnfZs7mcrFHLeYzuyPNDIXjbS3K7DuxNlPFp+Chlrf+XNc6cUT3ocMfVdeJUPv/Gl48Hes5ri1icjZEbRRjwW225vj1p2/d7rnzTM+92RYJ4jW6R50Z7WPC2Z8b8kYiR2xiMa5dlix/Tk39DgczRzHAj/dRLD/tP1sRoYFtJYd4amRZ0c4Zyw74smwYvujLc2eIKa22DttTU8QOf+0DOJVxPYvwk1q8PcMuAX+uckZhL8g/HGnh+O6IPzt1waNkhfaNAh/rxo6xKPBxwOLjMeFlV4YB+HvkAa7HuF9/yQ9GC6vvgL8A/zLQcEVu179czUdbP9/MzR50vvq1OhCV8H2P+hnDIUxkqYXLyTY/vuHFeefPsUL8I/Y/ilqR2x/Iy0kFNSK8L4NyyXj2D92/vuvVKydR7j6HRw9sfP/tw27WYBd7PzD1Y9XTLwutuxIJPZptCNWciS8geuLSOxzQFc5YG42tn+Af7j6hZ//weP68PM/uIjhyQbvVFPg4p2xx8EIP/+DljWy+jUeyQO32pLVrxAyLLwv7+VIJkkBkPd1FksX33lMfL0r51EX/lpsY0s2f9Ms27+qHVZ9h8gQRoQ4lGe56Fi/IWmLBkEfD1OneqVrsf3TsnQ5lF1Hhxbb39OtJ5u6zbUDhD8zrKThrVHeQdV4DrkW25/tsAihJIvqBZ0nmzIslq43Pj02bpWMlIxXNW49T4OcDMsHn307Vrqy3PA8GVXPvTlukfGq5oDFPPf6D7ofC7Z/bt5AhsX2t+YS21bXVnleQ9YYydW1atyCOKxd/erabpIprXHoefSM9fzTbH/inOcdZI3PKiY+iMOW/a4z/3IytDtvzo7guwnFDtj08yej0vJR91jInn8nBFksXY9B67GpuZP3fIBHwtK12seBZblTNOvnz8GDv7q+ZO96/rmen7/nn8ty9M6DCyvdDvicwtVPs/1pYCw/XE+2x8SHDIB/Myxd7qAsGTn3GcjApNVsfzK8Nch7cShwCuSxsiFD+/nn2Mae/3GVn3HK0uUCJsf210z8nA7xnWUYvDmOcWD5OPO5t5v14oVAvt4s5GTTwFlG0bray9kRayxwbnLs6nHSrMswy8m1z7NVlsuwx/ZPwVGTkz1bZc3xXLs9d7sqW6XjheRstDfP6Ofv2UNtR0Yiw2sf+s6KF5Ibn5YnTDr/rIUBZGCBr/sv55lkzfGcHfFchj07EoS/IPyVti8If/vzKVh3jnHsvx8eYXTj2D+O/blYivC+Ed53CDy4IrJW7Jaffy5mNVYrOj47nnGl1OyuwPORjTv/iO1PI8aMXwH++zWCOROx/WcOHQjwxAMPLHe7uPM/dEhXJHLq/A/QYRp9Lz1tiTv/Dt35F52yTx8J8niIAMyO4t0QOjG95+HOMcD/oH8udBJ+/uHnz7kTbP9g+6eAF4S/g9oI8A/wHxoN2JXHzj+y+nEBZUUew3c4doysfo1H8ji9sKJ/RVa/g0l3vCh0NECR1e8gMEdK31cPI+nlsoN68w+2Crye9MSa8UI6ltjHi+2fY9Bi8tRhQWIo1WX7j4TRbCX28Zik3vMqlq5F+LOYuDwNwV+PiW8RQ2CkEdo3De/Lsjw2vCWjikHbbGz/XDsow2uHF9vfAiePxZoj/FlMYNSJJMt0p4X/z5jc6A+O75xu8R1k1I3JbcX2J2tay6aMlO0PfbId1tjh1ZduX44J7LH99Tyj7JHIsGL7cz557agbv7xObP+cbM+GQace27/OPMuxxVGORfira0eq5p/OEZKzbd48q7Ijmu3P+eQx2C2SpddPnBvNeg1R55Z9qdKVxfYnmdKyI4xtou2INUbYDs32z+nWyt8B3aXkSF0vj9Sr7SHn+ITiyGUY2x9fYjB4P/IMg1VhVtByA8oBsCUj17mQUxf8LZCoO2kh15s4VRPKA00vsY+14CKnwWJTeyBYJ7FPbsBVGQZr0nqLOg+Yq8DfmrS58Ummejppc6AJXVkuOp6MnEeBJTsH/jkZVrY/L+EIZIwV+OdkNJvYZzQLDG8TYY31HGO7Lvjn5nLOjlhAhP5oNrFPzr7k7GEuQZhnRyxgrprjFvjXXchXybCSd0GGtXD07Ehu3EJXnquf1X8p2z+1IzmvobGwI+gfsv0tTzQrqx9PudINyRD4F18OS+zDAUciS7rCIKEj9d/G91VMYAv8rdCfXHhY8fVJvPFcjazjuirCX920wXpXgDrRMOiBYrWPuqXBsNjl2JU3k9IXZfG+rNnERfiNxdL1dMvn1tE7jwStnS5kYELprH6emwzJQHrHwKQ71iSEDABzKp/j03KTwXEdU/qmY7pKhj6u8+YAykR4X7RZ96vXPvbHnDlzGhbyJLda8wzt0Jwb/Dgnw3IDggxvjpPwl1aqao57CcLqykgNuN7dWODPjYo1ByDbSuzDhZVlRK1NhDfWRzLH0aZmE/vgXU+2126OKc+OWG6tnh0ZybE/gTmdyxw7zG+hQRN19gi3dSP8jWSOe3ZEzz/Uk8f+dec4ou9pVz/o15rjXmpwz4ahXjptMDdumrtHvA5Xv3D1K+0rV4ga5Dlp8VwbV4/QSOMT4X0PQlcQ/oLwly5kgvB3UBtB+AvC39BoCMLfNMHRPz/caWoyCXflWOFpYPZcGQnMuI/XQX54XJfusgP8nyqDc6Q6IVFHu6JCV5HYJxL7YI7xVCXC++63Ypgb4eo3zgh/RaeEq18Syjd3bIxB7B3747tmd8Y5w4Cj7GnTAvy58Kk6kg+2/0HjyvvAYPvv1wkWwLxysCKr1bk+zMUksWQE+L+qgegc4D8O2f4B/o0Z6QL890e64yd2/rHz12NBB3Dh9xap0LoTJ1EN30VK3/3a47WbPsXj6R7esQIM4Xsvq6Z1528tEDnHIduSAdnefTxIvYceGkF+oCOcbHSTq9//B1Kv7FK3xpBXAAAAAElFTkSuQmCC;" parent="1" vertex="1">
                    <mxGeometry x="250" y="1658" width="511" height="496" as="geometry"/>
                </mxCell>
                <mxCell id="krbPknht3z9TjCIM4Bz2-57" value="" style="shape=flexArrow;endArrow=classic;html=1;rounded=0;" parent="1" edge="1">
                    <mxGeometry width="50" height="50" relative="1" as="geometry">
                        <mxPoint x="650" y="1500" as="sourcePoint"/>
                        <mxPoint x="590" y="1630" as="targetPoint"/>
                    </mxGeometry>
                </mxCell>
            </root>
        </mxGraphModel>
    </diagram>
    <diagram id="W4vCUtd58HTyqiW1j5Fm" name="ADMINISTRATIVO">
        <mxGraphModel dx="626" dy="573" grid="1" gridSize="10" guides="1" tooltips="1" connect="1" arrows="1" fold="1" page="1" pageScale="1" pageWidth="10000" pageHeight="10000" math="0" shadow="0">
            <root>
                <mxCell id="0"/>
                <mxCell id="1" parent="0"/>
                <mxCell id="Ht4nLhvqso6vWwJbvLBK-1" value="" style="rounded=1;whiteSpace=wrap;html=1;arcSize=1;" parent="1" vertex="1">
                    <mxGeometry x="2525" y="1370" width="1240" height="1240" as="geometry"/>
                </mxCell>
                <mxCell id="Ht4nLhvqso6vWwJbvLBK-2" value="" style="rounded=1;whiteSpace=wrap;html=1;arcSize=2;" parent="1" vertex="1">
                    <mxGeometry x="2645" y="1685" width="310" height="290" as="geometry"/>
                </mxCell>
                <mxCell id="Ht4nLhvqso6vWwJbvLBK-3" value="&lt;font style=&quot;font-size: 72px;&quot;&gt;Página de registro administrativo&lt;/font&gt;" style="text;strokeColor=none;align=center;fillColor=none;html=1;verticalAlign=middle;whiteSpace=wrap;rounded=0;" parent="1" vertex="1">
                    <mxGeometry x="1226.5" y="1220" width="670" height="30" as="geometry"/>
                </mxCell>
                <mxCell id="Ht4nLhvqso6vWwJbvLBK-4" value="&lt;font style=&quot;font-size: 72px;&quot;&gt;Página principal administrativo&lt;/font&gt;" style="text;strokeColor=none;align=center;fillColor=none;html=1;verticalAlign=middle;whiteSpace=wrap;rounded=0;" parent="1" vertex="1">
                    <mxGeometry x="2780" y="1220" width="670" height="30" as="geometry"/>
                </mxCell>
                <mxCell id="Ht4nLhvqso6vWwJbvLBK-5" value="" style="rounded=1;whiteSpace=wrap;html=1;arcSize=1;" parent="1" vertex="1">
                    <mxGeometry x="970" y="1410" width="1240" height="830" as="geometry"/>
                </mxCell>
                <mxCell id="Ht4nLhvqso6vWwJbvLBK-6" value="" style="ellipse;whiteSpace=wrap;html=1;aspect=fixed;" parent="1" vertex="1">
                    <mxGeometry x="1515" y="1430" width="140" height="140" as="geometry"/>
                </mxCell>
                <mxCell id="Ht4nLhvqso6vWwJbvLBK-7" value="" style="rounded=1;whiteSpace=wrap;html=1;arcSize=3;" parent="1" vertex="1">
                    <mxGeometry x="1377" y="1630" width="410" height="430" as="geometry"/>
                </mxCell>
                <mxCell id="Ht4nLhvqso6vWwJbvLBK-8" value="" style="rounded=1;whiteSpace=wrap;html=1;arcSize=5;" parent="1" vertex="1">
                    <mxGeometry x="1397" y="1665" width="370" height="310" as="geometry"/>
                </mxCell>
                <mxCell id="Ht4nLhvqso6vWwJbvLBK-9" value="&lt;span style=&quot;font-size: 18px;&quot;&gt;&lt;b&gt;Registrarse&lt;/b&gt;&lt;/span&gt;" style="rounded=1;whiteSpace=wrap;html=1;arcSize=5;" parent="1" vertex="1">
                    <mxGeometry x="1497" y="1990" width="170" height="40" as="geometry"/>
                </mxCell>
                <mxCell id="Ht4nLhvqso6vWwJbvLBK-10" value="&lt;font style=&quot;font-size: 22px;&quot;&gt;&lt;b&gt;Usuario&lt;/b&gt;&lt;/font&gt;" style="text;html=1;align=center;verticalAlign=middle;whiteSpace=wrap;rounded=0;fontSize=20;" parent="1" vertex="1">
                    <mxGeometry x="1425" y="1712" width="60" height="30" as="geometry"/>
                </mxCell>
                <mxCell id="Ht4nLhvqso6vWwJbvLBK-11" value="" style="rounded=1;whiteSpace=wrap;html=1;arcSize=5;" parent="1" vertex="1">
                    <mxGeometry x="1417" y="1749" width="330" height="40" as="geometry"/>
                </mxCell>
                <mxCell id="Ht4nLhvqso6vWwJbvLBK-12" value="" style="rounded=1;whiteSpace=wrap;html=1;arcSize=5;" parent="1" vertex="1">
                    <mxGeometry x="1417" y="1860" width="330" height="40" as="geometry"/>
                </mxCell>
                <mxCell id="Ht4nLhvqso6vWwJbvLBK-13" value="&lt;b&gt;Contraseña&lt;/b&gt;" style="text;html=1;align=center;verticalAlign=middle;whiteSpace=wrap;rounded=0;fontSize=20;" parent="1" vertex="1">
                    <mxGeometry x="1437" y="1822" width="60" height="30" as="geometry"/>
                </mxCell>
                <mxCell id="Ht4nLhvqso6vWwJbvLBK-14" value="Administrativo" style="rounded=1;whiteSpace=wrap;html=1;dashed=1;dashPattern=1 1;fontStyle=0;" parent="1" vertex="1">
                    <mxGeometry x="1448" y="1590" width="270" height="30" as="geometry"/>
                </mxCell>
                <mxCell id="Ht4nLhvqso6vWwJbvLBK-15" value="" style="triangle;whiteSpace=wrap;html=1;direction=west;" parent="1" vertex="1">
                    <mxGeometry x="985" y="1450" width="40" height="50" as="geometry"/>
                </mxCell>
                <mxCell id="Ht4nLhvqso6vWwJbvLBK-16" style="edgeStyle=orthogonalEdgeStyle;rounded=0;orthogonalLoop=1;jettySize=auto;html=1;exitX=0.5;exitY=1;exitDx=0;exitDy=0;" parent="1" edge="1">
                    <mxGeometry relative="1" as="geometry">
                        <mxPoint x="3303" y="1459" as="sourcePoint"/>
                        <mxPoint x="3303" y="1459" as="targetPoint"/>
                    </mxGeometry>
                </mxCell>
                <mxCell id="Ht4nLhvqso6vWwJbvLBK-17" style="edgeStyle=orthogonalEdgeStyle;rounded=0;orthogonalLoop=1;jettySize=auto;html=1;exitX=0.5;exitY=1;exitDx=0;exitDy=0;" parent="1" edge="1">
                    <mxGeometry relative="1" as="geometry">
                        <mxPoint x="3303" y="1459" as="sourcePoint"/>
                        <mxPoint x="3303" y="1459" as="targetPoint"/>
                    </mxGeometry>
                </mxCell>
                <mxCell id="Ht4nLhvqso6vWwJbvLBK-18" value="" style="rounded=1;whiteSpace=wrap;html=1;" parent="1" vertex="1">
                    <mxGeometry x="3740" y="1380" width="3" height="1170" as="geometry"/>
                </mxCell>
                <mxCell id="Ht4nLhvqso6vWwJbvLBK-19" value="&amp;nbsp; &amp;nbsp; &amp;nbsp; &amp;nbsp; &amp;nbsp; &amp;nbsp; &amp;nbsp;Buscar" style="rounded=1;whiteSpace=wrap;html=1;arcSize=5;align=left;" parent="1" vertex="1">
                    <mxGeometry x="2866.5" y="1495" width="450" height="30" as="geometry"/>
                </mxCell>
                <mxCell id="Ht4nLhvqso6vWwJbvLBK-20" value="" style="orthogonalLoop=1;jettySize=auto;html=1;fontSize=72;shape=link;width=-0.5142857142857142;" parent="1" edge="1">
                    <mxGeometry width="80" relative="1" as="geometry">
                        <mxPoint x="3160" y="1410" as="sourcePoint"/>
                        <mxPoint x="3160" y="1410" as="targetPoint"/>
                    </mxGeometry>
                </mxCell>
                <mxCell id="Ht4nLhvqso6vWwJbvLBK-21" value="" style="ellipse;whiteSpace=wrap;html=1;fontSize=72;" parent="1" vertex="1">
                    <mxGeometry x="2881.5" y="1498" width="20" height="20" as="geometry"/>
                </mxCell>
                <mxCell id="Ht4nLhvqso6vWwJbvLBK-22" value="" style="edgeStyle=none;orthogonalLoop=1;jettySize=auto;html=1;fontSize=72;shape=link;" parent="1" target="Ht4nLhvqso6vWwJbvLBK-21" edge="1">
                    <mxGeometry width="80" relative="1" as="geometry">
                        <mxPoint x="2871.5" y="1528" as="sourcePoint"/>
                        <mxPoint x="2901.5" y="1539.8200000000002" as="targetPoint"/>
                        <Array as="points"/>
                    </mxGeometry>
                </mxCell>
                <mxCell id="Ht4nLhvqso6vWwJbvLBK-23" value="" style="rounded=1;whiteSpace=wrap;html=1;arcSize=2;" parent="1" vertex="1">
                    <mxGeometry x="2975" y="1680" width="310" height="290" as="geometry"/>
                </mxCell>
                <mxCell id="Ht4nLhvqso6vWwJbvLBK-24" value="" style="rounded=1;whiteSpace=wrap;html=1;arcSize=2;" parent="1" vertex="1">
                    <mxGeometry x="3316.5" y="1680" width="308.5" height="290" as="geometry"/>
                </mxCell>
                <mxCell id="Ht4nLhvqso6vWwJbvLBK-25" value="&lt;font style=&quot;font-size: 18px;&quot;&gt;&lt;span style=&quot;white-space: pre;&quot;&gt;&#x9;&lt;/span&gt;&lt;span style=&quot;white-space: pre;&quot;&gt;&#x9;&lt;/span&gt;&lt;span style=&quot;white-space: pre;&quot;&gt;&#x9;&lt;/span&gt;&lt;span style=&quot;white-space: pre;&quot;&gt;&#x9;&lt;/span&gt;&amp;nbsp; &amp;nbsp; &amp;lt;&lt;span style=&quot;white-space: pre;&quot;&gt;&#x9;&lt;/span&gt;&lt;span style=&quot;white-space: pre;&quot;&gt;&#x9;&lt;/span&gt;&lt;span style=&quot;white-space: pre;&quot;&gt;&#x9;&lt;/span&gt;&lt;span style=&quot;white-space: pre;&quot;&gt;&#x9;&lt;/span&gt;&lt;span style=&quot;white-space: pre;&quot;&gt;&#x9;&lt;/span&gt;&amp;nbsp;&lt;span style=&quot;white-space: pre;&quot;&gt;&#x9;&lt;/span&gt;&amp;gt;&lt;/font&gt;" style="text;strokeColor=none;align=left;fillColor=none;html=1;verticalAlign=middle;whiteSpace=wrap;rounded=0;" parent="1" vertex="1">
                    <mxGeometry x="2810" y="2330" width="670" height="30" as="geometry"/>
                </mxCell>
                <mxCell id="Ht4nLhvqso6vWwJbvLBK-26" value="&lt;font style=&quot;font-size: 18px;&quot;&gt;&lt;span style=&quot;white-space: pre;&quot;&gt;&#x9;&lt;/span&gt;&lt;span style=&quot;white-space: pre;&quot;&gt;&#x9;&lt;span style=&quot;white-space: pre;&quot;&gt;&#x9;&lt;/span&gt;&lt;/span&gt;Anterior&lt;span style=&quot;white-space: pre;&quot;&gt;&#x9;&lt;/span&gt; &lt;span style=&quot;white-space: pre;&quot;&gt;&#x9;&lt;/span&gt;&amp;nbsp; &lt;b&gt;1&lt;/b&gt; 2 3 4 5 6 7 8 9 10&amp;nbsp;&lt;span style=&quot;white-space: pre;&quot;&gt;&#x9;&lt;/span&gt;&lt;span style=&quot;white-space: pre;&quot;&gt;&#x9;&lt;/span&gt;Siguiente&lt;/font&gt;" style="text;strokeColor=none;align=left;fillColor=none;html=1;verticalAlign=middle;whiteSpace=wrap;rounded=0;" parent="1" vertex="1">
                    <mxGeometry x="2770" y="2330" width="670" height="30" as="geometry"/>
                </mxCell>
                <mxCell id="Ht4nLhvqso6vWwJbvLBK-27" value="Filtros" style="text;strokeColor=none;align=center;fillColor=none;html=1;verticalAlign=middle;whiteSpace=wrap;rounded=0;fontSize=18;" parent="1" vertex="1">
                    <mxGeometry x="3330" y="1498" width="60" height="30" as="geometry"/>
                </mxCell>
                <mxCell id="Ht4nLhvqso6vWwJbvLBK-28" value="" style="shape=image;imageAspect=0;aspect=fixed;verticalLabelPosition=bottom;verticalAlign=top;fontSize=18;fillColor=#FFFFFF;image=data:image/png,iVBORw0KGgoAAAANSUhEUgAAAgAAAAIACAMAAADDpiTIAAAAAXNSR0IArs4c6QAAAARnQU1BAACxjwv8YQUAAAJbUExURQAAAMbGxs7Ozs3NzczMzM3NzczMzM7Ozs3Nzc3Nzaqqqs3NzczMzM7Ozs3Nzc3Nzc3NzczMzM/Pz83Nzc3Nzc7Ozs3NzczMzMzMzM3Nzc3Nzc7Ozs7OzsTExMzMzM3Nzc3Nzc3NzdLS0s3Nzc3Nzc3Nzc7OztXV1c3Nzc3Nzc7Ozr+/v87Ozs3Nzc3Nzc3NzczMzM3Nzc3NzcnJyczMzMzMzM/Pz////83Nzc3Nzf///83NzczMzMbGxs3Nzc3Nzc7Ozs/Pz8zMzMzMzNHR0c3NzdDQ0MjIyM3Nzc3NzczMzMjIyMzMzM3Nzc3Nzc3Nzc3Nzc3NzczMzM3Nzc3Nzc3Nzc3Nzc3Nzc7OztHR0c3NzczMzMzMzM/Pz83Nzc7OzszMzM3NzcrKys3Nzc7OzszMzM7Ozr+/v83Nzc3Nzc7Ozs7Ozs3NzczMzM/Pz8vLy8zMzM3Nzc3Nzc7OztDQ0M3Nzc3Nzc7OzszMzMzMzM/Pz87Ozs3NzczMzM3NzcvLy83NzcvLy83Nzc3Nzc3Nzc7OzsrKys3Nzc7Ozs3Nzc3Nzc3Nzdvb283NzczMzM7OztXV1c3Nzc3NzczMzM7Ozs3NzczMzM3Nzc3Nzc7OzsvLy87Ozs3NzcvLy83NzczMzM3Nzc3Nzc7Ozs3NzdHR0czMzM3Nzc3Nzc7Ozs3Nzc3Nzc3Nzc7Ozs3Nzc3NzczMzM3Nzc3Nzc3Nzc7OzsvLy83Nzc3Nzc3Nzc3Nzc3NzczMzM7Ozs3NzcvLy8vLy83Nzc3NzczMzM3Nzc3NzczMzM3Nzc3Nzc3NzczMzKuil6YAAADJdFJOUwAJKkdke4iRmSkDOHSl1/3/cxBhqe1gBVCs96pODW/i54ARifLxhwZm6ncIRN3cQg/+ohM84zoB+vsCrqsSw8cVINkeHNsbF9baGQ7U0bO2jopVUu69wWxoFp+cMjCyNLCtHfwfg4EE5eZZm8qmNTZu9JpYJp31YgreJYz2edMs4DHO1S4aGNAv+cx6B/NplgyvV2o+6xTp+Mk7bZgixS0zxobIC5dW5IKx7LtUUdLP2MKoOUDwhN9Mp0tecCdFkI94PWt94WdlN3yTghQAAAAJcEhZcwAADsMAAA7DAcdvqGQAABDNSURBVHhe7d39X1Rl/sfxIRUnSUGCSMxBMQXBFFAUBwsz8A6tNDJJzUKT8m7D+0Vpdb3Z+C4iq2v43a99W2+6v8/MzKzcarc/a/Wx7+2BMMOcmbnO8VyH1/NH5nM+15nrM8w555rrXCcEAAAAAAAAAAAAAAAAAAAAAAAAAAAAAAAAAAAAAAAAAAAAAAAQVBn3DBs+InNkODwyc8TwYfdm6M8YAkZl3Td6THbOHbLHjB6bNUoBCLDc+/PyVfQB8vMeyFUYAqngwXGFKnYcheMfKlAwgmZCpEhlHtTEScXaAEFSPPlhVTihKVM5EgRNSek0VdeR/LJybYhAmP6IKuvYjJnaFParCFeqrEmorJqlzWG52dWqaZKq5ygBbDY3UqOCJm3epKiSwFoZtapmSuZzLmi5Rx9TKVNUt0CJYKXHF6qQKRvzhFLBQvVJX/0N1LBIyWCdxUtUxLQsXaZ0sEzjcpUwTSsmKCGsEn1SBUzbU0wUsNHTKp8BK5USFlml4hnxjJLCGvVx5/2koomLQctEn1XpDFnNaYBdnlPhjFmjxLBCc5PqZkwTY8I2eV5lM2itUsMC61KYAJJI9nolh/+9oKIZVavk8D03vgBycio3KD387kWVzLCXlB4+17JRFTNs4yY1AH97WQUzbrMagK+1vqJ6Gfeqv28bbNyyddu0lGfADj1Ttg/fsaAgo/53r+W16U8G1EzbtnPX3ZhAsHvPXu0CnFi4b7967pbG0t/rz2bsXduuzF7JODBPbcOJg2Nb1XNS3pHgvvEk1az0dEJ5++tqF44s/YM6ro8Nh/SiIXUeTiU8nNSdr/hjzB92mo/oZUOqjyqx69qpf1KWxvlh79gMBRhSfVyJXVb+JzUIRwrfUMcNsK5TIYb8jzdrjx1Qc3BmrPothj8rxBRPRo52c/6flIX9zv/76krxRvJ4TnhxENijxuDMPvVbTN0KMuWk8rqokfGfpEzpM/4zUM9BhRnS5v6Y4BY1BWe2q9/i+IvCTDmlvO7ZqpbgzHD1WxynFWZKWHnds00twZkd6rc4/qowU+qU1z1n1BKceVP9FsdihZnSq7zuMTx2EXgl6rc4GhVmylnldQ8fgOQkGJzLUJgp7n8AOAQkp179Fke9wkxx/xDwv2oJzvxO/RbH3xRmivsngTvVEpz5P/VbHKYvA88pr3t2qSU4k6d+i8P0LQWrlNc9ExgKTkpbozoupgknFGZIW48Su2it2oIzpeq3mF5TkCk7lddN7cwET8rvB5mt2WV2cnBO51tK7KqVag3OdKjfYpikEFOmKq+7yuvUHBwpjHuX7/qzCjHk/7uU2GXLDM9jCbpDzeq4fo4Z7scijyaFhkJH+QQk5cgxddwdjq3Qy4YUva3EHjjOUSApM/6ujutjveH/ovOe/f/f1rXZ4P2NQ0Dnn/sdnrsmmT3+d17w6Pj/m+Mn+Qgko7q7zxjNhNfMXv+1hT25/uun59S5i738OuxY4V9O/3Vx8aX6v51+0eD4X2fvxXfe9WD8D3G1vqdaGOfzBSIg76texrFEjB1YJGqoS+tRgfGNU3r43WF3FoqMe1cx/OYD1cwo1om0hxtfAdl8AVjEhVumvZjbAVNmfaiyGZPPAyOsYnp27+AzyeA7ph8a9VFUiWGJRUYPAk0tSgtrfKzaGfGJksIiBldPm6yUsEnU2JODeHi0nRo/VQHT9Bk/71uqeYlKmJaFnk7ug0mLDKz+2xBzCjHssOlzlTFlS7gAtFrxFypkis4nWFQKfpcxX6VMyZeePvcDbpgbSXmm9LyyuUoCm81J8Z6fostKAMtVjMxWTZNQWTVLm8N+MxtUVseWfqVNEQgFpb2qrCP5ZV7f2ge35V64ouomdOXrCm2EIOmJOHo04NWyXG2AoGn9Ji/BI0EOXvuWn/4CreL6tbjLK5/Zfn3QVQQRDNEd31Ud6Xf/4MblVZENzPsbQspvfL+vI/OHcPjHzJv7pt9gyBcAAAAAAAAAAAAAAAAAAAAAAAAAAAAAAAAAAAAAAAAAAAAAAAAAAAAAAAAAAAAAAJiXcc+w4SMyR4bDIzNHDB92b4b+jCFgVNZ9o8dk59whe8zosVmjFIAAy70/L19FHyA/74FchSGQCh4cV6hix1E4/qECBSNoJkSKVOZBTZxUrA0QJMWTH1aFE5oylSNB0JSUTlN1HckvK9eGCITpj6iyjs2YqU1hv4pwpcqahMqqWdoclptdrZomqXqOEsBmcyM1KmjS5k2KKgmslVGraqZkPueClnv0MZUyRXULlAhWenyhCpmyMU8oFSxUn/TV30ANi5QM1lm8REVMy9JlSgfLNC5XCdO0YoISwirRJ1XAtD3FRAEbPa3yGbBSKWGRVSqeEc8oKaxRH3feTyqauBi0TPRZlc6Q1ZwG2OU5Fc6YNUoMKzQ3qW7GNDEmbJPnVTaD1io1LLAuhQkgiWSvV3L43wsqmlG1Sg7fc+MLICencoPSw+9eVMkMe0np4XMtG1UxwzZuUgPwt5dVMOM2qwH4Wusrqpdxr3Lb4N3UuGXrtmkpz/AdaErtmjnHosXN/1hTe1B/QkI107bt3HU3Jkjs3rNXu2BGw0+XlPmWnm5Ht41C9q5tV895JePAPLVtRuHPJcosXR2deglO1Kz0dMJ8++tq15Bf3lbiPtbN0ItwpM7DqZKHk7qzN7EVx5T4DsuO6GU4Un1UHee6dsP1/yVm/UOh5kMKgCPVx9VxLssw/P1fGOP7/z82JFg/Bneq61LHueuAmjPlZ+WNoUMhcMaTkbHdZs//cxr6nf/3VX5VQXDkhBcHgT1qzJSflDembgXBmZPqNxc1mh3/yZnSZ/xnoArDrQVdW486zj1b1JQpCaZ1zFcYnDmlfnPPVrVkSoLZvRGFwZmw+s0929SSKQnW/clSGJy5qH5zzxm1ZEqcQaD/alEYnOlVv7nH9G80CcYu9isMzpxVv7nH9Adg0IuAUKhLYXDG/Q+A6UNAs/LG0awwOOP+IcD0SeBs5Y2Dk8Dk1Knf3LNTLZmS4DLwnwqDM+fUb+7ZpZZMSTAQNF5hcGaV+s09PW1qypDCRiWO6dIJhcERD4aCQ2vVlindyhvTvxQEZ3aq39zUbnAm+G1Fg4wElBhYWHIo6XxLHeeqlWrNlA7ljeGmQuDMVPWbu8rr1JwhNTuUeIDLZxUCR857MyUstCzFBz7EMyPO7wEtExUAR4o8mhQaCh01/Ak4EnM4sOVTvQxHiuJOrjVvwWo1akj1r0rcx2X+/5Ny3rP//9u6NpsdDijs6HdnU0kHx/9kdF7w6Pj/m+MnzX4EDnVXKPMtl0q5/ktGW9iT679+ek6du9hr8NfhvfMjWS37S5p/XZPH+J9jnb0X33nXg/G/NLS+p301jgUi7PC+6mUcS8TYgUWihrq0HhUY3zilh98ddmehyDeUHr73gWpmFOtE2sONr4BsvgAsYvqW4lu8mPsAU2Z9qLIZk88DI6xyWnUzplSJYQfTD436KKrEsMQioweBphalhTU+Vu2M+ERJYRGDq4tNVkrYJGrsyUE8PNpOjYYm+X3m75+/EVfzEpUwLQs9nfwGkxYZWAG8IcGiMvCzTZ+rjClbwgWg1Yq/UCFTdP5NJYKlMtJa+vFLT5+LATfMjaQ8k3he2Vwlgc3mpHhnWdFlJYDlKkZmq6ZJqKyapc1hv5kNKqtjS7/SpgiEgtJeVdaR/DKvb32D23IvXFF1E7rydZ/7BhEYPRFHjwW7WparDRA0rd/kJXhM8MFr3/LTX6BVXL8Wd/nhM9uvD7qKIIIhuuO7qiP97h/cuLwqsoF5f0NI+Y3v93Vk/hAO/5h5c9/0Gwz5AgAAAAAAAAAAAAAAAAAAAAAAAAAAAAAAAAAAAAAAAAAAAAAAAAAAAAAAAAAAAAAA2C7jnmHDR2SODIdHZo4YPuzeDP0ZQ8CorPtGj8nOuUP2mNFjs0YpAAGWe39evoo+QH7eA7kKQyAVPDiuUMWOo3D8QwUKRtBMiBSpzIOaOKlYGyBIiic/rAonNGUqR4KgKSmdpuo6kl9Wrg0RCNMfUWUdmzFTm8J+FeFKlTUJlVWztDksN7taNU1S9RwlgM3mRmpU0KTNmxRVElgro1bVTMl8zgUt9+hjKmWK6hYoEaz0+EIVMmVjnlAqWKg+6au/gRoWKRmss3iJipiWpcuUDpZpXK4SpmnFBCWEVaJPqoBpe4qJAjZ6WuUzYKVSwiKrVDwjnlFSWKM+7ryfVDRxMWiZ6LMqnSGrOQ2wy3MqnDFrlBhWaG5S3YxpYkzYJs+rbAatVWpYYF0KE0ASyV6v5PC/F1Q0o2qVHL7nxhdATk7lBqWH372okhn2ktLD51o2qmKGbdykBuBvL6tgxm1WA/C11ldUL+NeHVq3DTZu2bptWsozav1vSu2aOceixc3/WFN7UH/yoZpp23buuhsTEnbv2atdCKaGny7pnd7S0+3ottG7Zu/adu2pVzIOzFPbwVT4c4neqXR1dOolf6pZ6ekE9fbX1W5A/fK23mgf62boRZ+q83Bq4uGk7qS1z4pjeqN3WHZEL/tU9VHtqOvaA17/X2LWPxRqPqQAn6o+rh11WUbAv/8LY3z//8eGBOvH3G11XdpRdx1Qc0H1s95nDB0K8StPRqJ2B/v8P6eh3/l/X+VXFeRTJ7w4COxRY0H1k95nTN0K8quT2k8XNQZ7/CdnSp/xn4EqfP7u23q0o+7ZoqaCKsG0jvkK86tT2k/3bFVLQZVgdm9EYX4V1n66Z5taCqoE6/5kKcyvLmo/3XNGLQVVnEGg/2pRmF/1aj/d4+/fRNKXYCxlv8L86qz20z1B/wAMehEQCnUpzK/c/wAE/RDQrPcZR7PC/Mr9Q0DQTwJn633G4feTwDrtp3t2qqWgSnAZ+E+F+dU57ad7dqmloEowEDReYX61Svvpnp42NRVQhY16ozFdOqEwn/JgKDi0Vm0FVbfeZ0z/UpBf7dR+uqk9wDPBbysaZCSgxMDCkm7qfEs76qqVai2oOvQ+Y7ipEL+aqv10V3mdmguomh16owNcPqsQnzrvzZSw0LIUH7Bgixlxfg9omagAnyryaFJoKHQ04J+AIzGHA1s+1cs+VRR3Mqt5C1ar0YCq/lVvtI/LPv//P+/Z//9tXZuDPRxQ2NHvTquSDn8f/zsveHT8/83xk8H+CBzqrtA7veVSqb+v/9rCnlz/9dNz6tzF3gD/Orx3fiSrZX9J869r8nw8/tfZe/Gddz0Y/wuQ1vfUd8YNsQUirPW+6mUcS8TYgUWihrq0HhUY3zilh98ddmehyDeUHr73gWpmFOtE2sONr4BsvgAs4sItzl7MxYApsz5U2YzJ54ERVjmtuhlTqsSwg+mHRn0UVWJYYpHRg0BTi9LCGh+rdkZ8oqSwiMHVziYrJWwSNfbkIB4ebadGQ5P8PuPneEs1L1EJ07LQ08l4MGmRgRXAGxIsKgM/2/S5ypiyJVwAWq34CxUyReffVCJYKiOtpR+/9PQ5HXDD3EjKM5vnlc1VEthsTop3uhVdVgJYrmJktmqahMqqWdoc9pvZoLI6tvQrbYpAKCjtVWUdyS/z+lY8uC33whVVN6ErX/e5bxCB0RNx9Fiwq2W52gBB0/pNXoLHBB+89i0//QVaxfVrcZdDPrP9+qCrCCIYoju+qzrS7/7BjcurIhuY9zeElN/4fl9H5g/h8I+ZN/dNv8GQLwAAAAAAAAAAAAAAAAAAAAAAAAAAAAAAAAAAAAAAAAAAAAAAMCQU+jegmgEpmiq4ewAAAABJRU5ErkJggg==;" parent="1" vertex="1">
                    <mxGeometry x="3400" y="1500.5" width="25" height="25" as="geometry"/>
                </mxCell>
                <mxCell id="Ht4nLhvqso6vWwJbvLBK-29" value="&lt;font color=&quot;#ffffff&quot;&gt;&lt;span style=&quot;font-size: 18px;&quot;&gt;Aquí incluiria la información del objeto perdido, como imagen, fecha, descripción&lt;/span&gt;&lt;/font&gt;&amp;nbsp;&amp;nbsp;" style="shape=note;whiteSpace=wrap;html=1;backgroundOutline=1;darkOpacity=0.05;" parent="1" vertex="1">
                    <mxGeometry x="2691.5" y="1712" width="190" height="170" as="geometry"/>
                </mxCell>
                <mxCell id="Ht4nLhvqso6vWwJbvLBK-30" value="Cerrar Sesión" style="rounded=1;whiteSpace=wrap;html=1;arcSize=0;" parent="1" vertex="1">
                    <mxGeometry x="3575" y="1430" width="120" height="40" as="geometry"/>
                </mxCell>
                <mxCell id="Ht4nLhvqso6vWwJbvLBK-31" value="" style="rounded=1;whiteSpace=wrap;html=1;arcSize=2;" parent="1" vertex="1">
                    <mxGeometry x="3995" y="1539" width="510" height="421" as="geometry"/>
                </mxCell>
                <mxCell id="Ht4nLhvqso6vWwJbvLBK-32" value="" style="rounded=1;whiteSpace=wrap;html=1;arcSize=2;" parent="1" vertex="1">
                    <mxGeometry x="4025" y="1562" width="200" height="188" as="geometry"/>
                </mxCell>
                <mxCell id="Ht4nLhvqso6vWwJbvLBK-33" value="&lt;font style=&quot;scrollbar-color: light-dark(#e2e2e2, #4b4b4b)&lt;br/&gt;&#x9;&#x9;&#x9;&#x9;&#x9;light-dark(#fbfbfb, var(--dark-panel-color));&quot;&gt;&lt;span style=&quot;scrollbar-color: light-dark(#e2e2e2, #4b4b4b)&lt;br/&gt;&#x9;&#x9;&#x9;&#x9;&#x9;light-dark(#fbfbfb, var(--dark-panel-color)); font-size: 18px;&quot;&gt;Aquí incluiria la información del objeto perdido: fecha, descripción, etc.&lt;/span&gt;&lt;/font&gt;&lt;span style=&quot;color: rgb(0, 0, 0);&quot;&gt;&amp;nbsp;&lt;/span&gt;" style="shape=note;whiteSpace=wrap;html=1;backgroundOutline=1;darkOpacity=0.05;" parent="1" vertex="1">
                    <mxGeometry x="4285" y="1571" width="190" height="170" as="geometry"/>
                </mxCell>
                <mxCell id="Ht4nLhvqso6vWwJbvLBK-34" value="&lt;span style=&quot;font-size: 18px;&quot;&gt;Foto&lt;/span&gt;" style="shape=note;whiteSpace=wrap;html=1;backgroundOutline=1;darkOpacity=0.05;" parent="1" vertex="1">
                    <mxGeometry x="4060" y="1596.5" width="130" height="119" as="geometry"/>
                </mxCell>
                <mxCell id="Ht4nLhvqso6vWwJbvLBK-35" value="Editar Información" style="rounded=1;whiteSpace=wrap;html=1;arcSize=0;" parent="1" vertex="1">
                    <mxGeometry x="4035" y="1789" width="180" height="40" as="geometry"/>
                </mxCell>
                <mxCell id="Ht4nLhvqso6vWwJbvLBK-36" value="Reclamar" style="rounded=1;whiteSpace=wrap;html=1;arcSize=0;" parent="1" vertex="1">
                    <mxGeometry x="4280" y="1829" width="200" height="40" as="geometry"/>
                </mxCell>
                <mxCell id="Ht4nLhvqso6vWwJbvLBK-37" value="" style="rounded=1;whiteSpace=wrap;html=1;arcSize=2;" parent="1" vertex="1">
                    <mxGeometry x="2645" y="2000" width="310" height="290" as="geometry"/>
                </mxCell>
                <mxCell id="Ht4nLhvqso6vWwJbvLBK-38" value="" style="rounded=1;whiteSpace=wrap;html=1;arcSize=2;" parent="1" vertex="1">
                    <mxGeometry x="2975" y="2000" width="310" height="290" as="geometry"/>
                </mxCell>
                <mxCell id="Ht4nLhvqso6vWwJbvLBK-39" value="" style="rounded=1;whiteSpace=wrap;html=1;arcSize=2;" parent="1" vertex="1">
                    <mxGeometry x="3316.5" y="2000" width="310" height="290" as="geometry"/>
                </mxCell>
                <mxCell id="Ht4nLhvqso6vWwJbvLBK-40" value="&lt;span style=&quot;font-size: 72px;&quot;&gt;Panel previsualización Objeto Perdido&lt;/span&gt;" style="text;strokeColor=none;align=center;fillColor=none;html=1;verticalAlign=middle;whiteSpace=wrap;rounded=0;" parent="1" vertex="1">
                    <mxGeometry x="3930" y="1330" width="670" height="30" as="geometry"/>
                </mxCell>
                <mxCell id="Ht4nLhvqso6vWwJbvLBK-41" value="Añadir&lt;span style=&quot;background-color: transparent;&quot;&gt;&amp;nbsp;Objeto Perdido&lt;/span&gt;" style="rounded=1;whiteSpace=wrap;html=1;arcSize=0;" parent="1" vertex="1">
                    <mxGeometry x="3505" y="1610" width="120" height="40" as="geometry"/>
                </mxCell>
                <mxCell id="Ht4nLhvqso6vWwJbvLBK-43" value="Eliminar" style="rounded=1;whiteSpace=wrap;html=1;arcSize=0;" parent="1" vertex="1">
                    <mxGeometry x="4035" y="1860" width="180" height="40" as="geometry"/>
                </mxCell>
                <mxCell id="cJnU46IesZ4WQSYNN1LF-1" value="&lt;font style=&quot;font-size: 36px;&quot;&gt;Objetos Perdidos&lt;/font&gt;" style="text;strokeColor=none;align=center;fillColor=none;html=1;verticalAlign=middle;whiteSpace=wrap;rounded=0;" parent="1" vertex="1">
                    <mxGeometry x="2510" y="1615" width="670" height="30" as="geometry"/>
                </mxCell>
                <mxCell id="cJnU46IesZ4WQSYNN1LF-3" value="" style="rounded=1;whiteSpace=wrap;html=1;arcSize=2;" parent="1" vertex="1">
                    <mxGeometry x="3960" y="2210" width="810" height="740" as="geometry"/>
                </mxCell>
                <mxCell id="cJnU46IesZ4WQSYNN1LF-4" value="&lt;span style=&quot;font-size: 72px;&quot;&gt;Panel Añadir Objeto Perdido&lt;/span&gt;" style="text;strokeColor=none;align=center;fillColor=none;html=1;verticalAlign=middle;whiteSpace=wrap;rounded=0;" parent="1" vertex="1">
                    <mxGeometry x="4010" y="2060" width="670" height="30" as="geometry"/>
                </mxCell>
                <mxCell id="2e7ZmtUDZNtsBrMVjo3S-1" value="Agregar Foto" style="rounded=1;whiteSpace=wrap;html=1;arcSize=2;" parent="1" vertex="1">
                    <mxGeometry x="4010" y="2420" width="265" height="250" as="geometry"/>
                </mxCell>
                <mxCell id="TPJWNC1JmOCm0fE_jMcl-25" value="" style="rounded=1;whiteSpace=wrap;html=1;arcSize=3;" parent="1" vertex="1">
                    <mxGeometry x="4326" y="2250" width="410" height="660" as="geometry"/>
                </mxCell>
                <mxCell id="TPJWNC1JmOCm0fE_jMcl-26" value="Registrar" style="rounded=1;whiteSpace=wrap;html=1;arcSize=5;fontStyle=1;fontSize=16;" parent="1" vertex="1">
                    <mxGeometry x="4446" y="2840" width="170" height="40" as="geometry"/>
                </mxCell>
                <mxCell id="TPJWNC1JmOCm0fE_jMcl-27" value="&lt;b&gt;Nombre&lt;br&gt;&lt;/b&gt;" style="text;html=1;align=center;verticalAlign=middle;whiteSpace=wrap;rounded=0;fontSize=20;" parent="1" vertex="1">
                    <mxGeometry x="4315" y="2300" width="192" height="30" as="geometry"/>
                </mxCell>
                <mxCell id="TPJWNC1JmOCm0fE_jMcl-28" value="" style="rounded=1;whiteSpace=wrap;html=1;arcSize=5;" parent="1" vertex="1">
                    <mxGeometry x="4362" y="2330" width="330" height="40" as="geometry"/>
                </mxCell>
                <mxCell id="TPJWNC1JmOCm0fE_jMcl-29" value="Descripción" style="text;html=1;align=center;verticalAlign=middle;whiteSpace=wrap;rounded=0;fontSize=20;fontStyle=1;" parent="1" vertex="1">
                    <mxGeometry x="4358" y="2381" width="138" height="30" as="geometry"/>
                </mxCell>
                <mxCell id="TPJWNC1JmOCm0fE_jMcl-30" value="" style="rounded=1;whiteSpace=wrap;html=1;arcSize=5;" parent="1" vertex="1">
                    <mxGeometry x="4362" y="2410" width="330" height="70" as="geometry"/>
                </mxCell>
                <mxCell id="TPJWNC1JmOCm0fE_jMcl-31" value="Fecha&amp;nbsp;" style="text;html=1;align=center;verticalAlign=middle;whiteSpace=wrap;rounded=0;fontSize=20;fontStyle=1;" parent="1" vertex="1">
                    <mxGeometry x="4326" y="2490" width="170" height="30" as="geometry"/>
                </mxCell>
                <mxCell id="TPJWNC1JmOCm0fE_jMcl-32" value="Calendario" style="rounded=1;whiteSpace=wrap;html=1;arcSize=5;" parent="1" vertex="1">
                    <mxGeometry x="4362" y="2520" width="330" height="130" as="geometry"/>
                </mxCell>
                <mxCell id="TPJWNC1JmOCm0fE_jMcl-33" value="Lugar" style="text;html=1;align=center;verticalAlign=middle;whiteSpace=wrap;rounded=0;fontSize=20;fontStyle=1;" parent="1" vertex="1">
                    <mxGeometry x="4342" y="2660" width="138" height="30" as="geometry"/>
                </mxCell>
                <mxCell id="TPJWNC1JmOCm0fE_jMcl-34" value="" style="rounded=1;whiteSpace=wrap;html=1;arcSize=5;" parent="1" vertex="1">
                    <mxGeometry x="4366" y="2690" width="330" height="40" as="geometry"/>
                </mxCell>
                <mxCell id="TPJWNC1JmOCm0fE_jMcl-35" value="Estado" style="text;html=1;align=center;verticalAlign=middle;whiteSpace=wrap;rounded=0;fontSize=20;fontStyle=1;" parent="1" vertex="1">
                    <mxGeometry x="4348.5" y="2740" width="138" height="30" as="geometry"/>
                </mxCell>
                <mxCell id="TPJWNC1JmOCm0fE_jMcl-36" value="" style="rounded=1;whiteSpace=wrap;html=1;arcSize=5;" parent="1" vertex="1">
                    <mxGeometry x="4366" y="2770" width="330" height="40" as="geometry"/>
                </mxCell>
            </root>
        </mxGraphModel>
    </diagram>
    <diagram id="8JPkfL7RUQQK6uSzq1zr" name="Page-3">
        <mxGraphModel dx="1264" dy="573" grid="1" gridSize="10" guides="1" tooltips="1" connect="1" arrows="1" fold="1" page="1" pageScale="1" pageWidth="10000" pageHeight="10000" math="0" shadow="0">
            <root>
                <mxCell id="0"/>
                <mxCell id="1" parent="0"/>
            </root>
        </mxGraphModel>
    </diagram>
</mxfile>